%TF.GenerationSoftware,KiCad,Pcbnew,10.0.0*%
%TF.CreationDate,2026-05-17T15:19:02+02:00*%
%TF.ProjectId,Automatic beverage dispenser,4175746f-6d61-4746-9963-206265766572,rev?*%
%TF.SameCoordinates,Original*%
%TF.FileFunction,Copper,L2,Bot*%
%TF.FilePolarity,Positive*%
%FSLAX46Y46*%
G04 Gerber Fmt 4.6, Leading zero omitted, Abs format (unit mm)*
G04 Created by KiCad (PCBNEW 10.0.0) date 2026-05-17 15:19:02*
%MOMM*%
%LPD*%
G01*
G04 APERTURE LIST*
G04 Aperture macros list*
%AMRoundRect*
0 Rectangle with rounded corners*
0 $1 Rounding radius*
0 $2 $3 $4 $5 $6 $7 $8 $9 X,Y pos of 4 corners*
0 Add a 4 corners polygon primitive as box body*
4,1,4,$2,$3,$4,$5,$6,$7,$8,$9,$2,$3,0*
0 Add four circle primitives for the rounded corners*
1,1,$1+$1,$2,$3*
1,1,$1+$1,$4,$5*
1,1,$1+$1,$6,$7*
1,1,$1+$1,$8,$9*
0 Add four rect primitives between the rounded corners*
20,1,$1+$1,$2,$3,$4,$5,0*
20,1,$1+$1,$4,$5,$6,$7,0*
20,1,$1+$1,$6,$7,$8,$9,0*
20,1,$1+$1,$8,$9,$2,$3,0*%
G04 Aperture macros list end*
%TA.AperFunction,ComponentPad*%
%ADD10RoundRect,0.250000X0.725000X-0.600000X0.725000X0.600000X-0.725000X0.600000X-0.725000X-0.600000X0*%
%TD*%
%TA.AperFunction,ComponentPad*%
%ADD11O,1.950000X1.700000*%
%TD*%
%TA.AperFunction,ComponentPad*%
%ADD12C,2.000000*%
%TD*%
%TA.AperFunction,ComponentPad*%
%ADD13R,1.700000X1.700000*%
%TD*%
%TA.AperFunction,ComponentPad*%
%ADD14C,1.700000*%
%TD*%
%TA.AperFunction,ComponentPad*%
%ADD15RoundRect,0.250000X-0.750000X0.600000X-0.750000X-0.600000X0.750000X-0.600000X0.750000X0.600000X0*%
%TD*%
%TA.AperFunction,ComponentPad*%
%ADD16O,2.000000X1.700000*%
%TD*%
%TA.AperFunction,ComponentPad*%
%ADD17R,3.500000X3.500000*%
%TD*%
%TA.AperFunction,ComponentPad*%
%ADD18RoundRect,0.750000X-0.750000X-1.000000X0.750000X-1.000000X0.750000X1.000000X-0.750000X1.000000X0*%
%TD*%
%TA.AperFunction,ComponentPad*%
%ADD19RoundRect,0.875000X-0.875000X-0.875000X0.875000X-0.875000X0.875000X0.875000X-0.875000X0.875000X0*%
%TD*%
%TA.AperFunction,ViaPad*%
%ADD20C,0.600000*%
%TD*%
%TA.AperFunction,ViaPad*%
%ADD21C,0.500000*%
%TD*%
%TA.AperFunction,Conductor*%
%ADD22C,0.250000*%
%TD*%
%TA.AperFunction,Conductor*%
%ADD23C,0.300000*%
%TD*%
G04 APERTURE END LIST*
D10*
%TO.P,J3,1,Pin_1_1*%
%TO.N,+3.3V*%
X184200000Y-68700000D03*
D11*
%TO.P,J3,2,Pin_2_2*%
%TO.N,GND*%
X184200000Y-66200000D03*
%TO.P,J3,3,Pin_3_3*%
%TO.N,I2C_SCL*%
X184200000Y-63700000D03*
%TO.P,J3,4,Pin_4_4*%
%TO.N,I2C_SDA*%
X184200000Y-61200000D03*
%TD*%
D12*
%TO.P,SW1,1,1_1*%
%TO.N,GND*%
X156300000Y-90800000D03*
X149800000Y-90800000D03*
%TO.P,SW1,2,2_2*%
%TO.N,Net-(R10-Pad2)*%
X156300000Y-86300000D03*
X149800000Y-86300000D03*
%TD*%
D13*
%TO.P,J2,1,Pin_1_1*%
%TO.N,+3.3V*%
X186220000Y-54600000D03*
D14*
%TO.P,J2,2,Pin_2_2*%
%TO.N,GND*%
X183680000Y-54600000D03*
%TO.P,J2,3,Pin_3_3*%
%TO.N,SWDIO*%
X181140000Y-54600000D03*
%TO.P,J2,4,Pin_4_4*%
%TO.N,SWCLK*%
X178600000Y-54600000D03*
%TD*%
D10*
%TO.P,J5,1,Pin_1_1*%
%TO.N,+12V*%
X184000000Y-48800000D03*
D11*
%TO.P,J5,2,Pin_2_2*%
%TO.N,Net-(J5-Pin_2)*%
X184000000Y-46300000D03*
%TO.P,J5,3,Pin_3_3*%
%TO.N,GND*%
X184000000Y-43800000D03*
%TD*%
D15*
%TO.P,J4,1,Pin_1_1*%
%TO.N,+12V*%
X144600000Y-62700000D03*
D16*
%TO.P,J4,2,Pin_2_2*%
%TO.N,Net-(D2-A)*%
X144600000Y-65200000D03*
%TD*%
D12*
%TO.P,SW3,1,1_1*%
%TO.N,GND*%
X179600000Y-90800000D03*
X173100000Y-90800000D03*
%TO.P,SW3,2,2_2*%
%TO.N,Net-(R14-Pad2)*%
X179600000Y-86300000D03*
X173100000Y-86300000D03*
%TD*%
%TO.P,SW2,1,1_1*%
%TO.N,GND*%
X168100000Y-90800000D03*
X161600000Y-90800000D03*
%TO.P,SW2,2,2_2*%
%TO.N,Net-(R12-Pad2)*%
X168100000Y-86300000D03*
X161600000Y-86300000D03*
%TD*%
D17*
%TO.P,J1,1*%
%TO.N,Net-(F1-Pad1)*%
X154250000Y-45000000D03*
D18*
%TO.P,J1,2*%
%TO.N,GND*%
X148250000Y-45000000D03*
D19*
%TO.P,J1,3*%
%TO.N,N/C*%
X151250000Y-49700000D03*
%TD*%
D20*
%TO.N,GND*%
X162070000Y-46860000D03*
X141580000Y-47610000D03*
X171110000Y-42890000D03*
X185750000Y-80730000D03*
X143030000Y-85840000D03*
X179330000Y-44860000D03*
X166720000Y-52880000D03*
X163970000Y-46710000D03*
X187810000Y-77590000D03*
X145140000Y-48900000D03*
X145070000Y-87010000D03*
X175730000Y-43640000D03*
X172220000Y-43330000D03*
X146220000Y-67300000D03*
X165690000Y-52060000D03*
X168010000Y-59620000D03*
X175500000Y-51500000D03*
X168930000Y-39800000D03*
X170080000Y-40850000D03*
X147360000Y-67300000D03*
X161280000Y-46570000D03*
X168300000Y-52500000D03*
X186650000Y-43600000D03*
X154280000Y-66260000D03*
X143030000Y-88170000D03*
X144960000Y-72090000D03*
X180960000Y-50830000D03*
X166650000Y-52060000D03*
X161800000Y-50500000D03*
X186150000Y-77580000D03*
X155250000Y-54580000D03*
X168160000Y-45170000D03*
X165700000Y-66400000D03*
X143070000Y-43710000D03*
X151190000Y-46700000D03*
X141200000Y-68400000D03*
X152000000Y-88000000D03*
X165270000Y-45200000D03*
X163040000Y-39810000D03*
X145070000Y-88150000D03*
X154600000Y-67780000D03*
X160760000Y-48090000D03*
X171580000Y-65690000D03*
X144960000Y-76720000D03*
X164000000Y-64700000D03*
X168040000Y-56400000D03*
X165690000Y-53900000D03*
X164640000Y-55470000D03*
X163180000Y-59610000D03*
X180990000Y-73050000D03*
X174020000Y-66940000D03*
X170710000Y-79840000D03*
X141090000Y-66260000D03*
X186690000Y-47030000D03*
X157440000Y-76110000D03*
X141090000Y-65120000D03*
X153400000Y-41440000D03*
X172880000Y-66940000D03*
X168440000Y-45960000D03*
X177960000Y-46020000D03*
X170710000Y-75210000D03*
X156140000Y-50460000D03*
X145000000Y-81880000D03*
X187810000Y-72960000D03*
X142810000Y-47610000D03*
X156890000Y-62870000D03*
X141660000Y-44840000D03*
X177960000Y-44880000D03*
X154280000Y-65190000D03*
X146300000Y-66400000D03*
X168940000Y-40850000D03*
X155650000Y-66280000D03*
X186690000Y-44820000D03*
X184000000Y-79500000D03*
X170710000Y-78610000D03*
X148430000Y-67300000D03*
X178070000Y-42630000D03*
X186150000Y-72950000D03*
X141090000Y-67330000D03*
X155610000Y-41440000D03*
X148500000Y-61000000D03*
X170350000Y-45970000D03*
X169050000Y-75200000D03*
X166020000Y-61080000D03*
X173200000Y-43700000D03*
X157440000Y-74920000D03*
X161690000Y-52630000D03*
X145840000Y-56470000D03*
X178060000Y-43640000D03*
X185750000Y-84130000D03*
X174660000Y-43640000D03*
X165370000Y-39810000D03*
X165850000Y-62860000D03*
X159100000Y-75910000D03*
X146910000Y-56470000D03*
X146210000Y-47610000D03*
X154280000Y-62860000D03*
X157460000Y-54580000D03*
X144000000Y-48900000D03*
X169410000Y-45970000D03*
X187410000Y-81720000D03*
X170460000Y-66940000D03*
X166340000Y-45200000D03*
X154280000Y-64050000D03*
X188300000Y-42550000D03*
X163640000Y-53870000D03*
X144960000Y-74510000D03*
X143800000Y-67300000D03*
X164650000Y-56370000D03*
X145030000Y-67300000D03*
X144760000Y-68400000D03*
X147410000Y-41410000D03*
X163550000Y-53010000D03*
X184000000Y-81920000D03*
X143070000Y-44850000D03*
X185640000Y-86780000D03*
X178660000Y-73050000D03*
X165000000Y-61000000D03*
X174450000Y-50880000D03*
X187410000Y-79510000D03*
X141660000Y-41280000D03*
X146910000Y-78240000D03*
X162670000Y-53010000D03*
X168300000Y-51300000D03*
X142430000Y-68400000D03*
X160660000Y-47160000D03*
X141660000Y-43700000D03*
X186660000Y-42590000D03*
X141700000Y-64400000D03*
X164580000Y-46000000D03*
X145070000Y-89220000D03*
X171270000Y-40850000D03*
X161670000Y-44020000D03*
X170710000Y-76280000D03*
X173000000Y-57500000D03*
X159100000Y-74770000D03*
X154700000Y-50480000D03*
X174660000Y-41580000D03*
X163500000Y-63000000D03*
X179850000Y-73050000D03*
X182130000Y-52030000D03*
X152890000Y-66280000D03*
X147100000Y-68300000D03*
X160810000Y-54550000D03*
X188330000Y-46990000D03*
X185750000Y-81920000D03*
X166610000Y-40860000D03*
X171040000Y-45170000D03*
X145830000Y-68400000D03*
X143070000Y-45920000D03*
X179600000Y-52000000D03*
X143620000Y-68400000D03*
X184000000Y-83060000D03*
X185640000Y-85550000D03*
X146880000Y-59900000D03*
X186150000Y-76510000D03*
X173400000Y-42200000D03*
X171120000Y-43970000D03*
X184180000Y-50880000D03*
X165690000Y-51280000D03*
X169050000Y-77620000D03*
X157440000Y-73690000D03*
X172490000Y-39800000D03*
X166770000Y-53880000D03*
X146210000Y-48900000D03*
X145000000Y-80740000D03*
X161690000Y-51780000D03*
X166600000Y-39810000D03*
X183890000Y-87930000D03*
X172770000Y-65690000D03*
X156890000Y-63940000D03*
X145140000Y-47610000D03*
X158600000Y-54550000D03*
X185320000Y-50880000D03*
X171260000Y-39800000D03*
X152890000Y-65210000D03*
X146910000Y-79470000D03*
X184000000Y-80730000D03*
X166530000Y-45970000D03*
X156890000Y-61730000D03*
X165800000Y-59620000D03*
X180990000Y-52030000D03*
X187410000Y-80580000D03*
X151200000Y-45580000D03*
X155650000Y-65210000D03*
X164600000Y-65400000D03*
X144570000Y-46000000D03*
X147900000Y-66500000D03*
X142810000Y-48900000D03*
X184000000Y-84130000D03*
X142410000Y-67260000D03*
X141580000Y-48900000D03*
X167470000Y-45970000D03*
X171500000Y-55000000D03*
X147720000Y-48870000D03*
X148550000Y-41410000D03*
X164660000Y-57180000D03*
X144570000Y-43790000D03*
X165380000Y-40860000D03*
X175090000Y-66940000D03*
X179290000Y-43640000D03*
X184210000Y-52080000D03*
X178060000Y-41580000D03*
X159100000Y-77100000D03*
X154700000Y-48270000D03*
X167860000Y-39800000D03*
X152270000Y-67780000D03*
X178500000Y-50800000D03*
X152890000Y-64070000D03*
X165640000Y-52910000D03*
X188290000Y-41500000D03*
X177960000Y-47090000D03*
X146880000Y-61040000D03*
X146910000Y-82870000D03*
X186420000Y-52080000D03*
X146880000Y-62110000D03*
X173910000Y-65690000D03*
X164720000Y-53890000D03*
X177360000Y-50800000D03*
X163060000Y-46720000D03*
X172180000Y-42340000D03*
X161300000Y-51100000D03*
X169050000Y-79830000D03*
X168000000Y-72000000D03*
X171110000Y-41990000D03*
X170070000Y-39800000D03*
X169600000Y-53900000D03*
X143030000Y-89240000D03*
X178530000Y-52000000D03*
X188290000Y-43560000D03*
X141660000Y-45910000D03*
X144000000Y-47610000D03*
X179330000Y-46000000D03*
X155650000Y-64070000D03*
X159670000Y-54550000D03*
X144570000Y-44930000D03*
X163540000Y-64030000D03*
X185750000Y-79500000D03*
X176870000Y-43640000D03*
X151040000Y-67780000D03*
X187810000Y-74030000D03*
X154470000Y-41440000D03*
X169050000Y-76430000D03*
X187500000Y-85580000D03*
X177390000Y-52000000D03*
X153460000Y-67780000D03*
X161980000Y-40860000D03*
X174980000Y-65690000D03*
X175740000Y-42630000D03*
X179300000Y-42630000D03*
X144960000Y-73320000D03*
X175200000Y-49000000D03*
X155650000Y-61650000D03*
X179330000Y-47070000D03*
X150000000Y-63000000D03*
X182060000Y-73050000D03*
X161750000Y-53500000D03*
X141660000Y-42510000D03*
X146910000Y-80660000D03*
X147300000Y-65700000D03*
X183200000Y-52030000D03*
X154280000Y-61630000D03*
X187810000Y-76360000D03*
X159100000Y-78330000D03*
X151920000Y-41460000D03*
X188330000Y-44780000D03*
X164180000Y-39810000D03*
X183890000Y-86740000D03*
X157500000Y-80500000D03*
X171690000Y-66940000D03*
X171324673Y-53898252D03*
X183890000Y-85510000D03*
X164250000Y-45170000D03*
X160910000Y-43250000D03*
X175200000Y-50600000D03*
X186150000Y-74180000D03*
X146910000Y-81800000D03*
X151210000Y-44420000D03*
X164190000Y-40860000D03*
X164470000Y-59650000D03*
X146830000Y-73320000D03*
X145070000Y-85820000D03*
X186390000Y-50880000D03*
X152890000Y-61650000D03*
X167870000Y-40850000D03*
X183170000Y-50830000D03*
X182100000Y-50830000D03*
X144570000Y-41370000D03*
X170710000Y-77420000D03*
X187810000Y-75170000D03*
X146830000Y-75650000D03*
X169050000Y-78760000D03*
X160780000Y-53510000D03*
X175730000Y-41580000D03*
X155670000Y-67780000D03*
X142410000Y-66190000D03*
X185750000Y-83060000D03*
X166600000Y-51300000D03*
X186150000Y-75370000D03*
X172500000Y-40850000D03*
X179290000Y-41580000D03*
X163560000Y-45970000D03*
X165670000Y-61900000D03*
X170100000Y-45170000D03*
X162620000Y-53930000D03*
X142410000Y-65050000D03*
X147540000Y-47870000D03*
X167220000Y-45170000D03*
X174450000Y-48670000D03*
X156320000Y-54580000D03*
X146340000Y-41410000D03*
X160750000Y-51750000D03*
X151200000Y-43340000D03*
X166870000Y-59620000D03*
X163100000Y-62400000D03*
X185350000Y-52080000D03*
X154700000Y-49410000D03*
X161890000Y-42970000D03*
X167790000Y-53900000D03*
X159100000Y-73700000D03*
X161390000Y-47530000D03*
X185640000Y-87970000D03*
X145000000Y-82950000D03*
X163900000Y-63500000D03*
X176870000Y-41580000D03*
X187410000Y-82910000D03*
X161930000Y-41940000D03*
X163050000Y-40860000D03*
X170500000Y-53900000D03*
X149710000Y-41460000D03*
X146830000Y-76720000D03*
X156140000Y-48250000D03*
X186690000Y-45960000D03*
X144960000Y-75650000D03*
X167440000Y-51320000D03*
X144570000Y-42600000D03*
X143070000Y-42520000D03*
X143030000Y-87030000D03*
X164590000Y-53030000D03*
X186650000Y-41540000D03*
X146830000Y-74510000D03*
X174670000Y-42630000D03*
X169130000Y-45160000D03*
X169500000Y-69500000D03*
X187500000Y-86810000D03*
X143070000Y-41290000D03*
X145000000Y-78320000D03*
X188330000Y-45920000D03*
X167630000Y-52870000D03*
X167610000Y-52050000D03*
X187410000Y-84140000D03*
X170350000Y-65690000D03*
X156140000Y-49390000D03*
X175200000Y-49800000D03*
X145070000Y-84590000D03*
X152890000Y-62880000D03*
X173400000Y-43000000D03*
X168060000Y-57410000D03*
X174450000Y-49810000D03*
X161970000Y-39810000D03*
X179570000Y-50800000D03*
X155650000Y-62880000D03*
X143030000Y-84610000D03*
X165650000Y-46000000D03*
X145000000Y-79550000D03*
X176880000Y-42630000D03*
X187500000Y-88000000D03*
X157440000Y-77250000D03*
X165860000Y-63940000D03*
X160730000Y-52600000D03*
X177430000Y-73050000D03*
X168690000Y-53920000D03*
X150780000Y-41460000D03*
X157440000Y-78320000D03*
X148050000Y-56470000D03*
X146830000Y-72090000D03*
%TO.N,+3.3V*%
X179500000Y-61000000D03*
X176000000Y-60500000D03*
D21*
%TO.N,FLUID_PUMP*%
X160000000Y-59200000D03*
X157628655Y-59200000D03*
%TO.N,Net-(J5-Pin_2)*%
X183600000Y-70000000D03*
X185000000Y-70000000D03*
%TD*%
%TO.N,GND*%
D22*
X168000000Y-72000000D02*
X169500000Y-70500000D01*
X172000000Y-55000000D02*
X171500000Y-55000000D01*
X171500000Y-56000000D02*
X171500000Y-55000000D01*
X165000000Y-61500000D02*
X165000000Y-61000000D01*
X150000000Y-62500000D02*
X150000000Y-63000000D01*
X173000000Y-57500000D02*
X171500000Y-56000000D01*
X169500000Y-70500000D02*
X169500000Y-69500000D01*
X152000000Y-88000000D02*
X157500000Y-82500000D01*
X163500000Y-63000000D02*
X165000000Y-61500000D01*
X175500000Y-51500000D02*
X172000000Y-55000000D01*
X157500000Y-82500000D02*
X157500000Y-80500000D01*
X148500000Y-61000000D02*
X150000000Y-62500000D01*
%TO.N,+3.3V*%
D23*
X176500000Y-61000000D02*
X179500000Y-61000000D01*
X176000000Y-60500000D02*
X176500000Y-61000000D01*
%TO.N,FLUID_PUMP*%
X157628655Y-59200000D02*
X160000000Y-59200000D01*
%TO.N,Net-(J5-Pin_2)*%
X183600000Y-70000000D02*
X185000000Y-70000000D01*
%TD*%
%TA.AperFunction,Conductor*%
%TO.N,GND*%
G36*
X189442539Y-34520185D02*
G01*
X189488294Y-34572989D01*
X189499500Y-34624500D01*
X189499500Y-96435500D01*
X189479815Y-96502539D01*
X189427011Y-96548294D01*
X189375500Y-96559500D01*
X140674500Y-96559500D01*
X140607461Y-96539815D01*
X140561706Y-96487011D01*
X140550500Y-96435500D01*
X140550500Y-93393713D01*
X142149500Y-93393713D01*
X142149500Y-93606286D01*
X142182753Y-93816239D01*
X142248444Y-94018414D01*
X142344951Y-94207820D01*
X142469890Y-94379786D01*
X142620213Y-94530109D01*
X142792179Y-94655048D01*
X142792181Y-94655049D01*
X142792184Y-94655051D01*
X142981588Y-94751557D01*
X143183757Y-94817246D01*
X143393713Y-94850500D01*
X143393714Y-94850500D01*
X143606286Y-94850500D01*
X143606287Y-94850500D01*
X143816243Y-94817246D01*
X144018412Y-94751557D01*
X144207816Y-94655051D01*
X144229789Y-94639086D01*
X144379786Y-94530109D01*
X144379788Y-94530106D01*
X144379792Y-94530104D01*
X144530104Y-94379792D01*
X144530106Y-94379788D01*
X144530109Y-94379786D01*
X144655048Y-94207820D01*
X144655047Y-94207820D01*
X144655051Y-94207816D01*
X144751557Y-94018412D01*
X144817246Y-93816243D01*
X144850500Y-93606287D01*
X144850500Y-93393713D01*
X185149500Y-93393713D01*
X185149500Y-93606286D01*
X185182753Y-93816239D01*
X185248444Y-94018414D01*
X185344951Y-94207820D01*
X185469890Y-94379786D01*
X185620213Y-94530109D01*
X185792179Y-94655048D01*
X185792181Y-94655049D01*
X185792184Y-94655051D01*
X185981588Y-94751557D01*
X186183757Y-94817246D01*
X186393713Y-94850500D01*
X186393714Y-94850500D01*
X186606286Y-94850500D01*
X186606287Y-94850500D01*
X186816243Y-94817246D01*
X187018412Y-94751557D01*
X187207816Y-94655051D01*
X187229789Y-94639086D01*
X187379786Y-94530109D01*
X187379788Y-94530106D01*
X187379792Y-94530104D01*
X187530104Y-94379792D01*
X187530106Y-94379788D01*
X187530109Y-94379786D01*
X187655048Y-94207820D01*
X187655047Y-94207820D01*
X187655051Y-94207816D01*
X187751557Y-94018412D01*
X187817246Y-93816243D01*
X187850500Y-93606287D01*
X187850500Y-93393713D01*
X187817246Y-93183757D01*
X187751557Y-92981588D01*
X187655051Y-92792184D01*
X187655049Y-92792181D01*
X187655048Y-92792179D01*
X187530109Y-92620213D01*
X187379786Y-92469890D01*
X187207820Y-92344951D01*
X187018414Y-92248444D01*
X187018413Y-92248443D01*
X187018412Y-92248443D01*
X186816243Y-92182754D01*
X186816241Y-92182753D01*
X186816240Y-92182753D01*
X186654957Y-92157208D01*
X186606287Y-92149500D01*
X186393713Y-92149500D01*
X186345042Y-92157208D01*
X186183760Y-92182753D01*
X185981585Y-92248444D01*
X185792179Y-92344951D01*
X185620213Y-92469890D01*
X185469890Y-92620213D01*
X185344951Y-92792179D01*
X185248444Y-92981585D01*
X185182753Y-93183760D01*
X185149500Y-93393713D01*
X144850500Y-93393713D01*
X144817246Y-93183757D01*
X144751557Y-92981588D01*
X144655051Y-92792184D01*
X144655049Y-92792181D01*
X144655048Y-92792179D01*
X144530109Y-92620213D01*
X144379786Y-92469890D01*
X144207820Y-92344951D01*
X144018414Y-92248444D01*
X144018413Y-92248443D01*
X144018412Y-92248443D01*
X143816243Y-92182754D01*
X143816241Y-92182753D01*
X143816240Y-92182753D01*
X143654957Y-92157208D01*
X143606287Y-92149500D01*
X143393713Y-92149500D01*
X143345042Y-92157208D01*
X143183760Y-92182753D01*
X142981585Y-92248444D01*
X142792179Y-92344951D01*
X142620213Y-92469890D01*
X142469890Y-92620213D01*
X142344951Y-92792179D01*
X142248444Y-92981585D01*
X142182753Y-93183760D01*
X142149500Y-93393713D01*
X140550500Y-93393713D01*
X140550500Y-90681947D01*
X148300000Y-90681947D01*
X148300000Y-90918052D01*
X148336934Y-91151247D01*
X148409897Y-91375802D01*
X148517087Y-91586174D01*
X148577338Y-91669104D01*
X148577340Y-91669105D01*
X149276212Y-90970233D01*
X149287482Y-91012292D01*
X149359890Y-91137708D01*
X149462292Y-91240110D01*
X149587708Y-91312518D01*
X149629765Y-91323787D01*
X148930893Y-92022658D01*
X149013828Y-92082914D01*
X149224197Y-92190102D01*
X149448752Y-92263065D01*
X149448751Y-92263065D01*
X149681948Y-92300000D01*
X149918052Y-92300000D01*
X150151247Y-92263065D01*
X150375802Y-92190102D01*
X150586163Y-92082918D01*
X150586169Y-92082914D01*
X150669104Y-92022658D01*
X150669105Y-92022658D01*
X149970233Y-91323787D01*
X150012292Y-91312518D01*
X150137708Y-91240110D01*
X150240110Y-91137708D01*
X150312518Y-91012292D01*
X150323787Y-90970233D01*
X151022658Y-91669105D01*
X151022658Y-91669104D01*
X151082914Y-91586169D01*
X151082918Y-91586163D01*
X151190102Y-91375802D01*
X151263065Y-91151247D01*
X151300000Y-90918052D01*
X151300000Y-90681947D01*
X154800000Y-90681947D01*
X154800000Y-90918052D01*
X154836934Y-91151247D01*
X154909897Y-91375802D01*
X155017087Y-91586174D01*
X155077338Y-91669104D01*
X155077340Y-91669105D01*
X155776212Y-90970233D01*
X155787482Y-91012292D01*
X155859890Y-91137708D01*
X155962292Y-91240110D01*
X156087708Y-91312518D01*
X156129765Y-91323787D01*
X155430893Y-92022658D01*
X155513828Y-92082914D01*
X155724197Y-92190102D01*
X155948752Y-92263065D01*
X155948751Y-92263065D01*
X156181948Y-92300000D01*
X156418052Y-92300000D01*
X156651247Y-92263065D01*
X156875802Y-92190102D01*
X157086163Y-92082918D01*
X157086169Y-92082914D01*
X157169104Y-92022658D01*
X157169105Y-92022658D01*
X156470233Y-91323787D01*
X156512292Y-91312518D01*
X156637708Y-91240110D01*
X156740110Y-91137708D01*
X156812518Y-91012292D01*
X156823787Y-90970234D01*
X157522658Y-91669105D01*
X157522658Y-91669104D01*
X157582914Y-91586169D01*
X157582918Y-91586163D01*
X157690102Y-91375802D01*
X157763065Y-91151247D01*
X157800000Y-90918052D01*
X157800000Y-90681947D01*
X160100000Y-90681947D01*
X160100000Y-90918052D01*
X160136934Y-91151247D01*
X160209897Y-91375802D01*
X160317087Y-91586174D01*
X160377338Y-91669104D01*
X160377340Y-91669105D01*
X161076212Y-90970233D01*
X161087482Y-91012292D01*
X161159890Y-91137708D01*
X161262292Y-91240110D01*
X161387708Y-91312518D01*
X161429765Y-91323787D01*
X160730893Y-92022658D01*
X160813828Y-92082914D01*
X161024197Y-92190102D01*
X161248752Y-92263065D01*
X161248751Y-92263065D01*
X161481948Y-92300000D01*
X161718052Y-92300000D01*
X161951247Y-92263065D01*
X162175802Y-92190102D01*
X162386163Y-92082918D01*
X162386169Y-92082914D01*
X162469104Y-92022658D01*
X162469105Y-92022658D01*
X161770233Y-91323787D01*
X161812292Y-91312518D01*
X161937708Y-91240110D01*
X162040110Y-91137708D01*
X162112518Y-91012292D01*
X162123787Y-90970234D01*
X162822658Y-91669105D01*
X162822658Y-91669104D01*
X162882914Y-91586169D01*
X162882918Y-91586163D01*
X162990102Y-91375802D01*
X163063065Y-91151247D01*
X163100000Y-90918052D01*
X163100000Y-90681947D01*
X166600000Y-90681947D01*
X166600000Y-90918052D01*
X166636934Y-91151247D01*
X166709897Y-91375802D01*
X166817087Y-91586174D01*
X166877338Y-91669104D01*
X166877340Y-91669105D01*
X167576212Y-90970233D01*
X167587482Y-91012292D01*
X167659890Y-91137708D01*
X167762292Y-91240110D01*
X167887708Y-91312518D01*
X167929765Y-91323787D01*
X167230893Y-92022658D01*
X167313828Y-92082914D01*
X167524197Y-92190102D01*
X167748752Y-92263065D01*
X167748751Y-92263065D01*
X167981948Y-92300000D01*
X168218052Y-92300000D01*
X168451247Y-92263065D01*
X168675802Y-92190102D01*
X168886163Y-92082918D01*
X168886169Y-92082914D01*
X168969104Y-92022658D01*
X168969105Y-92022658D01*
X168270233Y-91323787D01*
X168312292Y-91312518D01*
X168437708Y-91240110D01*
X168540110Y-91137708D01*
X168612518Y-91012292D01*
X168623787Y-90970233D01*
X169322658Y-91669105D01*
X169322658Y-91669104D01*
X169382914Y-91586169D01*
X169382918Y-91586163D01*
X169490102Y-91375802D01*
X169563065Y-91151247D01*
X169600000Y-90918052D01*
X169600000Y-90681947D01*
X171600000Y-90681947D01*
X171600000Y-90918052D01*
X171636934Y-91151247D01*
X171709897Y-91375802D01*
X171817087Y-91586174D01*
X171877338Y-91669104D01*
X171877340Y-91669105D01*
X172576212Y-90970233D01*
X172587482Y-91012292D01*
X172659890Y-91137708D01*
X172762292Y-91240110D01*
X172887708Y-91312518D01*
X172929765Y-91323787D01*
X172230893Y-92022658D01*
X172313828Y-92082914D01*
X172524197Y-92190102D01*
X172748752Y-92263065D01*
X172748751Y-92263065D01*
X172981948Y-92300000D01*
X173218052Y-92300000D01*
X173451247Y-92263065D01*
X173675802Y-92190102D01*
X173886163Y-92082918D01*
X173886169Y-92082914D01*
X173969104Y-92022658D01*
X173969105Y-92022658D01*
X173270233Y-91323787D01*
X173312292Y-91312518D01*
X173437708Y-91240110D01*
X173540110Y-91137708D01*
X173612518Y-91012292D01*
X173623787Y-90970234D01*
X174322658Y-91669105D01*
X174322658Y-91669104D01*
X174382914Y-91586169D01*
X174382918Y-91586163D01*
X174490102Y-91375802D01*
X174563065Y-91151247D01*
X174600000Y-90918052D01*
X174600000Y-90681947D01*
X178100000Y-90681947D01*
X178100000Y-90918052D01*
X178136934Y-91151247D01*
X178209897Y-91375802D01*
X178317087Y-91586174D01*
X178377338Y-91669104D01*
X178377340Y-91669105D01*
X179076212Y-90970233D01*
X179087482Y-91012292D01*
X179159890Y-91137708D01*
X179262292Y-91240110D01*
X179387708Y-91312518D01*
X179429765Y-91323787D01*
X178730893Y-92022658D01*
X178813828Y-92082914D01*
X179024197Y-92190102D01*
X179248752Y-92263065D01*
X179248751Y-92263065D01*
X179481948Y-92300000D01*
X179718052Y-92300000D01*
X179951247Y-92263065D01*
X180175802Y-92190102D01*
X180386163Y-92082918D01*
X180386169Y-92082914D01*
X180469104Y-92022658D01*
X180469105Y-92022658D01*
X179770233Y-91323787D01*
X179812292Y-91312518D01*
X179937708Y-91240110D01*
X180040110Y-91137708D01*
X180112518Y-91012292D01*
X180123787Y-90970233D01*
X180822658Y-91669105D01*
X180822658Y-91669104D01*
X180882914Y-91586169D01*
X180882918Y-91586163D01*
X180990102Y-91375802D01*
X181063065Y-91151247D01*
X181100000Y-90918052D01*
X181100000Y-90681947D01*
X181063065Y-90448752D01*
X180990102Y-90224197D01*
X180882914Y-90013828D01*
X180822658Y-89930894D01*
X180822658Y-89930893D01*
X180123787Y-90629765D01*
X180112518Y-90587708D01*
X180040110Y-90462292D01*
X179937708Y-90359890D01*
X179812292Y-90287482D01*
X179770234Y-90276212D01*
X180469105Y-89577340D01*
X180469104Y-89577338D01*
X180386174Y-89517087D01*
X180175802Y-89409897D01*
X179951247Y-89336934D01*
X179951248Y-89336934D01*
X179718052Y-89300000D01*
X179481948Y-89300000D01*
X179248752Y-89336934D01*
X179024197Y-89409897D01*
X178813830Y-89517084D01*
X178730894Y-89577340D01*
X179429766Y-90276212D01*
X179387708Y-90287482D01*
X179262292Y-90359890D01*
X179159890Y-90462292D01*
X179087482Y-90587708D01*
X179076212Y-90629765D01*
X178377340Y-89930894D01*
X178317084Y-90013830D01*
X178209897Y-90224197D01*
X178136934Y-90448752D01*
X178100000Y-90681947D01*
X174600000Y-90681947D01*
X174563065Y-90448752D01*
X174490102Y-90224197D01*
X174382914Y-90013828D01*
X174322658Y-89930894D01*
X174322658Y-89930893D01*
X173623787Y-90629765D01*
X173612518Y-90587708D01*
X173540110Y-90462292D01*
X173437708Y-90359890D01*
X173312292Y-90287482D01*
X173270234Y-90276212D01*
X173969105Y-89577340D01*
X173969104Y-89577339D01*
X173886174Y-89517087D01*
X173675802Y-89409897D01*
X173451247Y-89336934D01*
X173451248Y-89336934D01*
X173218052Y-89300000D01*
X172981948Y-89300000D01*
X172748752Y-89336934D01*
X172524197Y-89409897D01*
X172313830Y-89517084D01*
X172230894Y-89577340D01*
X172929766Y-90276212D01*
X172887708Y-90287482D01*
X172762292Y-90359890D01*
X172659890Y-90462292D01*
X172587482Y-90587708D01*
X172576212Y-90629766D01*
X171877340Y-89930894D01*
X171817084Y-90013830D01*
X171709897Y-90224197D01*
X171636934Y-90448752D01*
X171600000Y-90681947D01*
X169600000Y-90681947D01*
X169563065Y-90448752D01*
X169490102Y-90224197D01*
X169382914Y-90013828D01*
X169322658Y-89930894D01*
X169322658Y-89930893D01*
X168623787Y-90629765D01*
X168612518Y-90587708D01*
X168540110Y-90462292D01*
X168437708Y-90359890D01*
X168312292Y-90287482D01*
X168270234Y-90276212D01*
X168969105Y-89577340D01*
X168969104Y-89577339D01*
X168886174Y-89517087D01*
X168675802Y-89409897D01*
X168451247Y-89336934D01*
X168451248Y-89336934D01*
X168218052Y-89300000D01*
X167981948Y-89300000D01*
X167748752Y-89336934D01*
X167524197Y-89409897D01*
X167313830Y-89517084D01*
X167230894Y-89577340D01*
X167929766Y-90276212D01*
X167887708Y-90287482D01*
X167762292Y-90359890D01*
X167659890Y-90462292D01*
X167587482Y-90587708D01*
X167576212Y-90629766D01*
X166877340Y-89930894D01*
X166817084Y-90013830D01*
X166709897Y-90224197D01*
X166636934Y-90448752D01*
X166600000Y-90681947D01*
X163100000Y-90681947D01*
X163063065Y-90448752D01*
X162990102Y-90224197D01*
X162882914Y-90013828D01*
X162822658Y-89930894D01*
X162822658Y-89930893D01*
X162123787Y-90629765D01*
X162112518Y-90587708D01*
X162040110Y-90462292D01*
X161937708Y-90359890D01*
X161812292Y-90287482D01*
X161770234Y-90276212D01*
X162469105Y-89577340D01*
X162469104Y-89577339D01*
X162386174Y-89517087D01*
X162175802Y-89409897D01*
X161951247Y-89336934D01*
X161951248Y-89336934D01*
X161718052Y-89300000D01*
X161481948Y-89300000D01*
X161248752Y-89336934D01*
X161024197Y-89409897D01*
X160813830Y-89517084D01*
X160730894Y-89577340D01*
X161429766Y-90276212D01*
X161387708Y-90287482D01*
X161262292Y-90359890D01*
X161159890Y-90462292D01*
X161087482Y-90587708D01*
X161076212Y-90629765D01*
X160377340Y-89930894D01*
X160317084Y-90013830D01*
X160209897Y-90224197D01*
X160136934Y-90448752D01*
X160100000Y-90681947D01*
X157800000Y-90681947D01*
X157763065Y-90448752D01*
X157690102Y-90224197D01*
X157582914Y-90013828D01*
X157522658Y-89930894D01*
X157522658Y-89930893D01*
X156823787Y-90629765D01*
X156812518Y-90587708D01*
X156740110Y-90462292D01*
X156637708Y-90359890D01*
X156512292Y-90287482D01*
X156470234Y-90276212D01*
X157169105Y-89577340D01*
X157169104Y-89577339D01*
X157086174Y-89517087D01*
X156875802Y-89409897D01*
X156651247Y-89336934D01*
X156651248Y-89336934D01*
X156418052Y-89300000D01*
X156181948Y-89300000D01*
X155948752Y-89336934D01*
X155724197Y-89409897D01*
X155513830Y-89517084D01*
X155430894Y-89577340D01*
X156129766Y-90276212D01*
X156087708Y-90287482D01*
X155962292Y-90359890D01*
X155859890Y-90462292D01*
X155787482Y-90587708D01*
X155776212Y-90629766D01*
X155077340Y-89930894D01*
X155017084Y-90013830D01*
X154909897Y-90224197D01*
X154836934Y-90448752D01*
X154800000Y-90681947D01*
X151300000Y-90681947D01*
X151263065Y-90448752D01*
X151190102Y-90224197D01*
X151082914Y-90013828D01*
X151022658Y-89930894D01*
X151022658Y-89930893D01*
X150323787Y-90629765D01*
X150312518Y-90587708D01*
X150240110Y-90462292D01*
X150137708Y-90359890D01*
X150012292Y-90287482D01*
X149970234Y-90276212D01*
X150669105Y-89577340D01*
X150669104Y-89577339D01*
X150586174Y-89517087D01*
X150375802Y-89409897D01*
X150151247Y-89336934D01*
X150151248Y-89336934D01*
X149918052Y-89300000D01*
X149681948Y-89300000D01*
X149448752Y-89336934D01*
X149224197Y-89409897D01*
X149013830Y-89517084D01*
X148930894Y-89577340D01*
X149629766Y-90276212D01*
X149587708Y-90287482D01*
X149462292Y-90359890D01*
X149359890Y-90462292D01*
X149287482Y-90587708D01*
X149276212Y-90629765D01*
X148577340Y-89930894D01*
X148517084Y-90013830D01*
X148409897Y-90224197D01*
X148336934Y-90448752D01*
X148300000Y-90681947D01*
X140550500Y-90681947D01*
X140550500Y-86181902D01*
X148299500Y-86181902D01*
X148299500Y-86418097D01*
X148336446Y-86651368D01*
X148409433Y-86875996D01*
X148516657Y-87086433D01*
X148655483Y-87277510D01*
X148822490Y-87444517D01*
X149013567Y-87583343D01*
X149112991Y-87634002D01*
X149224003Y-87690566D01*
X149224005Y-87690566D01*
X149224008Y-87690568D01*
X149344412Y-87729689D01*
X149448631Y-87763553D01*
X149681903Y-87800500D01*
X149681908Y-87800500D01*
X149918097Y-87800500D01*
X150151368Y-87763553D01*
X150375992Y-87690568D01*
X150586433Y-87583343D01*
X150777510Y-87444517D01*
X150944517Y-87277510D01*
X151083343Y-87086433D01*
X151190568Y-86875992D01*
X151263553Y-86651368D01*
X151300500Y-86418097D01*
X151300500Y-86181902D01*
X154799500Y-86181902D01*
X154799500Y-86418097D01*
X154836446Y-86651368D01*
X154909433Y-86875996D01*
X155016657Y-87086433D01*
X155155483Y-87277510D01*
X155322490Y-87444517D01*
X155513567Y-87583343D01*
X155612991Y-87634002D01*
X155724003Y-87690566D01*
X155724005Y-87690566D01*
X155724008Y-87690568D01*
X155844412Y-87729689D01*
X155948631Y-87763553D01*
X156181903Y-87800500D01*
X156181908Y-87800500D01*
X156418097Y-87800500D01*
X156651368Y-87763553D01*
X156875992Y-87690568D01*
X157086433Y-87583343D01*
X157277510Y-87444517D01*
X157444517Y-87277510D01*
X157583343Y-87086433D01*
X157690568Y-86875992D01*
X157763553Y-86651368D01*
X157800500Y-86418097D01*
X157800500Y-86181902D01*
X160099500Y-86181902D01*
X160099500Y-86418097D01*
X160136446Y-86651368D01*
X160209433Y-86875996D01*
X160316657Y-87086433D01*
X160455483Y-87277510D01*
X160622490Y-87444517D01*
X160813567Y-87583343D01*
X160912991Y-87634002D01*
X161024003Y-87690566D01*
X161024005Y-87690566D01*
X161024008Y-87690568D01*
X161144412Y-87729689D01*
X161248631Y-87763553D01*
X161481903Y-87800500D01*
X161481908Y-87800500D01*
X161718097Y-87800500D01*
X161951368Y-87763553D01*
X162175992Y-87690568D01*
X162386433Y-87583343D01*
X162577510Y-87444517D01*
X162744517Y-87277510D01*
X162883343Y-87086433D01*
X162990568Y-86875992D01*
X163063553Y-86651368D01*
X163100500Y-86418097D01*
X163100500Y-86181902D01*
X166599500Y-86181902D01*
X166599500Y-86418097D01*
X166636446Y-86651368D01*
X166709433Y-86875996D01*
X166816657Y-87086433D01*
X166955483Y-87277510D01*
X167122490Y-87444517D01*
X167313567Y-87583343D01*
X167412991Y-87634002D01*
X167524003Y-87690566D01*
X167524005Y-87690566D01*
X167524008Y-87690568D01*
X167644412Y-87729689D01*
X167748631Y-87763553D01*
X167981903Y-87800500D01*
X167981908Y-87800500D01*
X168218097Y-87800500D01*
X168451368Y-87763553D01*
X168675992Y-87690568D01*
X168886433Y-87583343D01*
X169077510Y-87444517D01*
X169244517Y-87277510D01*
X169383343Y-87086433D01*
X169490568Y-86875992D01*
X169563553Y-86651368D01*
X169600500Y-86418097D01*
X169600500Y-86181902D01*
X171599500Y-86181902D01*
X171599500Y-86418097D01*
X171636446Y-86651368D01*
X171709433Y-86875996D01*
X171816657Y-87086433D01*
X171955483Y-87277510D01*
X172122490Y-87444517D01*
X172313567Y-87583343D01*
X172412991Y-87634002D01*
X172524003Y-87690566D01*
X172524005Y-87690566D01*
X172524008Y-87690568D01*
X172644412Y-87729689D01*
X172748631Y-87763553D01*
X172981903Y-87800500D01*
X172981908Y-87800500D01*
X173218097Y-87800500D01*
X173451368Y-87763553D01*
X173675992Y-87690568D01*
X173886433Y-87583343D01*
X174077510Y-87444517D01*
X174244517Y-87277510D01*
X174383343Y-87086433D01*
X174490568Y-86875992D01*
X174563553Y-86651368D01*
X174600500Y-86418097D01*
X174600500Y-86181902D01*
X178099500Y-86181902D01*
X178099500Y-86418097D01*
X178136446Y-86651368D01*
X178209433Y-86875996D01*
X178316657Y-87086433D01*
X178455483Y-87277510D01*
X178622490Y-87444517D01*
X178813567Y-87583343D01*
X178912991Y-87634002D01*
X179024003Y-87690566D01*
X179024005Y-87690566D01*
X179024008Y-87690568D01*
X179144412Y-87729689D01*
X179248631Y-87763553D01*
X179481903Y-87800500D01*
X179481908Y-87800500D01*
X179718097Y-87800500D01*
X179951368Y-87763553D01*
X180175992Y-87690568D01*
X180386433Y-87583343D01*
X180577510Y-87444517D01*
X180744517Y-87277510D01*
X180883343Y-87086433D01*
X180990568Y-86875992D01*
X181063553Y-86651368D01*
X181100500Y-86418097D01*
X181100500Y-86181902D01*
X181063553Y-85948631D01*
X180990566Y-85724003D01*
X180883342Y-85513566D01*
X180744517Y-85322490D01*
X180577510Y-85155483D01*
X180386433Y-85016657D01*
X180175996Y-84909433D01*
X179951368Y-84836446D01*
X179718097Y-84799500D01*
X179718092Y-84799500D01*
X179481908Y-84799500D01*
X179481903Y-84799500D01*
X179248631Y-84836446D01*
X179024003Y-84909433D01*
X178813566Y-85016657D01*
X178704550Y-85095862D01*
X178622490Y-85155483D01*
X178622488Y-85155485D01*
X178622487Y-85155485D01*
X178455485Y-85322487D01*
X178455485Y-85322488D01*
X178455483Y-85322490D01*
X178395862Y-85404550D01*
X178316657Y-85513566D01*
X178209433Y-85724003D01*
X178136446Y-85948631D01*
X178099500Y-86181902D01*
X174600500Y-86181902D01*
X174563553Y-85948631D01*
X174490566Y-85724003D01*
X174383342Y-85513566D01*
X174244517Y-85322490D01*
X174077510Y-85155483D01*
X173886433Y-85016657D01*
X173675996Y-84909433D01*
X173451368Y-84836446D01*
X173218097Y-84799500D01*
X173218092Y-84799500D01*
X172981908Y-84799500D01*
X172981903Y-84799500D01*
X172748631Y-84836446D01*
X172524003Y-84909433D01*
X172313566Y-85016657D01*
X172204550Y-85095862D01*
X172122490Y-85155483D01*
X172122488Y-85155485D01*
X172122487Y-85155485D01*
X171955485Y-85322487D01*
X171955485Y-85322488D01*
X171955483Y-85322490D01*
X171895862Y-85404550D01*
X171816657Y-85513566D01*
X171709433Y-85724003D01*
X171636446Y-85948631D01*
X171599500Y-86181902D01*
X169600500Y-86181902D01*
X169563553Y-85948631D01*
X169490566Y-85724003D01*
X169383342Y-85513566D01*
X169244517Y-85322490D01*
X169077510Y-85155483D01*
X168886433Y-85016657D01*
X168675996Y-84909433D01*
X168451368Y-84836446D01*
X168218097Y-84799500D01*
X168218092Y-84799500D01*
X167981908Y-84799500D01*
X167981903Y-84799500D01*
X167748631Y-84836446D01*
X167524003Y-84909433D01*
X167313566Y-85016657D01*
X167204550Y-85095862D01*
X167122490Y-85155483D01*
X167122488Y-85155485D01*
X167122487Y-85155485D01*
X166955485Y-85322487D01*
X166955485Y-85322488D01*
X166955483Y-85322490D01*
X166895862Y-85404550D01*
X166816657Y-85513566D01*
X166709433Y-85724003D01*
X166636446Y-85948631D01*
X166599500Y-86181902D01*
X163100500Y-86181902D01*
X163063553Y-85948631D01*
X162990566Y-85724003D01*
X162883342Y-85513566D01*
X162744517Y-85322490D01*
X162577510Y-85155483D01*
X162386433Y-85016657D01*
X162175996Y-84909433D01*
X161951368Y-84836446D01*
X161718097Y-84799500D01*
X161718092Y-84799500D01*
X161481908Y-84799500D01*
X161481903Y-84799500D01*
X161248631Y-84836446D01*
X161024003Y-84909433D01*
X160813566Y-85016657D01*
X160704550Y-85095862D01*
X160622490Y-85155483D01*
X160622488Y-85155485D01*
X160622487Y-85155485D01*
X160455485Y-85322487D01*
X160455485Y-85322488D01*
X160455483Y-85322490D01*
X160395862Y-85404550D01*
X160316657Y-85513566D01*
X160209433Y-85724003D01*
X160136446Y-85948631D01*
X160099500Y-86181902D01*
X157800500Y-86181902D01*
X157763553Y-85948631D01*
X157690566Y-85724003D01*
X157583342Y-85513566D01*
X157444517Y-85322490D01*
X157277510Y-85155483D01*
X157086433Y-85016657D01*
X156875996Y-84909433D01*
X156651368Y-84836446D01*
X156418097Y-84799500D01*
X156418092Y-84799500D01*
X156181908Y-84799500D01*
X156181903Y-84799500D01*
X155948631Y-84836446D01*
X155724003Y-84909433D01*
X155513566Y-85016657D01*
X155404550Y-85095862D01*
X155322490Y-85155483D01*
X155322488Y-85155485D01*
X155322487Y-85155485D01*
X155155485Y-85322487D01*
X155155485Y-85322488D01*
X155155483Y-85322490D01*
X155095862Y-85404550D01*
X155016657Y-85513566D01*
X154909433Y-85724003D01*
X154836446Y-85948631D01*
X154799500Y-86181902D01*
X151300500Y-86181902D01*
X151263553Y-85948631D01*
X151190566Y-85724003D01*
X151083342Y-85513566D01*
X150944517Y-85322490D01*
X150777510Y-85155483D01*
X150586433Y-85016657D01*
X150375996Y-84909433D01*
X150151368Y-84836446D01*
X149918097Y-84799500D01*
X149918092Y-84799500D01*
X149681908Y-84799500D01*
X149681903Y-84799500D01*
X149448631Y-84836446D01*
X149224003Y-84909433D01*
X149013566Y-85016657D01*
X148904550Y-85095862D01*
X148822490Y-85155483D01*
X148822488Y-85155485D01*
X148822487Y-85155485D01*
X148655485Y-85322487D01*
X148655485Y-85322488D01*
X148655483Y-85322490D01*
X148595862Y-85404550D01*
X148516657Y-85513566D01*
X148409433Y-85724003D01*
X148336446Y-85948631D01*
X148299500Y-86181902D01*
X140550500Y-86181902D01*
X140550500Y-62049983D01*
X143099500Y-62049983D01*
X143099500Y-63350001D01*
X143099501Y-63350018D01*
X143110000Y-63452796D01*
X143110001Y-63452799D01*
X143165185Y-63619331D01*
X143165187Y-63619336D01*
X143257289Y-63768657D01*
X143381344Y-63892712D01*
X143536120Y-63988178D01*
X143582845Y-64040126D01*
X143594068Y-64109088D01*
X143566224Y-64173171D01*
X143558706Y-64181398D01*
X143419889Y-64320215D01*
X143294951Y-64492179D01*
X143198444Y-64681585D01*
X143198443Y-64681587D01*
X143198443Y-64681588D01*
X143165598Y-64782672D01*
X143132753Y-64883760D01*
X143111611Y-65017246D01*
X143099500Y-65093713D01*
X143099500Y-65306287D01*
X143109534Y-65369644D01*
X143132753Y-65516239D01*
X143198444Y-65718414D01*
X143294951Y-65907820D01*
X143419890Y-66079786D01*
X143570213Y-66230109D01*
X143742179Y-66355048D01*
X143742181Y-66355049D01*
X143742184Y-66355051D01*
X143931588Y-66451557D01*
X144133757Y-66517246D01*
X144343713Y-66550500D01*
X144343714Y-66550500D01*
X144856286Y-66550500D01*
X144856287Y-66550500D01*
X145066243Y-66517246D01*
X145268412Y-66451557D01*
X145457816Y-66355051D01*
X145479789Y-66339086D01*
X145629786Y-66230109D01*
X145629788Y-66230106D01*
X145629792Y-66230104D01*
X145780104Y-66079792D01*
X145780106Y-66079788D01*
X145780109Y-66079786D01*
X145905048Y-65907820D01*
X145905047Y-65907820D01*
X145905051Y-65907816D01*
X146001557Y-65718412D01*
X146067246Y-65516243D01*
X146100500Y-65306287D01*
X146100500Y-65093713D01*
X146067246Y-64883757D01*
X146001557Y-64681588D01*
X145905051Y-64492184D01*
X145905049Y-64492181D01*
X145905048Y-64492179D01*
X145780109Y-64320213D01*
X145641294Y-64181398D01*
X145607809Y-64120075D01*
X145612793Y-64050383D01*
X145654665Y-63994450D01*
X145663879Y-63988178D01*
X145669331Y-63984814D01*
X145669334Y-63984814D01*
X145818656Y-63892712D01*
X145942712Y-63768656D01*
X146034814Y-63619334D01*
X146089999Y-63452797D01*
X146100500Y-63350009D01*
X146100499Y-62049992D01*
X146089999Y-61947203D01*
X146034814Y-61780666D01*
X145942712Y-61631344D01*
X145818656Y-61507288D01*
X145669334Y-61415186D01*
X145502797Y-61360001D01*
X145502795Y-61360000D01*
X145400010Y-61349500D01*
X143799998Y-61349500D01*
X143799981Y-61349501D01*
X143697203Y-61360000D01*
X143697200Y-61360001D01*
X143530668Y-61415185D01*
X143530663Y-61415187D01*
X143381342Y-61507289D01*
X143257289Y-61631342D01*
X143165187Y-61780663D01*
X143165185Y-61780668D01*
X143137349Y-61864670D01*
X143110001Y-61947203D01*
X143110001Y-61947204D01*
X143110000Y-61947204D01*
X143099500Y-62049983D01*
X140550500Y-62049983D01*
X140550500Y-60421153D01*
X175199500Y-60421153D01*
X175199500Y-60578846D01*
X175230261Y-60733489D01*
X175230264Y-60733501D01*
X175290602Y-60879172D01*
X175290609Y-60879185D01*
X175378210Y-61010288D01*
X175378213Y-61010292D01*
X175489707Y-61121786D01*
X175489711Y-61121789D01*
X175620814Y-61209390D01*
X175620827Y-61209397D01*
X175708230Y-61245599D01*
X175766503Y-61269737D01*
X175833580Y-61283079D01*
X175895488Y-61315461D01*
X175897068Y-61317014D01*
X176085325Y-61505272D01*
X176085326Y-61505273D01*
X176085329Y-61505275D01*
X176085331Y-61505277D01*
X176191873Y-61576465D01*
X176310256Y-61625501D01*
X176310260Y-61625501D01*
X176310261Y-61625502D01*
X176435928Y-61650500D01*
X176435931Y-61650500D01*
X176564069Y-61650500D01*
X178995065Y-61650500D01*
X179062104Y-61670185D01*
X179063909Y-61671366D01*
X179120821Y-61709394D01*
X179120823Y-61709395D01*
X179120827Y-61709397D01*
X179266498Y-61769735D01*
X179266503Y-61769737D01*
X179421153Y-61800499D01*
X179421156Y-61800500D01*
X179421158Y-61800500D01*
X179578844Y-61800500D01*
X179578845Y-61800499D01*
X179733497Y-61769737D01*
X179857403Y-61718414D01*
X179879172Y-61709397D01*
X179879172Y-61709396D01*
X179879179Y-61709394D01*
X180010289Y-61621789D01*
X180121789Y-61510289D01*
X180209394Y-61379179D01*
X180269737Y-61233497D01*
X180285048Y-61156520D01*
X180297542Y-61093713D01*
X182724500Y-61093713D01*
X182724500Y-61306287D01*
X182733007Y-61360000D01*
X182756810Y-61510288D01*
X182757754Y-61516243D01*
X182793254Y-61625501D01*
X182823444Y-61718414D01*
X182919951Y-61907820D01*
X183044890Y-62079786D01*
X183195209Y-62230105D01*
X183195214Y-62230109D01*
X183359793Y-62349682D01*
X183402459Y-62405011D01*
X183408438Y-62474625D01*
X183375833Y-62536420D01*
X183359793Y-62550318D01*
X183195214Y-62669890D01*
X183195209Y-62669894D01*
X183044890Y-62820213D01*
X182919951Y-62992179D01*
X182823444Y-63181585D01*
X182757753Y-63383760D01*
X182724500Y-63593713D01*
X182724500Y-63806287D01*
X182757754Y-64016243D01*
X182811416Y-64181398D01*
X182823444Y-64218414D01*
X182919951Y-64407820D01*
X183044890Y-64579786D01*
X183195209Y-64730105D01*
X183195214Y-64730109D01*
X183360218Y-64849991D01*
X183402884Y-64905320D01*
X183408863Y-64974934D01*
X183376258Y-65036729D01*
X183360218Y-65050627D01*
X183195540Y-65170272D01*
X183195535Y-65170276D01*
X183045276Y-65320535D01*
X183045272Y-65320540D01*
X182920379Y-65492442D01*
X182823904Y-65681782D01*
X182758242Y-65883870D01*
X182758242Y-65883873D01*
X182747769Y-65950000D01*
X183795854Y-65950000D01*
X183757370Y-66016657D01*
X183725000Y-66137465D01*
X183725000Y-66262535D01*
X183757370Y-66383343D01*
X183795854Y-66450000D01*
X182747769Y-66450000D01*
X182758242Y-66516126D01*
X182758242Y-66516129D01*
X182823904Y-66718217D01*
X182920379Y-66907557D01*
X183045272Y-67079459D01*
X183045276Y-67079464D01*
X183184143Y-67218331D01*
X183217628Y-67279654D01*
X183212644Y-67349346D01*
X183170772Y-67405279D01*
X183161559Y-67411551D01*
X183006342Y-67507289D01*
X182882289Y-67631342D01*
X182790187Y-67780663D01*
X182790186Y-67780666D01*
X182735001Y-67947203D01*
X182735001Y-67947204D01*
X182735000Y-67947204D01*
X182724500Y-68049983D01*
X182724500Y-69350001D01*
X182724501Y-69350018D01*
X182735000Y-69452796D01*
X182735001Y-69452799D01*
X182790185Y-69619331D01*
X182790189Y-69619340D01*
X182855586Y-69725366D01*
X182874026Y-69792758D01*
X182871664Y-69814653D01*
X182849500Y-69926077D01*
X182849500Y-69926082D01*
X182849500Y-70073918D01*
X182849500Y-70073920D01*
X182849499Y-70073920D01*
X182878340Y-70218907D01*
X182878343Y-70218917D01*
X182934912Y-70355488D01*
X182934919Y-70355501D01*
X183017048Y-70478415D01*
X183017051Y-70478419D01*
X183121580Y-70582948D01*
X183121584Y-70582951D01*
X183244498Y-70665080D01*
X183244511Y-70665087D01*
X183381082Y-70721656D01*
X183381087Y-70721658D01*
X183381091Y-70721658D01*
X183381092Y-70721659D01*
X183526079Y-70750500D01*
X183526082Y-70750500D01*
X183673920Y-70750500D01*
X183771462Y-70731096D01*
X183818913Y-70721658D01*
X183955495Y-70665084D01*
X183955496Y-70665083D01*
X183961122Y-70662753D01*
X183961479Y-70663614D01*
X184013840Y-70650500D01*
X184586160Y-70650500D01*
X184638520Y-70663614D01*
X184638878Y-70662753D01*
X184644504Y-70665083D01*
X184644505Y-70665084D01*
X184781087Y-70721658D01*
X184781091Y-70721658D01*
X184781092Y-70721659D01*
X184926079Y-70750500D01*
X184926082Y-70750500D01*
X185073920Y-70750500D01*
X185171462Y-70731096D01*
X185218913Y-70721658D01*
X185355495Y-70665084D01*
X185478416Y-70582951D01*
X185582951Y-70478416D01*
X185665084Y-70355495D01*
X185721658Y-70218913D01*
X185750500Y-70073918D01*
X185750500Y-69926082D01*
X185750500Y-69926079D01*
X185721659Y-69781092D01*
X185721658Y-69781091D01*
X185721658Y-69781087D01*
X185698578Y-69725366D01*
X185665087Y-69644511D01*
X185665081Y-69644500D01*
X185656225Y-69631247D01*
X185635345Y-69564571D01*
X185641617Y-69523356D01*
X185664999Y-69452797D01*
X185675500Y-69350009D01*
X185675499Y-68049992D01*
X185664999Y-67947203D01*
X185609814Y-67780666D01*
X185517712Y-67631344D01*
X185393656Y-67507288D01*
X185244334Y-67415186D01*
X185244332Y-67415185D01*
X185238440Y-67411551D01*
X185191716Y-67359603D01*
X185180493Y-67290641D01*
X185208337Y-67226558D01*
X185215856Y-67218330D01*
X185354728Y-67079458D01*
X185479620Y-66907557D01*
X185576095Y-66718217D01*
X185641757Y-66516129D01*
X185641757Y-66516126D01*
X185652231Y-66450000D01*
X184604146Y-66450000D01*
X184642630Y-66383343D01*
X184675000Y-66262535D01*
X184675000Y-66137465D01*
X184642630Y-66016657D01*
X184604146Y-65950000D01*
X185652231Y-65950000D01*
X185641757Y-65883873D01*
X185641757Y-65883870D01*
X185576095Y-65681782D01*
X185479620Y-65492442D01*
X185354727Y-65320540D01*
X185354723Y-65320535D01*
X185204464Y-65170276D01*
X185204459Y-65170272D01*
X185039781Y-65050627D01*
X184997115Y-64995297D01*
X184991136Y-64925684D01*
X185023741Y-64863889D01*
X185039776Y-64849994D01*
X185204792Y-64730104D01*
X185355104Y-64579792D01*
X185355106Y-64579788D01*
X185355109Y-64579786D01*
X185480048Y-64407820D01*
X185480047Y-64407820D01*
X185480051Y-64407816D01*
X185576557Y-64218412D01*
X185642246Y-64016243D01*
X185675500Y-63806287D01*
X185675500Y-63593713D01*
X185642246Y-63383757D01*
X185576557Y-63181588D01*
X185480051Y-62992184D01*
X185480049Y-62992181D01*
X185480048Y-62992179D01*
X185355109Y-62820213D01*
X185204792Y-62669896D01*
X185204784Y-62669890D01*
X185040204Y-62550316D01*
X184997540Y-62494989D01*
X184991561Y-62425376D01*
X185024166Y-62363580D01*
X185040199Y-62349686D01*
X185204792Y-62230104D01*
X185355104Y-62079792D01*
X185355106Y-62079788D01*
X185355109Y-62079786D01*
X185480048Y-61907820D01*
X185480047Y-61907820D01*
X185480051Y-61907816D01*
X185576557Y-61718412D01*
X185642246Y-61516243D01*
X185675500Y-61306287D01*
X185675500Y-61093713D01*
X185642246Y-60883757D01*
X185576557Y-60681588D01*
X185480051Y-60492184D01*
X185480049Y-60492181D01*
X185480048Y-60492179D01*
X185355109Y-60320213D01*
X185204786Y-60169890D01*
X185032820Y-60044951D01*
X184843414Y-59948444D01*
X184843413Y-59948443D01*
X184843412Y-59948443D01*
X184641243Y-59882754D01*
X184641241Y-59882753D01*
X184641240Y-59882753D01*
X184479957Y-59857208D01*
X184431287Y-59849500D01*
X183968713Y-59849500D01*
X183920042Y-59857208D01*
X183758760Y-59882753D01*
X183556585Y-59948444D01*
X183367179Y-60044951D01*
X183195213Y-60169890D01*
X183044890Y-60320213D01*
X182919951Y-60492179D01*
X182823444Y-60681585D01*
X182757753Y-60883760D01*
X182726855Y-61078842D01*
X182724500Y-61093713D01*
X180297542Y-61093713D01*
X180300500Y-61078845D01*
X180300500Y-60921155D01*
X180300499Y-60921153D01*
X180269738Y-60766510D01*
X180269737Y-60766503D01*
X180256062Y-60733489D01*
X180209397Y-60620827D01*
X180209390Y-60620814D01*
X180121789Y-60489711D01*
X180121786Y-60489707D01*
X180010292Y-60378213D01*
X180010288Y-60378210D01*
X179879185Y-60290609D01*
X179879172Y-60290602D01*
X179733501Y-60230264D01*
X179733489Y-60230261D01*
X179578845Y-60199500D01*
X179578842Y-60199500D01*
X179421158Y-60199500D01*
X179421155Y-60199500D01*
X179266510Y-60230261D01*
X179266498Y-60230264D01*
X179120827Y-60290602D01*
X179120820Y-60290606D01*
X179091928Y-60309911D01*
X179063955Y-60328602D01*
X178997279Y-60349480D01*
X178995065Y-60349500D01*
X176886878Y-60349500D01*
X176819839Y-60329815D01*
X176774084Y-60277011D01*
X176772215Y-60272069D01*
X176772068Y-60272131D01*
X176709397Y-60120827D01*
X176709390Y-60120814D01*
X176621789Y-59989711D01*
X176621786Y-59989707D01*
X176510292Y-59878213D01*
X176510288Y-59878210D01*
X176379185Y-59790609D01*
X176379172Y-59790602D01*
X176233501Y-59730264D01*
X176233489Y-59730261D01*
X176078845Y-59699500D01*
X176078842Y-59699500D01*
X175921158Y-59699500D01*
X175921155Y-59699500D01*
X175766510Y-59730261D01*
X175766498Y-59730264D01*
X175620827Y-59790602D01*
X175620814Y-59790609D01*
X175489711Y-59878210D01*
X175489707Y-59878213D01*
X175378213Y-59989707D01*
X175378210Y-59989711D01*
X175290609Y-60120814D01*
X175290602Y-60120827D01*
X175230264Y-60266498D01*
X175230261Y-60266510D01*
X175199500Y-60421153D01*
X140550500Y-60421153D01*
X140550500Y-59273920D01*
X156878154Y-59273920D01*
X156906995Y-59418907D01*
X156906998Y-59418917D01*
X156963567Y-59555488D01*
X156963574Y-59555501D01*
X157045703Y-59678415D01*
X157045706Y-59678419D01*
X157150235Y-59782948D01*
X157150239Y-59782951D01*
X157273153Y-59865080D01*
X157273166Y-59865087D01*
X157409737Y-59921656D01*
X157409742Y-59921658D01*
X157409746Y-59921658D01*
X157409747Y-59921659D01*
X157554734Y-59950500D01*
X157554737Y-59950500D01*
X157702575Y-59950500D01*
X157800117Y-59931096D01*
X157847568Y-59921658D01*
X157984150Y-59865084D01*
X157984151Y-59865083D01*
X157989777Y-59862753D01*
X157990134Y-59863614D01*
X158042495Y-59850500D01*
X159586160Y-59850500D01*
X159638520Y-59863614D01*
X159638878Y-59862753D01*
X159644504Y-59865083D01*
X159644505Y-59865084D01*
X159781087Y-59921658D01*
X159781091Y-59921658D01*
X159781092Y-59921659D01*
X159926079Y-59950500D01*
X159926082Y-59950500D01*
X160073920Y-59950500D01*
X160171462Y-59931096D01*
X160218913Y-59921658D01*
X160355495Y-59865084D01*
X160478416Y-59782951D01*
X160582951Y-59678416D01*
X160665084Y-59555495D01*
X160721658Y-59418913D01*
X160750500Y-59273918D01*
X160750500Y-59126082D01*
X160750500Y-59126079D01*
X160721659Y-58981092D01*
X160721658Y-58981091D01*
X160721658Y-58981087D01*
X160721656Y-58981082D01*
X160665087Y-58844511D01*
X160665080Y-58844498D01*
X160582951Y-58721584D01*
X160582948Y-58721580D01*
X160478419Y-58617051D01*
X160478415Y-58617048D01*
X160355501Y-58534919D01*
X160355488Y-58534912D01*
X160218917Y-58478343D01*
X160218907Y-58478340D01*
X160073920Y-58449500D01*
X160073918Y-58449500D01*
X159926082Y-58449500D01*
X159926080Y-58449500D01*
X159781092Y-58478340D01*
X159781086Y-58478342D01*
X159638878Y-58537247D01*
X159638520Y-58536385D01*
X159586160Y-58549500D01*
X158042495Y-58549500D01*
X157990134Y-58536385D01*
X157989777Y-58537247D01*
X157984150Y-58534916D01*
X157847568Y-58478342D01*
X157847562Y-58478340D01*
X157702575Y-58449500D01*
X157702573Y-58449500D01*
X157554737Y-58449500D01*
X157554735Y-58449500D01*
X157409747Y-58478340D01*
X157409737Y-58478343D01*
X157273166Y-58534912D01*
X157273153Y-58534919D01*
X157150239Y-58617048D01*
X157150235Y-58617051D01*
X157045706Y-58721580D01*
X157045703Y-58721584D01*
X156963574Y-58844498D01*
X156963567Y-58844511D01*
X156906998Y-58981082D01*
X156906995Y-58981092D01*
X156878155Y-59126079D01*
X156878155Y-59126082D01*
X156878155Y-59273918D01*
X156878155Y-59273920D01*
X156878154Y-59273920D01*
X140550500Y-59273920D01*
X140550500Y-54493713D01*
X177249500Y-54493713D01*
X177249500Y-54706286D01*
X177282753Y-54916239D01*
X177348444Y-55118414D01*
X177444951Y-55307820D01*
X177569890Y-55479786D01*
X177720213Y-55630109D01*
X177892179Y-55755048D01*
X177892181Y-55755049D01*
X177892184Y-55755051D01*
X178081588Y-55851557D01*
X178283757Y-55917246D01*
X178493713Y-55950500D01*
X178493714Y-55950500D01*
X178706286Y-55950500D01*
X178706287Y-55950500D01*
X178916243Y-55917246D01*
X179118412Y-55851557D01*
X179307816Y-55755051D01*
X179394138Y-55692335D01*
X179479786Y-55630109D01*
X179479788Y-55630106D01*
X179479792Y-55630104D01*
X179630104Y-55479792D01*
X179630106Y-55479788D01*
X179630109Y-55479786D01*
X179755048Y-55307820D01*
X179755047Y-55307820D01*
X179755051Y-55307816D01*
X179759514Y-55299054D01*
X179807488Y-55248259D01*
X179875308Y-55231463D01*
X179941444Y-55253999D01*
X179980486Y-55299056D01*
X179984951Y-55307820D01*
X180109890Y-55479786D01*
X180260213Y-55630109D01*
X180432179Y-55755048D01*
X180432181Y-55755049D01*
X180432184Y-55755051D01*
X180621588Y-55851557D01*
X180823757Y-55917246D01*
X181033713Y-55950500D01*
X181033714Y-55950500D01*
X181246286Y-55950500D01*
X181246287Y-55950500D01*
X181456243Y-55917246D01*
X181658412Y-55851557D01*
X181847816Y-55755051D01*
X181934138Y-55692335D01*
X182019786Y-55630109D01*
X182019788Y-55630106D01*
X182019792Y-55630104D01*
X182170104Y-55479792D01*
X182170106Y-55479788D01*
X182170109Y-55479786D01*
X182237515Y-55387007D01*
X182295051Y-55307816D01*
X182299793Y-55298508D01*
X182347763Y-55247711D01*
X182415583Y-55230911D01*
X182481719Y-55253445D01*
X182520763Y-55298500D01*
X182525373Y-55307547D01*
X182564728Y-55361716D01*
X183197037Y-54729408D01*
X183214075Y-54792993D01*
X183279901Y-54907007D01*
X183372993Y-55000099D01*
X183487007Y-55065925D01*
X183550590Y-55082962D01*
X182918282Y-55715269D01*
X182918282Y-55715270D01*
X182972449Y-55754624D01*
X183161782Y-55851095D01*
X183363870Y-55916757D01*
X183573754Y-55950000D01*
X183786246Y-55950000D01*
X183996127Y-55916757D01*
X183996130Y-55916757D01*
X184198217Y-55851095D01*
X184387554Y-55754622D01*
X184441716Y-55715270D01*
X184441717Y-55715270D01*
X183809408Y-55082962D01*
X183872993Y-55065925D01*
X183987007Y-55000099D01*
X184080099Y-54907007D01*
X184145925Y-54792993D01*
X184162962Y-54729409D01*
X184833181Y-55399628D01*
X184866666Y-55460951D01*
X184869500Y-55487300D01*
X184869500Y-55497865D01*
X184869501Y-55497876D01*
X184875908Y-55557483D01*
X184926202Y-55692328D01*
X184926206Y-55692335D01*
X185012452Y-55807544D01*
X185012455Y-55807547D01*
X185127664Y-55893793D01*
X185127671Y-55893797D01*
X185262517Y-55944091D01*
X185262516Y-55944091D01*
X185269444Y-55944835D01*
X185322127Y-55950500D01*
X187117872Y-55950499D01*
X187177483Y-55944091D01*
X187312331Y-55893796D01*
X187427546Y-55807546D01*
X187513796Y-55692331D01*
X187564091Y-55557483D01*
X187570500Y-55497873D01*
X187570499Y-53702128D01*
X187564091Y-53642517D01*
X187513796Y-53507669D01*
X187513795Y-53507668D01*
X187513793Y-53507664D01*
X187427547Y-53392455D01*
X187427544Y-53392452D01*
X187312335Y-53306206D01*
X187312328Y-53306202D01*
X187177482Y-53255908D01*
X187177483Y-53255908D01*
X187117883Y-53249501D01*
X187117881Y-53249500D01*
X187117873Y-53249500D01*
X187117864Y-53249500D01*
X185322129Y-53249500D01*
X185322123Y-53249501D01*
X185262516Y-53255908D01*
X185127671Y-53306202D01*
X185127664Y-53306206D01*
X185012455Y-53392452D01*
X185012452Y-53392455D01*
X184926206Y-53507664D01*
X184926202Y-53507671D01*
X184875908Y-53642517D01*
X184869501Y-53702116D01*
X184869501Y-53702123D01*
X184869500Y-53702135D01*
X184869500Y-53712690D01*
X184849815Y-53779729D01*
X184833181Y-53800371D01*
X184162962Y-54470590D01*
X184145925Y-54407007D01*
X184080099Y-54292993D01*
X183987007Y-54199901D01*
X183872993Y-54134075D01*
X183809409Y-54117037D01*
X184441716Y-53484728D01*
X184387550Y-53445375D01*
X184198217Y-53348904D01*
X183996129Y-53283242D01*
X183786246Y-53250000D01*
X183573754Y-53250000D01*
X183363872Y-53283242D01*
X183363869Y-53283242D01*
X183161782Y-53348904D01*
X182972439Y-53445380D01*
X182918282Y-53484727D01*
X182918282Y-53484728D01*
X183550591Y-54117037D01*
X183487007Y-54134075D01*
X183372993Y-54199901D01*
X183279901Y-54292993D01*
X183214075Y-54407007D01*
X183197037Y-54470591D01*
X182564728Y-53838282D01*
X182564727Y-53838282D01*
X182525380Y-53892440D01*
X182525376Y-53892446D01*
X182520760Y-53901505D01*
X182472781Y-53952297D01*
X182404959Y-53969087D01*
X182338826Y-53946543D01*
X182299794Y-53901493D01*
X182295051Y-53892184D01*
X182295049Y-53892181D01*
X182295048Y-53892179D01*
X182170109Y-53720213D01*
X182019786Y-53569890D01*
X181847820Y-53444951D01*
X181658414Y-53348444D01*
X181658413Y-53348443D01*
X181658412Y-53348443D01*
X181456243Y-53282754D01*
X181456241Y-53282753D01*
X181456240Y-53282753D01*
X181294957Y-53257208D01*
X181246287Y-53249500D01*
X181033713Y-53249500D01*
X180985042Y-53257208D01*
X180823760Y-53282753D01*
X180621585Y-53348444D01*
X180432179Y-53444951D01*
X180260213Y-53569890D01*
X180109890Y-53720213D01*
X179984949Y-53892182D01*
X179980484Y-53900946D01*
X179932509Y-53951742D01*
X179864688Y-53968536D01*
X179798553Y-53945998D01*
X179759516Y-53900946D01*
X179755050Y-53892182D01*
X179630109Y-53720213D01*
X179479786Y-53569890D01*
X179307820Y-53444951D01*
X179118414Y-53348444D01*
X179118413Y-53348443D01*
X179118412Y-53348443D01*
X178916243Y-53282754D01*
X178916241Y-53282753D01*
X178916240Y-53282753D01*
X178754957Y-53257208D01*
X178706287Y-53249500D01*
X178493713Y-53249500D01*
X178445042Y-53257208D01*
X178283760Y-53282753D01*
X178081585Y-53348444D01*
X177892179Y-53444951D01*
X177720213Y-53569890D01*
X177569890Y-53720213D01*
X177444951Y-53892179D01*
X177348444Y-54081585D01*
X177282753Y-54283760D01*
X177249500Y-54493713D01*
X140550500Y-54493713D01*
X140550500Y-48731386D01*
X148999500Y-48731386D01*
X148999500Y-50668613D01*
X148999501Y-50668652D01*
X149002295Y-50721243D01*
X149002295Y-50721244D01*
X149046754Y-50951121D01*
X149046755Y-50951126D01*
X149095326Y-51079832D01*
X149129425Y-51170189D01*
X149247929Y-51372131D01*
X149247934Y-51372138D01*
X149398856Y-51551141D01*
X149398858Y-51551143D01*
X149577861Y-51702065D01*
X149577868Y-51702070D01*
X149779810Y-51820574D01*
X149998874Y-51903245D01*
X150228759Y-51947705D01*
X150281378Y-51950500D01*
X150281386Y-51950500D01*
X152218614Y-51950500D01*
X152218622Y-51950500D01*
X152271241Y-51947705D01*
X152501126Y-51903245D01*
X152720190Y-51820574D01*
X152922132Y-51702070D01*
X153101142Y-51551142D01*
X153252070Y-51372132D01*
X153370574Y-51170190D01*
X153453245Y-50951126D01*
X153497705Y-50721241D01*
X153500500Y-50668622D01*
X153500500Y-48731378D01*
X153497705Y-48678759D01*
X153453245Y-48448874D01*
X153370574Y-48229810D01*
X153252070Y-48027868D01*
X153252068Y-48027866D01*
X153252065Y-48027861D01*
X153101143Y-47848858D01*
X153101141Y-47848856D01*
X152922138Y-47697934D01*
X152922131Y-47697929D01*
X152720189Y-47579425D01*
X152622513Y-47542564D01*
X152501126Y-47496755D01*
X152501121Y-47496754D01*
X152501116Y-47496752D01*
X152498470Y-47496240D01*
X152497451Y-47495713D01*
X152496050Y-47495317D01*
X152496130Y-47495031D01*
X152436392Y-47464177D01*
X152401503Y-47403641D01*
X152404881Y-47333853D01*
X152445452Y-47276970D01*
X152510337Y-47251052D01*
X152522009Y-47250499D01*
X156047872Y-47250499D01*
X156107483Y-47244091D01*
X156242331Y-47193796D01*
X156357546Y-47107546D01*
X156443796Y-46992331D01*
X156494091Y-46857483D01*
X156500500Y-46797873D01*
X156500500Y-46193713D01*
X182524500Y-46193713D01*
X182524500Y-46406287D01*
X182557754Y-46616243D01*
X182618865Y-46804323D01*
X182623444Y-46818414D01*
X182719951Y-47007820D01*
X182844890Y-47179786D01*
X182983705Y-47318601D01*
X183017190Y-47379924D01*
X183012206Y-47449616D01*
X182970334Y-47505549D01*
X182961121Y-47511821D01*
X182806342Y-47607289D01*
X182682289Y-47731342D01*
X182590187Y-47880663D01*
X182590186Y-47880666D01*
X182535001Y-48047203D01*
X182535001Y-48047204D01*
X182535000Y-48047204D01*
X182524500Y-48149983D01*
X182524500Y-49450001D01*
X182524501Y-49450018D01*
X182535000Y-49552796D01*
X182535001Y-49552799D01*
X182590185Y-49719331D01*
X182590186Y-49719334D01*
X182682288Y-49868656D01*
X182806344Y-49992712D01*
X182955666Y-50084814D01*
X183122203Y-50139999D01*
X183224991Y-50150500D01*
X184775008Y-50150499D01*
X184877797Y-50139999D01*
X185044334Y-50084814D01*
X185193656Y-49992712D01*
X185317712Y-49868656D01*
X185409814Y-49719334D01*
X185464999Y-49552797D01*
X185475500Y-49450009D01*
X185475499Y-48149992D01*
X185464999Y-48047203D01*
X185409814Y-47880666D01*
X185317712Y-47731344D01*
X185193656Y-47607288D01*
X185044334Y-47515186D01*
X185044333Y-47515185D01*
X185038878Y-47511821D01*
X184992154Y-47459873D01*
X184980931Y-47390910D01*
X185008775Y-47326828D01*
X185016272Y-47318623D01*
X185155104Y-47179792D01*
X185280051Y-47007816D01*
X185376557Y-46818412D01*
X185442246Y-46616243D01*
X185475500Y-46406287D01*
X185475500Y-46193713D01*
X185442246Y-45983757D01*
X185376557Y-45781588D01*
X185280051Y-45592184D01*
X185280049Y-45592181D01*
X185280048Y-45592179D01*
X185155109Y-45420213D01*
X185004790Y-45269894D01*
X185004785Y-45269890D01*
X184839781Y-45150008D01*
X184797115Y-45094678D01*
X184791136Y-45025065D01*
X184823741Y-44963270D01*
X184839781Y-44949371D01*
X185004466Y-44829721D01*
X185154723Y-44679464D01*
X185154727Y-44679459D01*
X185279620Y-44507557D01*
X185376095Y-44318217D01*
X185441757Y-44116129D01*
X185441757Y-44116126D01*
X185452231Y-44050000D01*
X184404146Y-44050000D01*
X184442630Y-43983343D01*
X184475000Y-43862535D01*
X184475000Y-43737465D01*
X184442630Y-43616657D01*
X184404146Y-43550000D01*
X185452231Y-43550000D01*
X185441757Y-43483873D01*
X185441757Y-43483870D01*
X185376095Y-43281782D01*
X185279620Y-43092442D01*
X185154727Y-42920540D01*
X185154723Y-42920535D01*
X185004464Y-42770276D01*
X185004459Y-42770272D01*
X184832557Y-42645379D01*
X184643217Y-42548904D01*
X184441128Y-42483242D01*
X184250000Y-42452969D01*
X184250000Y-43395854D01*
X184183343Y-43357370D01*
X184062535Y-43325000D01*
X183937465Y-43325000D01*
X183816657Y-43357370D01*
X183750000Y-43395854D01*
X183750000Y-42452969D01*
X183558872Y-42483242D01*
X183558869Y-42483242D01*
X183356782Y-42548904D01*
X183167442Y-42645379D01*
X182995540Y-42770272D01*
X182995535Y-42770276D01*
X182845276Y-42920535D01*
X182845272Y-42920540D01*
X182720379Y-43092442D01*
X182623904Y-43281782D01*
X182558242Y-43483870D01*
X182558242Y-43483873D01*
X182547769Y-43550000D01*
X183595854Y-43550000D01*
X183557370Y-43616657D01*
X183525000Y-43737465D01*
X183525000Y-43862535D01*
X183557370Y-43983343D01*
X183595854Y-44050000D01*
X182547769Y-44050000D01*
X182558242Y-44116126D01*
X182558242Y-44116129D01*
X182623904Y-44318217D01*
X182720379Y-44507557D01*
X182845272Y-44679459D01*
X182845276Y-44679464D01*
X182995535Y-44829723D01*
X182995540Y-44829727D01*
X183160218Y-44949372D01*
X183202884Y-45004701D01*
X183208863Y-45074315D01*
X183176258Y-45136110D01*
X183160218Y-45150008D01*
X182995214Y-45269890D01*
X182995209Y-45269894D01*
X182844890Y-45420213D01*
X182719951Y-45592179D01*
X182623444Y-45781585D01*
X182557753Y-45983760D01*
X182545013Y-46064197D01*
X182524500Y-46193713D01*
X156500500Y-46193713D01*
X156500499Y-44982754D01*
X156500499Y-43587064D01*
X156500499Y-43202129D01*
X156500498Y-43202123D01*
X156500497Y-43202116D01*
X156494091Y-43142517D01*
X156475414Y-43092442D01*
X156443797Y-43007671D01*
X156443793Y-43007664D01*
X156357547Y-42892455D01*
X156357544Y-42892452D01*
X156242335Y-42806206D01*
X156242328Y-42806202D01*
X156107482Y-42755908D01*
X156107483Y-42755908D01*
X156047883Y-42749501D01*
X156047881Y-42749500D01*
X156047873Y-42749500D01*
X156047864Y-42749500D01*
X152452129Y-42749500D01*
X152452123Y-42749501D01*
X152392516Y-42755908D01*
X152257671Y-42806202D01*
X152257664Y-42806206D01*
X152142455Y-42892452D01*
X152142452Y-42892455D01*
X152056206Y-43007664D01*
X152056202Y-43007671D01*
X152005908Y-43142517D01*
X151999501Y-43202116D01*
X151999501Y-43202123D01*
X151999500Y-43202135D01*
X151999500Y-46797870D01*
X151999501Y-46797876D01*
X152005908Y-46857483D01*
X152056202Y-46992328D01*
X152056206Y-46992335D01*
X152142452Y-47107544D01*
X152142455Y-47107547D01*
X152257664Y-47193793D01*
X152257673Y-47193798D01*
X152304937Y-47211426D01*
X152360871Y-47253296D01*
X152385289Y-47318760D01*
X152370438Y-47387033D01*
X152321033Y-47436439D01*
X152255028Y-47451433D01*
X152218657Y-47449501D01*
X152218628Y-47449500D01*
X152218622Y-47449500D01*
X150281378Y-47449500D01*
X150281370Y-47449500D01*
X150281347Y-47449501D01*
X150228756Y-47452295D01*
X150228755Y-47452295D01*
X149998878Y-47496754D01*
X149998876Y-47496754D01*
X149998874Y-47496755D01*
X149958952Y-47511821D01*
X149779810Y-47579425D01*
X149577868Y-47697929D01*
X149577861Y-47697934D01*
X149398858Y-47848856D01*
X149398856Y-47848858D01*
X149247934Y-48027861D01*
X149247931Y-48027867D01*
X149129425Y-48229810D01*
X149074659Y-48374933D01*
X149046755Y-48448874D01*
X149046754Y-48448876D01*
X149046754Y-48448878D01*
X149002295Y-48678755D01*
X149002295Y-48678756D01*
X148999501Y-48731347D01*
X148999500Y-48731386D01*
X140550500Y-48731386D01*
X140550500Y-43935803D01*
X146250000Y-43935803D01*
X146250000Y-44750000D01*
X147750000Y-44750000D01*
X147750000Y-45250000D01*
X146250001Y-45250000D01*
X146250001Y-46064197D01*
X146260400Y-46196332D01*
X146315377Y-46414519D01*
X146408428Y-46619374D01*
X146408431Y-46619380D01*
X146536559Y-46804323D01*
X146536569Y-46804335D01*
X146695664Y-46963430D01*
X146695676Y-46963440D01*
X146880619Y-47091568D01*
X146880625Y-47091571D01*
X147085480Y-47184622D01*
X147303667Y-47239599D01*
X147435810Y-47249999D01*
X147999999Y-47249999D01*
X148000000Y-47249998D01*
X148000000Y-46433012D01*
X148057007Y-46465925D01*
X148184174Y-46500000D01*
X148315826Y-46500000D01*
X148442993Y-46465925D01*
X148500000Y-46433012D01*
X148500000Y-47249999D01*
X149064182Y-47249999D01*
X149064197Y-47249998D01*
X149196332Y-47239599D01*
X149414519Y-47184622D01*
X149619374Y-47091571D01*
X149619380Y-47091568D01*
X149804323Y-46963440D01*
X149804335Y-46963430D01*
X149963430Y-46804335D01*
X149963440Y-46804323D01*
X150091568Y-46619380D01*
X150091571Y-46619374D01*
X150184622Y-46414519D01*
X150239599Y-46196332D01*
X150249999Y-46064196D01*
X150250000Y-46064184D01*
X150250000Y-45250000D01*
X148750000Y-45250000D01*
X148750000Y-44750000D01*
X150249999Y-44750000D01*
X150249999Y-43935817D01*
X150249998Y-43935802D01*
X150239599Y-43803667D01*
X150184622Y-43585480D01*
X150091571Y-43380625D01*
X150091568Y-43380619D01*
X149963440Y-43195676D01*
X149963430Y-43195664D01*
X149804335Y-43036569D01*
X149804323Y-43036559D01*
X149619380Y-42908431D01*
X149619374Y-42908428D01*
X149414519Y-42815377D01*
X149196332Y-42760400D01*
X149064196Y-42750000D01*
X148500000Y-42750000D01*
X148500000Y-43566988D01*
X148442993Y-43534075D01*
X148315826Y-43500000D01*
X148184174Y-43500000D01*
X148057007Y-43534075D01*
X148000000Y-43566988D01*
X148000000Y-42750000D01*
X147435817Y-42750000D01*
X147435802Y-42750001D01*
X147303667Y-42760400D01*
X147085480Y-42815377D01*
X146880625Y-42908428D01*
X146880619Y-42908431D01*
X146695676Y-43036559D01*
X146695664Y-43036569D01*
X146536569Y-43195664D01*
X146536559Y-43195676D01*
X146408431Y-43380619D01*
X146408428Y-43380625D01*
X146315377Y-43585480D01*
X146260400Y-43803667D01*
X146250000Y-43935803D01*
X140550500Y-43935803D01*
X140550500Y-37393713D01*
X142149500Y-37393713D01*
X142149500Y-37606286D01*
X142182753Y-37816239D01*
X142248444Y-38018414D01*
X142344951Y-38207820D01*
X142469890Y-38379786D01*
X142620213Y-38530109D01*
X142792179Y-38655048D01*
X142792181Y-38655049D01*
X142792184Y-38655051D01*
X142981588Y-38751557D01*
X143183757Y-38817246D01*
X143393713Y-38850500D01*
X143393714Y-38850500D01*
X143606286Y-38850500D01*
X143606287Y-38850500D01*
X143816243Y-38817246D01*
X144018412Y-38751557D01*
X144207816Y-38655051D01*
X144229789Y-38639086D01*
X144379786Y-38530109D01*
X144379788Y-38530106D01*
X144379792Y-38530104D01*
X144530104Y-38379792D01*
X144530106Y-38379788D01*
X144530109Y-38379786D01*
X144655048Y-38207820D01*
X144655047Y-38207820D01*
X144655051Y-38207816D01*
X144751557Y-38018412D01*
X144817246Y-37816243D01*
X144850500Y-37606287D01*
X144850500Y-37393713D01*
X185149500Y-37393713D01*
X185149500Y-37606286D01*
X185182753Y-37816239D01*
X185248444Y-38018414D01*
X185344951Y-38207820D01*
X185469890Y-38379786D01*
X185620213Y-38530109D01*
X185792179Y-38655048D01*
X185792181Y-38655049D01*
X185792184Y-38655051D01*
X185981588Y-38751557D01*
X186183757Y-38817246D01*
X186393713Y-38850500D01*
X186393714Y-38850500D01*
X186606286Y-38850500D01*
X186606287Y-38850500D01*
X186816243Y-38817246D01*
X187018412Y-38751557D01*
X187207816Y-38655051D01*
X187229789Y-38639086D01*
X187379786Y-38530109D01*
X187379788Y-38530106D01*
X187379792Y-38530104D01*
X187530104Y-38379792D01*
X187530106Y-38379788D01*
X187530109Y-38379786D01*
X187655048Y-38207820D01*
X187655047Y-38207820D01*
X187655051Y-38207816D01*
X187751557Y-38018412D01*
X187817246Y-37816243D01*
X187850500Y-37606287D01*
X187850500Y-37393713D01*
X187817246Y-37183757D01*
X187751557Y-36981588D01*
X187655051Y-36792184D01*
X187655049Y-36792181D01*
X187655048Y-36792179D01*
X187530109Y-36620213D01*
X187379786Y-36469890D01*
X187207820Y-36344951D01*
X187018414Y-36248444D01*
X187018413Y-36248443D01*
X187018412Y-36248443D01*
X186816243Y-36182754D01*
X186816241Y-36182753D01*
X186816240Y-36182753D01*
X186654957Y-36157208D01*
X186606287Y-36149500D01*
X186393713Y-36149500D01*
X186345042Y-36157208D01*
X186183760Y-36182753D01*
X185981585Y-36248444D01*
X185792179Y-36344951D01*
X185620213Y-36469890D01*
X185469890Y-36620213D01*
X185344951Y-36792179D01*
X185248444Y-36981585D01*
X185182753Y-37183760D01*
X185149500Y-37393713D01*
X144850500Y-37393713D01*
X144817246Y-37183757D01*
X144751557Y-36981588D01*
X144655051Y-36792184D01*
X144655049Y-36792181D01*
X144655048Y-36792179D01*
X144530109Y-36620213D01*
X144379786Y-36469890D01*
X144207820Y-36344951D01*
X144018414Y-36248444D01*
X144018413Y-36248443D01*
X144018412Y-36248443D01*
X143816243Y-36182754D01*
X143816241Y-36182753D01*
X143816240Y-36182753D01*
X143654957Y-36157208D01*
X143606287Y-36149500D01*
X143393713Y-36149500D01*
X143345042Y-36157208D01*
X143183760Y-36182753D01*
X142981585Y-36248444D01*
X142792179Y-36344951D01*
X142620213Y-36469890D01*
X142469890Y-36620213D01*
X142344951Y-36792179D01*
X142248444Y-36981585D01*
X142182753Y-37183760D01*
X142149500Y-37393713D01*
X140550500Y-37393713D01*
X140550500Y-34624500D01*
X140570185Y-34557461D01*
X140622989Y-34511706D01*
X140674500Y-34500500D01*
X189375500Y-34500500D01*
X189442539Y-34520185D01*
G37*
%TD.AperFunction*%
%TD*%
M02*
