M48
; DRILL file KiCad 10.0.0 date 2026-05-17T15:21:08
; FORMAT={-:-/ absolute / metric / decimal}
; #@! TF.CreationDate,2026-05-17T15:21:08+02:00
; #@! TF.GenerationSoftware,Kicad,Pcbnew,10.0.0
; #@! TF.FileFunction,MixedPlating,1,2
FMAT,2
METRIC
; #@! TA.AperFunction,Plated,PTH,ViaDrill
T1C0.300
; #@! TA.AperFunction,Plated,PTH,ComponentDrill
T2C0.950
; #@! TA.AperFunction,Plated,PTH,ComponentDrill
T3C1.000
; #@! TA.AperFunction,Plated,PTH,ComponentDrill
T4C1.100
; #@! TA.AperFunction,NonPlated,NPTH,ComponentDrill
T5C2.200
%
G90
G05
T1
X141.09Y-65.12
X141.09Y-66.26
X141.09Y-67.33
X141.2Y-68.4
X141.58Y-47.61
X141.58Y-48.9
X141.66Y-41.28
X141.66Y-42.51
X141.66Y-43.7
X141.66Y-44.84
X141.66Y-45.91
X141.7Y-64.4
X142.41Y-65.05
X142.41Y-66.19
X142.41Y-67.26
X142.43Y-68.4
X142.81Y-47.61
X142.81Y-48.9
X143.03Y-84.61
X143.03Y-85.84
X143.03Y-87.03
X143.03Y-88.17
X143.03Y-89.24
X143.07Y-41.29
X143.07Y-42.52
X143.07Y-43.71
X143.07Y-44.85
X143.07Y-45.92
X143.62Y-68.4
X143.8Y-67.3
X144.0Y-47.61
X144.0Y-48.9
X144.57Y-41.37
X144.57Y-42.6
X144.57Y-43.79
X144.57Y-44.93
X144.57Y-46.0
X144.76Y-68.4
X144.96Y-72.09
X144.96Y-73.32
X144.96Y-74.51
X144.96Y-75.65
X144.96Y-76.72
X145.0Y-78.32
X145.0Y-79.55
X145.0Y-80.74
X145.0Y-81.88
X145.0Y-82.95
X145.03Y-67.3
X145.07Y-84.59
X145.07Y-85.82
X145.07Y-87.01
X145.07Y-88.15
X145.07Y-89.22
X145.14Y-47.61
X145.14Y-48.9
X145.83Y-68.4
X145.84Y-56.47
X146.21Y-47.61
X146.21Y-48.9
X146.22Y-67.3
X146.3Y-66.4
X146.34Y-41.41
X146.83Y-72.09
X146.83Y-73.32
X146.83Y-74.51
X146.83Y-75.65
X146.83Y-76.72
X146.88Y-59.9
X146.88Y-61.04
X146.88Y-62.11
X146.91Y-56.47
X146.91Y-78.24
X146.91Y-79.47
X146.91Y-80.66
X146.91Y-81.8
X146.91Y-82.87
X147.1Y-68.3
X147.3Y-65.7
X147.36Y-67.3
X147.41Y-41.41
X147.54Y-47.87
X147.72Y-48.87
X147.9Y-66.5
X148.05Y-56.47
X148.43Y-67.3
X148.5Y-61.0
X148.55Y-41.41
X149.71Y-41.46
X150.0Y-63.0
X150.78Y-41.46
X151.04Y-67.78
X151.19Y-46.7
X151.2Y-43.34
X151.2Y-45.58
X151.21Y-44.42
X151.92Y-41.46
X152.0Y-88.0
X152.27Y-67.78
X152.89Y-61.65
X152.89Y-62.88
X152.89Y-64.07
X152.89Y-65.21
X152.89Y-66.28
X153.4Y-41.44
X153.46Y-67.78
X154.28Y-61.63
X154.28Y-62.86
X154.28Y-64.05
X154.28Y-65.19
X154.28Y-66.26
X154.47Y-41.44
X154.6Y-67.78
X154.7Y-48.27
X154.7Y-49.41
X154.7Y-50.48
X155.25Y-54.58
X155.61Y-41.44
X155.65Y-61.65
X155.65Y-62.88
X155.65Y-64.07
X155.65Y-65.21
X155.65Y-66.28
X155.67Y-67.78
X156.14Y-48.25
X156.14Y-49.39
X156.14Y-50.46
X156.32Y-54.58
X156.89Y-61.73
X156.89Y-62.87
X156.89Y-63.94
X157.44Y-73.69
X157.44Y-74.92
X157.44Y-76.11
X157.44Y-77.25
X157.44Y-78.32
X157.46Y-54.58
X157.5Y-80.5
X157.629Y-59.2
X158.6Y-54.55
X159.1Y-73.7
X159.1Y-74.77
X159.1Y-75.91
X159.1Y-77.1
X159.1Y-78.33
X159.67Y-54.55
X160.0Y-59.2
X160.66Y-47.16
X160.73Y-52.6
X160.75Y-51.75
X160.76Y-48.09
X160.78Y-53.51
X160.81Y-54.55
X160.91Y-43.25
X161.28Y-46.57
X161.3Y-51.1
X161.39Y-47.53
X161.67Y-44.02
X161.69Y-51.78
X161.69Y-52.63
X161.75Y-53.5
X161.8Y-50.5
X161.89Y-42.97
X161.93Y-41.94
X161.97Y-39.81
X161.98Y-40.86
X162.07Y-46.86
X162.62Y-53.93
X162.67Y-53.01
X163.04Y-39.81
X163.05Y-40.86
X163.06Y-46.72
X163.1Y-62.4
X163.18Y-59.61
X163.5Y-63.0
X163.54Y-64.03
X163.55Y-53.01
X163.56Y-45.97
X163.64Y-53.87
X163.9Y-63.5
X163.97Y-46.71
X164.0Y-64.7
X164.18Y-39.81
X164.19Y-40.86
X164.25Y-45.17
X164.47Y-59.65
X164.58Y-46.0
X164.59Y-53.03
X164.6Y-65.4
X164.64Y-55.47
X164.65Y-56.37
X164.66Y-57.18
X164.72Y-53.89
X165.0Y-61.0
X165.27Y-45.2
X165.37Y-39.81
X165.38Y-40.86
X165.64Y-52.91
X165.65Y-46.0
X165.67Y-61.9
X165.69Y-51.28
X165.69Y-52.06
X165.69Y-53.9
X165.7Y-66.4
X165.8Y-59.62
X165.85Y-62.86
X165.86Y-63.94
X166.02Y-61.08
X166.34Y-45.2
X166.53Y-45.97
X166.6Y-39.81
X166.6Y-51.3
X166.61Y-40.86
X166.65Y-52.06
X166.72Y-52.88
X166.77Y-53.88
X166.87Y-59.62
X167.22Y-45.17
X167.44Y-51.32
X167.47Y-45.97
X167.61Y-52.05
X167.63Y-52.87
X167.79Y-53.9
X167.86Y-39.8
X167.87Y-40.85
X168.0Y-72.0
X168.01Y-59.62
X168.04Y-56.4
X168.06Y-57.41
X168.16Y-45.17
X168.3Y-51.3
X168.3Y-52.5
X168.44Y-45.96
X168.69Y-53.92
X168.93Y-39.8
X168.94Y-40.85
X169.05Y-75.2
X169.05Y-76.43
X169.05Y-77.62
X169.05Y-78.76
X169.05Y-79.83
X169.13Y-45.16
X169.41Y-45.97
X169.5Y-69.5
X169.6Y-53.9
X170.07Y-39.8
X170.08Y-40.85
X170.1Y-45.17
X170.35Y-45.97
X170.35Y-65.69
X170.46Y-66.94
X170.5Y-53.9
X170.71Y-75.21
X170.71Y-76.28
X170.71Y-77.42
X170.71Y-78.61
X170.71Y-79.84
X171.04Y-45.17
X171.11Y-41.99
X171.11Y-42.89
X171.12Y-43.97
X171.26Y-39.8
X171.27Y-40.85
X171.325Y-53.898
X171.5Y-55.0
X171.58Y-65.69
X171.69Y-66.94
X172.18Y-42.34
X172.22Y-43.33
X172.49Y-39.8
X172.5Y-40.85
X172.77Y-65.69
X172.88Y-66.94
X173.0Y-57.5
X173.2Y-43.7
X173.4Y-42.2
X173.4Y-43.0
X173.91Y-65.69
X174.02Y-66.94
X174.45Y-48.67
X174.45Y-49.81
X174.45Y-50.88
X174.66Y-41.58
X174.66Y-43.64
X174.67Y-42.63
X174.98Y-65.69
X175.09Y-66.94
X175.2Y-49.0
X175.2Y-49.8
X175.2Y-50.6
X175.5Y-51.5
X175.73Y-41.58
X175.73Y-43.64
X175.74Y-42.63
X176.0Y-60.5
X176.87Y-41.58
X176.87Y-43.64
X176.88Y-42.63
X177.36Y-50.8
X177.39Y-52.0
X177.43Y-73.05
X177.96Y-44.88
X177.96Y-46.02
X177.96Y-47.09
X178.06Y-41.58
X178.06Y-43.64
X178.07Y-42.63
X178.5Y-50.8
X178.53Y-52.0
X178.66Y-73.05
X179.29Y-41.58
X179.29Y-43.64
X179.3Y-42.63
X179.33Y-44.86
X179.33Y-46.0
X179.33Y-47.07
X179.5Y-61.0
X179.57Y-50.8
X179.6Y-52.0
X179.85Y-73.05
X180.96Y-50.83
X180.99Y-52.03
X180.99Y-73.05
X182.06Y-73.05
X182.1Y-50.83
X182.13Y-52.03
X183.17Y-50.83
X183.2Y-52.03
X183.6Y-70.0
X183.89Y-85.51
X183.89Y-86.74
X183.89Y-87.93
X184.0Y-79.5
X184.0Y-80.73
X184.0Y-81.92
X184.0Y-83.06
X184.0Y-84.13
X184.18Y-50.88
X184.21Y-52.08
X185.0Y-70.0
X185.32Y-50.88
X185.35Y-52.08
X185.64Y-85.55
X185.64Y-86.78
X185.64Y-87.97
X185.75Y-79.5
X185.75Y-80.73
X185.75Y-81.92
X185.75Y-83.06
X185.75Y-84.13
X186.15Y-72.95
X186.15Y-74.18
X186.15Y-75.37
X186.15Y-76.51
X186.15Y-77.58
X186.39Y-50.88
X186.42Y-52.08
X186.65Y-41.54
X186.65Y-43.6
X186.66Y-42.59
X186.69Y-44.82
X186.69Y-45.96
X186.69Y-47.03
X187.41Y-79.51
X187.41Y-80.58
X187.41Y-81.72
X187.41Y-82.91
X187.41Y-84.14
X187.5Y-85.58
X187.5Y-86.81
X187.5Y-88.0
X187.81Y-72.96
X187.81Y-74.03
X187.81Y-75.17
X187.81Y-76.36
X187.81Y-77.59
X188.29Y-41.5
X188.29Y-43.56
X188.3Y-42.55
X188.33Y-44.78
X188.33Y-45.92
X188.33Y-46.99
T2
X184.0Y-43.8
X184.0Y-46.3
X184.0Y-48.8
X184.2Y-61.2
X184.2Y-63.7
X184.2Y-66.2
X184.2Y-68.7
T3
X144.6Y-62.7
X144.6Y-65.2
X178.6Y-54.6
X181.14Y-54.6
X183.68Y-54.6
X186.22Y-54.6
T4
X149.8Y-86.3
X149.8Y-90.8
X156.3Y-86.3
X156.3Y-90.8
X161.6Y-86.3
X161.6Y-90.8
X168.1Y-86.3
X168.1Y-90.8
X173.1Y-86.3
X173.1Y-90.8
X179.6Y-86.3
X179.6Y-90.8
T5
X143.5Y-37.5
X143.5Y-93.5
X186.5Y-37.5
X186.5Y-93.5
T3
X148.25Y-44.0G85X148.25Y-46.0
G05
X150.25Y-49.7G85X152.25Y-49.7
G05
X154.25Y-44.0G85X154.25Y-46.0
G05
M30
