%TF.GenerationSoftware,KiCad,Pcbnew,10.0.0*%
%TF.CreationDate,2026-05-17T15:19:02+02:00*%
%TF.ProjectId,Automatic beverage dispenser,4175746f-6d61-4746-9963-206265766572,rev?*%
%TF.SameCoordinates,Original*%
%TF.FileFunction,Copper,L1,Top*%
%TF.FilePolarity,Positive*%
%FSLAX46Y46*%
G04 Gerber Fmt 4.6, Leading zero omitted, Abs format (unit mm)*
G04 Created by KiCad (PCBNEW 10.0.0) date 2026-05-17 15:19:02*
%MOMM*%
%LPD*%
G01*
G04 APERTURE LIST*
G04 Aperture macros list*
%AMRoundRect*
0 Rectangle with rounded corners*
0 $1 Rounding radius*
0 $2 $3 $4 $5 $6 $7 $8 $9 X,Y pos of 4 corners*
0 Add a 4 corners polygon primitive as box body*
4,1,4,$2,$3,$4,$5,$6,$7,$8,$9,$2,$3,0*
0 Add four circle primitives for the rounded corners*
1,1,$1+$1,$2,$3*
1,1,$1+$1,$4,$5*
1,1,$1+$1,$6,$7*
1,1,$1+$1,$8,$9*
0 Add four rect primitives between the rounded corners*
20,1,$1+$1,$2,$3,$4,$5,0*
20,1,$1+$1,$4,$5,$6,$7,0*
20,1,$1+$1,$6,$7,$8,$9,0*
20,1,$1+$1,$8,$9,$2,$3,0*%
G04 Aperture macros list end*
%TA.AperFunction,SMDPad,CuDef*%
%ADD10RoundRect,0.375000X0.625000X0.375000X-0.625000X0.375000X-0.625000X-0.375000X0.625000X-0.375000X0*%
%TD*%
%TA.AperFunction,SMDPad,CuDef*%
%ADD11RoundRect,0.500000X0.500000X1.400000X-0.500000X1.400000X-0.500000X-1.400000X0.500000X-1.400000X0*%
%TD*%
%TA.AperFunction,SMDPad,CuDef*%
%ADD12RoundRect,0.250000X0.450000X-0.262500X0.450000X0.262500X-0.450000X0.262500X-0.450000X-0.262500X0*%
%TD*%
%TA.AperFunction,SMDPad,CuDef*%
%ADD13RoundRect,0.250000X1.000000X0.900000X-1.000000X0.900000X-1.000000X-0.900000X1.000000X-0.900000X0*%
%TD*%
%TA.AperFunction,SMDPad,CuDef*%
%ADD14RoundRect,0.250000X0.262500X0.450000X-0.262500X0.450000X-0.262500X-0.450000X0.262500X-0.450000X0*%
%TD*%
%TA.AperFunction,SMDPad,CuDef*%
%ADD15RoundRect,0.250000X0.250000X0.475000X-0.250000X0.475000X-0.250000X-0.475000X0.250000X-0.475000X0*%
%TD*%
%TA.AperFunction,ComponentPad*%
%ADD16RoundRect,0.250000X0.725000X-0.600000X0.725000X0.600000X-0.725000X0.600000X-0.725000X-0.600000X0*%
%TD*%
%TA.AperFunction,ComponentPad*%
%ADD17O,1.950000X1.700000*%
%TD*%
%TA.AperFunction,ComponentPad*%
%ADD18C,2.000000*%
%TD*%
%TA.AperFunction,SMDPad,CuDef*%
%ADD19RoundRect,0.250000X0.650000X-1.000000X0.650000X1.000000X-0.650000X1.000000X-0.650000X-1.000000X0*%
%TD*%
%TA.AperFunction,SMDPad,CuDef*%
%ADD20RoundRect,0.250000X-0.650000X1.000000X-0.650000X-1.000000X0.650000X-1.000000X0.650000X1.000000X0*%
%TD*%
%TA.AperFunction,ComponentPad*%
%ADD21R,1.700000X1.700000*%
%TD*%
%TA.AperFunction,ComponentPad*%
%ADD22C,1.700000*%
%TD*%
%TA.AperFunction,SMDPad,CuDef*%
%ADD23RoundRect,0.250000X0.475000X-0.250000X0.475000X0.250000X-0.475000X0.250000X-0.475000X-0.250000X0*%
%TD*%
%TA.AperFunction,SMDPad,CuDef*%
%ADD24RoundRect,0.100000X-0.637500X-0.100000X0.637500X-0.100000X0.637500X0.100000X-0.637500X0.100000X0*%
%TD*%
%TA.AperFunction,SMDPad,CuDef*%
%ADD25RoundRect,0.250000X-0.445000X0.457500X-0.445000X-0.457500X0.445000X-0.457500X0.445000X0.457500X0*%
%TD*%
%TA.AperFunction,ComponentPad*%
%ADD26RoundRect,0.250000X-0.750000X0.600000X-0.750000X-0.600000X0.750000X-0.600000X0.750000X0.600000X0*%
%TD*%
%TA.AperFunction,ComponentPad*%
%ADD27O,2.000000X1.700000*%
%TD*%
%TA.AperFunction,SMDPad,CuDef*%
%ADD28RoundRect,0.250000X-1.450000X0.312500X-1.450000X-0.312500X1.450000X-0.312500X1.450000X0.312500X0*%
%TD*%
%TA.AperFunction,SMDPad,CuDef*%
%ADD29C,1.000000*%
%TD*%
%TA.AperFunction,SMDPad,CuDef*%
%ADD30RoundRect,0.150000X-0.587500X-0.150000X0.587500X-0.150000X0.587500X0.150000X-0.587500X0.150000X0*%
%TD*%
%TA.AperFunction,ComponentPad*%
%ADD31R,3.500000X3.500000*%
%TD*%
%TA.AperFunction,ComponentPad*%
%ADD32RoundRect,0.750000X-0.750000X-1.000000X0.750000X-1.000000X0.750000X1.000000X-0.750000X1.000000X0*%
%TD*%
%TA.AperFunction,ComponentPad*%
%ADD33RoundRect,0.875000X-0.875000X-0.875000X0.875000X-0.875000X0.875000X0.875000X-0.875000X0.875000X0*%
%TD*%
%TA.AperFunction,ViaPad*%
%ADD34C,0.600000*%
%TD*%
%TA.AperFunction,ViaPad*%
%ADD35C,0.500000*%
%TD*%
%TA.AperFunction,Conductor*%
%ADD36C,0.250000*%
%TD*%
%TA.AperFunction,Conductor*%
%ADD37C,0.300000*%
%TD*%
%TA.AperFunction,Conductor*%
%ADD38C,0.500000*%
%TD*%
G04 APERTURE END LIST*
D10*
%TO.P,U1,1,GND_1*%
%TO.N,GND*%
X170000000Y-52500000D03*
%TO.P,U1,2,VO_2*%
%TO.N,+3.3V*%
X170000000Y-50200000D03*
D11*
X163700000Y-50200000D03*
D10*
%TO.P,U1,3,VI_3*%
%TO.N,+12V*%
X170000000Y-47900000D03*
%TD*%
D12*
%TO.P,R8,1*%
%TO.N,+3.3V*%
X159278655Y-57997037D03*
%TO.P,R8,2*%
%TO.N,Net-(U2-NRST)*%
X159278655Y-56172037D03*
%TD*%
D13*
%TO.P,D1,1,A1_1*%
%TO.N,GND*%
X168800000Y-43100000D03*
%TO.P,D1,2,A2_2*%
%TO.N,Net-(D1-A2)*%
X164500000Y-43100000D03*
%TD*%
D14*
%TO.P,R6,1*%
%TO.N,GND*%
X179637500Y-66062500D03*
%TO.P,R6,2*%
%TO.N,FLOW_SIG*%
X177812500Y-66062500D03*
%TD*%
D15*
%TO.P,C5,1*%
%TO.N,GND*%
X155450000Y-75400000D03*
%TO.P,C5,2*%
%TO.N,BTN_START*%
X153550000Y-75400000D03*
%TD*%
D16*
%TO.P,J3,1,Pin_1_1*%
%TO.N,+3.3V*%
X184200000Y-68700000D03*
D17*
%TO.P,J3,2,Pin_2_2*%
%TO.N,GND*%
X184200000Y-66200000D03*
%TO.P,J3,3,Pin_3_3*%
%TO.N,I2C_SCL*%
X184200000Y-63700000D03*
%TO.P,J3,4,Pin_4_4*%
%TO.N,I2C_SDA*%
X184200000Y-61200000D03*
%TD*%
D18*
%TO.P,SW1,1,1_1*%
%TO.N,GND*%
X156300000Y-90800000D03*
X149800000Y-90800000D03*
%TO.P,SW1,2,2_2*%
%TO.N,Net-(R10-Pad2)*%
X156300000Y-86300000D03*
X149800000Y-86300000D03*
%TD*%
D14*
%TO.P,R15,1*%
%TO.N,BTN_UP*%
X178512500Y-78912500D03*
%TO.P,R15,2*%
%TO.N,Net-(R14-Pad2)*%
X176687500Y-78912500D03*
%TD*%
D19*
%TO.P,D4,1,K_1*%
%TO.N,+3.3V*%
X150000000Y-82900000D03*
%TO.P,D4,2,A_2*%
%TO.N,BTN_START*%
X150000000Y-78900000D03*
%TD*%
D20*
%TO.P,D2,1,K_1*%
%TO.N,+12V*%
X142600000Y-53800000D03*
%TO.P,D2,2,A_2*%
%TO.N,Net-(D2-A)*%
X142600000Y-57800000D03*
%TD*%
D21*
%TO.P,J2,1,Pin_1_1*%
%TO.N,+3.3V*%
X186220000Y-54600000D03*
D22*
%TO.P,J2,2,Pin_2_2*%
%TO.N,GND*%
X183680000Y-54600000D03*
%TO.P,J2,3,Pin_3_3*%
%TO.N,SWDIO*%
X181140000Y-54600000D03*
%TO.P,J2,4,Pin_4_4*%
%TO.N,SWCLK*%
X178600000Y-54600000D03*
%TD*%
D23*
%TO.P,C8,1*%
%TO.N,GND*%
X162950000Y-58150000D03*
%TO.P,C8,2*%
%TO.N,Net-(U2-NRST)*%
X162950000Y-56250000D03*
%TD*%
D15*
%TO.P,C6,1*%
%TO.N,GND*%
X167100000Y-75500000D03*
%TO.P,C6,2*%
%TO.N,BTN_DOWN*%
X165200000Y-75500000D03*
%TD*%
D24*
%TO.P,U2,1,PB7/PB8_1*%
%TO.N,unconnected-(U2-PB7{slash}PB8-Pad1)*%
X161537500Y-60850000D03*
%TO.P,U2,2,PB9/PC14_2*%
%TO.N,unconnected-(U2-PB9{slash}PC14-Pad2)*%
X161537500Y-61500000D03*
%TO.P,U2,3,PC15_3*%
%TO.N,unconnected-(U2-PC15-Pad3)*%
X161537500Y-62150000D03*
%TO.P,U2,4,VDD_4*%
%TO.N,+3.3V*%
X161537500Y-62800000D03*
%TO.P,U2,5,VSS_5*%
%TO.N,GND*%
X161537500Y-63450000D03*
%TO.P,U2,6,NRST_6*%
%TO.N,Net-(U2-NRST)*%
X161537500Y-64100000D03*
%TO.P,U2,7,PA0_7*%
%TO.N,BTN_UP*%
X161537500Y-64750000D03*
%TO.P,U2,8,PA1_8*%
%TO.N,BTN_DOWN*%
X161537500Y-65400000D03*
%TO.P,U2,9,PA2_9*%
%TO.N,BTN_START*%
X161537500Y-66050000D03*
%TO.P,U2,10,PA3_10*%
%TO.N,unconnected-(U2-PA3-Pad10)*%
X161537500Y-66700000D03*
%TO.P,U2,11,PA4_11*%
%TO.N,unconnected-(U2-PA4-Pad11)*%
X167262500Y-66700000D03*
%TO.P,U2,12,PA5_12*%
%TO.N,unconnected-(U2-PA5-Pad12)*%
X167262500Y-66050000D03*
%TO.P,U2,13,PA6_13*%
%TO.N,FLUID_PUMP*%
X167262500Y-65400000D03*
%TO.P,U2,14,PA7_14*%
%TO.N,unconnected-(U2-PA7-Pad14)*%
X167262500Y-64750000D03*
%TO.P,U2,15,PA8/PB0/PB1/PB2_15*%
%TO.N,FLOW_SIG*%
X167262500Y-64100000D03*
%TO.P,U2,16,PA9/PA11_16*%
%TO.N,I2C_SCL*%
X167262500Y-63450000D03*
%TO.P,U2,17,PA10/PA12_17*%
%TO.N,I2C_SDA*%
X167262500Y-62800000D03*
%TO.P,U2,18,PA13_18*%
%TO.N,SWDIO*%
X167262500Y-62150000D03*
%TO.P,U2,19,PA14/PA15_19*%
%TO.N,SWCLK*%
X167262500Y-61500000D03*
%TO.P,U2,20,PB3/PB4/PB5/PB6_20*%
%TO.N,unconnected-(U2-PB3{slash}PB4{slash}PB5{slash}PB6-Pad20)*%
X167262500Y-60850000D03*
%TD*%
D15*
%TO.P,C7,1*%
%TO.N,GND*%
X178500000Y-75550000D03*
%TO.P,C7,2*%
%TO.N,BTN_UP*%
X176600000Y-75550000D03*
%TD*%
D14*
%TO.P,R1,1*%
%TO.N,I2C_SDA*%
X179625000Y-59200000D03*
%TO.P,R1,2*%
%TO.N,+3.3V*%
X177800000Y-59200000D03*
%TD*%
%TO.P,R11,1*%
%TO.N,BTN_START*%
X155312500Y-78900000D03*
%TO.P,R11,2*%
%TO.N,Net-(R10-Pad2)*%
X153487500Y-78900000D03*
%TD*%
D25*
%TO.P,C2,1*%
%TO.N,+3.3V*%
X172800000Y-50147500D03*
%TO.P,C2,2*%
%TO.N,GND*%
X172800000Y-52852500D03*
%TD*%
D16*
%TO.P,J5,1,Pin_1_1*%
%TO.N,+12V*%
X184000000Y-48800000D03*
D17*
%TO.P,J5,2,Pin_2_2*%
%TO.N,Net-(J5-Pin_2)*%
X184000000Y-46300000D03*
%TO.P,J5,3,Pin_3_3*%
%TO.N,GND*%
X184000000Y-43800000D03*
%TD*%
D14*
%TO.P,R13,1*%
%TO.N,BTN_DOWN*%
X167112500Y-78800000D03*
%TO.P,R13,2*%
%TO.N,Net-(R12-Pad2)*%
X165287500Y-78800000D03*
%TD*%
D26*
%TO.P,J4,1,Pin_1_1*%
%TO.N,+12V*%
X144600000Y-62700000D03*
D27*
%TO.P,J4,2,Pin_2_2*%
%TO.N,Net-(D2-A)*%
X144600000Y-65200000D03*
%TD*%
D14*
%TO.P,R5,1*%
%TO.N,Net-(J5-Pin_2)*%
X179625000Y-69600000D03*
%TO.P,R5,2*%
%TO.N,FLOW_SIG*%
X177800000Y-69600000D03*
%TD*%
D19*
%TO.P,D7,1,K_1*%
%TO.N,BTN_DOWN*%
X161700000Y-75400000D03*
%TO.P,D7,2,A_2*%
%TO.N,GND*%
X161700000Y-71400000D03*
%TD*%
D14*
%TO.P,R10,1*%
%TO.N,+3.3V*%
X155300000Y-82300000D03*
%TO.P,R10,2*%
%TO.N,Net-(R10-Pad2)*%
X153475000Y-82300000D03*
%TD*%
D19*
%TO.P,D8,1,K_1*%
%TO.N,+3.3V*%
X173300000Y-82700000D03*
%TO.P,D8,2,A_2*%
%TO.N,BTN_UP*%
X173300000Y-78700000D03*
%TD*%
D28*
%TO.P,F1,1*%
%TO.N,Net-(F1-Pad1)*%
X159000000Y-41125000D03*
%TO.P,F1,2*%
%TO.N,Net-(D1-A2)*%
X159000000Y-45400000D03*
%TD*%
D19*
%TO.P,D9,1,K_1*%
%TO.N,BTN_UP*%
X173300000Y-75400000D03*
%TO.P,D9,2,A_2*%
%TO.N,GND*%
X173300000Y-71400000D03*
%TD*%
D29*
%TO.P,FID1,*%
%TO.N,*%
X179500000Y-38000000D03*
%TD*%
D30*
%TO.P,Q1,1,G_1*%
%TO.N,Net-(Q1-G)*%
X151012500Y-56800000D03*
%TO.P,Q1,2,S_2*%
%TO.N,GND*%
X151012500Y-58700000D03*
%TO.P,Q1,3,D_3*%
%TO.N,Net-(D2-A)*%
X152887500Y-57750000D03*
%TD*%
D14*
%TO.P,R4,1*%
%TO.N,Net-(Q1-G)*%
X147675000Y-58300000D03*
%TO.P,R4,2*%
%TO.N,GND*%
X145850000Y-58300000D03*
%TD*%
D19*
%TO.P,D5,1,K_1*%
%TO.N,BTN_START*%
X150000000Y-75500000D03*
%TO.P,D5,2,A_2*%
%TO.N,GND*%
X150000000Y-71500000D03*
%TD*%
D18*
%TO.P,SW3,1,1_1*%
%TO.N,GND*%
X179600000Y-90800000D03*
X173100000Y-90800000D03*
%TO.P,SW3,2,2_2*%
%TO.N,Net-(R14-Pad2)*%
X179600000Y-86300000D03*
X173100000Y-86300000D03*
%TD*%
D29*
%TO.P,FID2,*%
%TO.N,*%
X149500000Y-37500000D03*
%TD*%
D14*
%TO.P,R14,1*%
%TO.N,+3.3V*%
X178600000Y-82300000D03*
%TO.P,R14,2*%
%TO.N,Net-(R14-Pad2)*%
X176775000Y-82300000D03*
%TD*%
D19*
%TO.P,D3,1,K_1*%
%TO.N,+12V*%
X158800000Y-52200000D03*
%TO.P,D3,2,A_2*%
%TO.N,Net-(D1-A2)*%
X158800000Y-48200000D03*
%TD*%
D18*
%TO.P,SW2,1,1_1*%
%TO.N,GND*%
X168100000Y-90800000D03*
X161600000Y-90800000D03*
%TO.P,SW2,2,2_2*%
%TO.N,Net-(R12-Pad2)*%
X168100000Y-86300000D03*
X161600000Y-86300000D03*
%TD*%
D25*
%TO.P,C1,1*%
%TO.N,+12V*%
X172800000Y-45247500D03*
%TO.P,C1,2*%
%TO.N,GND*%
X172800000Y-47952500D03*
%TD*%
D14*
%TO.P,R2,1*%
%TO.N,I2C_SCL*%
X179625000Y-62600000D03*
%TO.P,R2,2*%
%TO.N,+3.3V*%
X177800000Y-62600000D03*
%TD*%
D23*
%TO.P,C3,1*%
%TO.N,+3.3V*%
X166470000Y-58240000D03*
%TO.P,C3,2*%
%TO.N,GND*%
X166470000Y-56340000D03*
%TD*%
D14*
%TO.P,R12,1*%
%TO.N,+3.3V*%
X167212500Y-82300000D03*
%TO.P,R12,2*%
%TO.N,Net-(R12-Pad2)*%
X165387500Y-82300000D03*
%TD*%
D23*
%TO.P,C4,1*%
%TO.N,GND*%
X159500000Y-64740000D03*
%TO.P,C4,2*%
%TO.N,+3.3V*%
X159500000Y-62840000D03*
%TD*%
D19*
%TO.P,D6,1,K_1*%
%TO.N,+3.3V*%
X161800000Y-82700000D03*
%TO.P,D6,2,A_2*%
%TO.N,BTN_DOWN*%
X161800000Y-78700000D03*
%TD*%
D14*
%TO.P,R3,1*%
%TO.N,Net-(Q1-G)*%
X147712500Y-54600000D03*
%TO.P,R3,2*%
%TO.N,FLUID_PUMP*%
X145887500Y-54600000D03*
%TD*%
D29*
%TO.P,FID3,*%
%TO.N,*%
X149500000Y-95200000D03*
%TD*%
D31*
%TO.P,J1,1*%
%TO.N,Net-(F1-Pad1)*%
X154250000Y-45000000D03*
D32*
%TO.P,J1,2*%
%TO.N,GND*%
X148250000Y-45000000D03*
D33*
%TO.P,J1,3*%
%TO.N,N/C*%
X151250000Y-49700000D03*
%TD*%
D34*
%TO.N,GND*%
X162070000Y-46860000D03*
X141580000Y-47610000D03*
X171110000Y-42890000D03*
X185750000Y-80730000D03*
X143030000Y-85840000D03*
X179330000Y-44860000D03*
X166720000Y-52880000D03*
X163970000Y-46710000D03*
X187810000Y-77590000D03*
X145140000Y-48900000D03*
X145070000Y-87010000D03*
X175730000Y-43640000D03*
X172220000Y-43330000D03*
X146220000Y-67300000D03*
X165690000Y-52060000D03*
X168010000Y-59620000D03*
X175500000Y-51500000D03*
X168930000Y-39800000D03*
X170080000Y-40850000D03*
X147360000Y-67300000D03*
X161280000Y-46570000D03*
X168300000Y-52500000D03*
X186650000Y-43600000D03*
X154280000Y-66260000D03*
X143030000Y-88170000D03*
X144960000Y-72090000D03*
X180960000Y-50830000D03*
X166650000Y-52060000D03*
X161800000Y-50500000D03*
X186150000Y-77580000D03*
X155250000Y-54580000D03*
X168160000Y-45170000D03*
X165700000Y-66400000D03*
X143070000Y-43710000D03*
X151190000Y-46700000D03*
X141200000Y-68400000D03*
X152000000Y-88000000D03*
X165270000Y-45200000D03*
X163040000Y-39810000D03*
X145070000Y-88150000D03*
X154600000Y-67780000D03*
X160760000Y-48090000D03*
X171580000Y-65690000D03*
X144960000Y-76720000D03*
X164000000Y-64700000D03*
X168040000Y-56400000D03*
X165690000Y-53900000D03*
X164640000Y-55470000D03*
X163180000Y-59610000D03*
X180990000Y-73050000D03*
X174020000Y-66940000D03*
X170710000Y-79840000D03*
X141090000Y-66260000D03*
X186690000Y-47030000D03*
X157440000Y-76110000D03*
X141090000Y-65120000D03*
X153400000Y-41440000D03*
X172880000Y-66940000D03*
X168440000Y-45960000D03*
X177960000Y-46020000D03*
X170710000Y-75210000D03*
X156140000Y-50460000D03*
X145000000Y-81880000D03*
X187810000Y-72960000D03*
X142810000Y-47610000D03*
X156890000Y-62870000D03*
X141660000Y-44840000D03*
X177960000Y-44880000D03*
X154280000Y-65190000D03*
X146300000Y-66400000D03*
X168940000Y-40850000D03*
X155650000Y-66280000D03*
X186690000Y-44820000D03*
X184000000Y-79500000D03*
X170710000Y-78610000D03*
X148430000Y-67300000D03*
X178070000Y-42630000D03*
X186150000Y-72950000D03*
X141090000Y-67330000D03*
X155610000Y-41440000D03*
X148500000Y-61000000D03*
X170350000Y-45970000D03*
X169050000Y-75200000D03*
X166020000Y-61080000D03*
X173200000Y-43700000D03*
X157440000Y-74920000D03*
X161690000Y-52630000D03*
X145840000Y-56470000D03*
X178060000Y-43640000D03*
X185750000Y-84130000D03*
X174660000Y-43640000D03*
X165370000Y-39810000D03*
X165850000Y-62860000D03*
X159100000Y-75910000D03*
X146910000Y-56470000D03*
X146210000Y-47610000D03*
X154280000Y-62860000D03*
X157460000Y-54580000D03*
X144000000Y-48900000D03*
X169410000Y-45970000D03*
X187410000Y-81720000D03*
X170460000Y-66940000D03*
X166340000Y-45200000D03*
X154280000Y-64050000D03*
X188300000Y-42550000D03*
X163640000Y-53870000D03*
X144960000Y-74510000D03*
X143800000Y-67300000D03*
X164650000Y-56370000D03*
X145030000Y-67300000D03*
X144760000Y-68400000D03*
X147410000Y-41410000D03*
X163550000Y-53010000D03*
X184000000Y-81920000D03*
X143070000Y-44850000D03*
X185640000Y-86780000D03*
X178660000Y-73050000D03*
X165000000Y-61000000D03*
X174450000Y-50880000D03*
X187410000Y-79510000D03*
X141660000Y-41280000D03*
X146910000Y-78240000D03*
X162670000Y-53010000D03*
X168300000Y-51300000D03*
X142430000Y-68400000D03*
X160660000Y-47160000D03*
X141660000Y-43700000D03*
X186660000Y-42590000D03*
X141700000Y-64400000D03*
X164580000Y-46000000D03*
X145070000Y-89220000D03*
X171270000Y-40850000D03*
X161670000Y-44020000D03*
X170710000Y-76280000D03*
X173000000Y-57500000D03*
X159100000Y-74770000D03*
X154700000Y-50480000D03*
X174660000Y-41580000D03*
X163500000Y-63000000D03*
X179850000Y-73050000D03*
X182130000Y-52030000D03*
X152890000Y-66280000D03*
X147100000Y-68300000D03*
X160810000Y-54550000D03*
X188330000Y-46990000D03*
X185750000Y-81920000D03*
X166610000Y-40860000D03*
X171040000Y-45170000D03*
X145830000Y-68400000D03*
X143070000Y-45920000D03*
X179600000Y-52000000D03*
X143620000Y-68400000D03*
X184000000Y-83060000D03*
X185640000Y-85550000D03*
X146880000Y-59900000D03*
X186150000Y-76510000D03*
X173400000Y-42200000D03*
X171120000Y-43970000D03*
X184180000Y-50880000D03*
X165690000Y-51280000D03*
X169050000Y-77620000D03*
X157440000Y-73690000D03*
X172490000Y-39800000D03*
X166770000Y-53880000D03*
X146210000Y-48900000D03*
X145000000Y-80740000D03*
X161690000Y-51780000D03*
X166600000Y-39810000D03*
X183890000Y-87930000D03*
X172770000Y-65690000D03*
X156890000Y-63940000D03*
X145140000Y-47610000D03*
X158600000Y-54550000D03*
X185320000Y-50880000D03*
X171260000Y-39800000D03*
X152890000Y-65210000D03*
X146910000Y-79470000D03*
X184000000Y-80730000D03*
X166530000Y-45970000D03*
X156890000Y-61730000D03*
X165800000Y-59620000D03*
X180990000Y-52030000D03*
X187410000Y-80580000D03*
X151200000Y-45580000D03*
X155650000Y-65210000D03*
X164600000Y-65400000D03*
X144570000Y-46000000D03*
X147900000Y-66500000D03*
X142810000Y-48900000D03*
X184000000Y-84130000D03*
X142410000Y-67260000D03*
X141580000Y-48900000D03*
X167470000Y-45970000D03*
X171500000Y-55000000D03*
X147720000Y-48870000D03*
X148550000Y-41410000D03*
X164660000Y-57180000D03*
X144570000Y-43790000D03*
X165380000Y-40860000D03*
X175090000Y-66940000D03*
X179290000Y-43640000D03*
X184210000Y-52080000D03*
X178060000Y-41580000D03*
X159100000Y-77100000D03*
X154700000Y-48270000D03*
X167860000Y-39800000D03*
X152270000Y-67780000D03*
X178500000Y-50800000D03*
X152890000Y-64070000D03*
X165640000Y-52910000D03*
X188290000Y-41500000D03*
X177960000Y-47090000D03*
X146880000Y-61040000D03*
X146910000Y-82870000D03*
X186420000Y-52080000D03*
X146880000Y-62110000D03*
X173910000Y-65690000D03*
X164720000Y-53890000D03*
X177360000Y-50800000D03*
X163060000Y-46720000D03*
X172180000Y-42340000D03*
X161300000Y-51100000D03*
X169050000Y-79830000D03*
X168000000Y-72000000D03*
X171110000Y-41990000D03*
X170070000Y-39800000D03*
X169600000Y-53900000D03*
X143030000Y-89240000D03*
X178530000Y-52000000D03*
X188290000Y-43560000D03*
X141660000Y-45910000D03*
X144000000Y-47610000D03*
X179330000Y-46000000D03*
X155650000Y-64070000D03*
X159670000Y-54550000D03*
X144570000Y-44930000D03*
X163540000Y-64030000D03*
X185750000Y-79500000D03*
X176870000Y-43640000D03*
X151040000Y-67780000D03*
X187810000Y-74030000D03*
X154470000Y-41440000D03*
X169050000Y-76430000D03*
X187500000Y-85580000D03*
X177390000Y-52000000D03*
X153460000Y-67780000D03*
X161980000Y-40860000D03*
X174980000Y-65690000D03*
X175740000Y-42630000D03*
X179300000Y-42630000D03*
X144960000Y-73320000D03*
X175200000Y-49000000D03*
X155650000Y-61650000D03*
X179330000Y-47070000D03*
X150000000Y-63000000D03*
X182060000Y-73050000D03*
X161750000Y-53500000D03*
X141660000Y-42510000D03*
X146910000Y-80660000D03*
X147300000Y-65700000D03*
X183200000Y-52030000D03*
X154280000Y-61630000D03*
X187810000Y-76360000D03*
X159100000Y-78330000D03*
X151920000Y-41460000D03*
X188330000Y-44780000D03*
X164180000Y-39810000D03*
X183890000Y-86740000D03*
X157500000Y-80500000D03*
X171690000Y-66940000D03*
X171324673Y-53898252D03*
X183890000Y-85510000D03*
X164250000Y-45170000D03*
X160910000Y-43250000D03*
X175200000Y-50600000D03*
X186150000Y-74180000D03*
X146910000Y-81800000D03*
X151210000Y-44420000D03*
X164190000Y-40860000D03*
X164470000Y-59650000D03*
X146830000Y-73320000D03*
X145070000Y-85820000D03*
X186390000Y-50880000D03*
X152890000Y-61650000D03*
X167870000Y-40850000D03*
X183170000Y-50830000D03*
X182100000Y-50830000D03*
X144570000Y-41370000D03*
X170710000Y-77420000D03*
X187810000Y-75170000D03*
X146830000Y-75650000D03*
X169050000Y-78760000D03*
X160780000Y-53510000D03*
X175730000Y-41580000D03*
X155670000Y-67780000D03*
X142410000Y-66190000D03*
X185750000Y-83060000D03*
X166600000Y-51300000D03*
X186150000Y-75370000D03*
X172500000Y-40850000D03*
X179290000Y-41580000D03*
X163560000Y-45970000D03*
X165670000Y-61900000D03*
X170100000Y-45170000D03*
X162620000Y-53930000D03*
X142410000Y-65050000D03*
X147540000Y-47870000D03*
X167220000Y-45170000D03*
X174450000Y-48670000D03*
X156320000Y-54580000D03*
X146340000Y-41410000D03*
X160750000Y-51750000D03*
X151200000Y-43340000D03*
X166870000Y-59620000D03*
X163100000Y-62400000D03*
X185350000Y-52080000D03*
X154700000Y-49410000D03*
X161890000Y-42970000D03*
X167790000Y-53900000D03*
X159100000Y-73700000D03*
X161390000Y-47530000D03*
X185640000Y-87970000D03*
X145000000Y-82950000D03*
X163900000Y-63500000D03*
X176870000Y-41580000D03*
X187410000Y-82910000D03*
X161930000Y-41940000D03*
X163050000Y-40860000D03*
X170500000Y-53900000D03*
X149710000Y-41460000D03*
X146830000Y-76720000D03*
X156140000Y-48250000D03*
X186690000Y-45960000D03*
X144960000Y-75650000D03*
X167440000Y-51320000D03*
X144570000Y-42600000D03*
X143070000Y-42520000D03*
X143030000Y-87030000D03*
X164590000Y-53030000D03*
X186650000Y-41540000D03*
X146830000Y-74510000D03*
X174670000Y-42630000D03*
X169130000Y-45160000D03*
X169500000Y-69500000D03*
X187500000Y-86810000D03*
X143070000Y-41290000D03*
X145000000Y-78320000D03*
X188330000Y-45920000D03*
X167630000Y-52870000D03*
X167610000Y-52050000D03*
X187410000Y-84140000D03*
X170350000Y-65690000D03*
X156140000Y-49390000D03*
X175200000Y-49800000D03*
X145070000Y-84590000D03*
X152890000Y-62880000D03*
X173400000Y-43000000D03*
X168060000Y-57410000D03*
X174450000Y-49810000D03*
X161970000Y-39810000D03*
X179570000Y-50800000D03*
X155650000Y-62880000D03*
X143030000Y-84610000D03*
X165650000Y-46000000D03*
X145000000Y-79550000D03*
X176880000Y-42630000D03*
X187500000Y-88000000D03*
X157440000Y-77250000D03*
X165860000Y-63940000D03*
X160730000Y-52600000D03*
X177430000Y-73050000D03*
X168690000Y-53920000D03*
X150780000Y-41460000D03*
X157440000Y-78320000D03*
X148050000Y-56470000D03*
X146830000Y-72090000D03*
%TO.N,+3.3V*%
X179500000Y-61000000D03*
X176000000Y-60500000D03*
D35*
%TO.N,FLUID_PUMP*%
X160000000Y-59200000D03*
X157628655Y-59200000D03*
%TO.N,Net-(J5-Pin_2)*%
X183600000Y-70000000D03*
X185000000Y-70000000D03*
%TD*%
%TO.N,GND*%
D36*
X184200000Y-66200000D02*
X179775000Y-66200000D01*
X163050000Y-63450000D02*
X163500000Y-63000000D01*
X163050000Y-63450000D02*
X161537500Y-63450000D01*
X164660000Y-58150000D02*
X166470000Y-56340000D01*
X162950000Y-58150000D02*
X164660000Y-58150000D01*
X179775000Y-66200000D02*
X179637500Y-66062500D01*
X172800000Y-52852500D02*
X172800000Y-53700000D01*
X172800000Y-53700000D02*
X171500000Y-55000000D01*
%TO.N,+3.3V*%
D37*
X179400000Y-61000000D02*
X177800000Y-62600000D01*
X148000000Y-93000000D02*
X158800000Y-93000000D01*
X159200000Y-92600000D02*
X159600000Y-92600000D01*
X159200000Y-92600000D02*
X159200000Y-85300000D01*
X172800000Y-50147500D02*
X172947500Y-50147500D01*
X181000000Y-93000000D02*
X181600000Y-92400000D01*
X170110000Y-85890000D02*
X170800000Y-85200000D01*
X184200000Y-68700000D02*
X184200000Y-76700000D01*
X159200000Y-85300000D02*
X161800000Y-82700000D01*
D36*
X164855000Y-58975000D02*
X165590000Y-58240000D01*
X170310000Y-58240000D02*
X175150000Y-53400000D01*
D37*
X184200000Y-76700000D02*
X178600000Y-82300000D01*
D36*
X159430000Y-62840000D02*
X159425000Y-62835000D01*
D37*
X172747500Y-50200000D02*
X172800000Y-50147500D01*
X159600000Y-92600000D02*
X160000000Y-93000000D01*
X172800000Y-51050000D02*
X175150000Y-53400000D01*
X170800000Y-85200000D02*
X173300000Y-82700000D01*
X184200000Y-68700000D02*
X187400000Y-65500000D01*
X177800000Y-59200000D02*
X179200000Y-57800000D01*
X160000000Y-93000000D02*
X171000000Y-93000000D01*
X181600000Y-85300000D02*
X178600000Y-82300000D01*
X187400000Y-60000000D02*
X185200000Y-57800000D01*
X171000000Y-93000000D02*
X181000000Y-93000000D01*
D36*
X165590000Y-58240000D02*
X166470000Y-58240000D01*
X159100000Y-59800000D02*
X159100000Y-58175692D01*
D37*
X158800000Y-93000000D02*
X159200000Y-92600000D01*
X181600000Y-92400000D02*
X181600000Y-85300000D01*
X185200000Y-57800000D02*
X186220000Y-56780000D01*
X147400000Y-85500000D02*
X150000000Y-82900000D01*
X176500000Y-60500000D02*
X176000000Y-60500000D01*
X175150000Y-53400000D02*
X185020000Y-53400000D01*
D36*
X159100000Y-58175692D02*
X159278655Y-57997037D01*
X161251937Y-57997037D02*
X162229900Y-58975000D01*
X162229900Y-58975000D02*
X164855000Y-58975000D01*
D37*
X177800000Y-59200000D02*
X176500000Y-60500000D01*
D36*
X159430000Y-62840000D02*
X161497500Y-62840000D01*
D37*
X147400000Y-92400000D02*
X148000000Y-93000000D01*
X186220000Y-56780000D02*
X186220000Y-54600000D01*
X170000000Y-50200000D02*
X172747500Y-50200000D01*
X167212500Y-82300000D02*
X170112500Y-85200000D01*
X172800000Y-50147500D02*
X172800000Y-51050000D01*
D36*
X161497500Y-62840000D02*
X161537500Y-62800000D01*
D37*
X179200000Y-57800000D02*
X185200000Y-57800000D01*
X171000000Y-93000000D02*
X170110000Y-92110000D01*
X170110000Y-92110000D02*
X170110000Y-85890000D01*
X170112500Y-85200000D02*
X170800000Y-85200000D01*
X156200000Y-82300000D02*
X155300000Y-82300000D01*
D36*
X159500000Y-60200000D02*
X159100000Y-59800000D01*
X159500000Y-62840000D02*
X159500000Y-60200000D01*
D37*
X159200000Y-85300000D02*
X156200000Y-82300000D01*
X179500000Y-61000000D02*
X179400000Y-61000000D01*
D36*
X166470000Y-58240000D02*
X170310000Y-58240000D01*
D37*
X187400000Y-65500000D02*
X187400000Y-60000000D01*
X147400000Y-92400000D02*
X147400000Y-85500000D01*
X185020000Y-53400000D02*
X186220000Y-54600000D01*
X163700000Y-50200000D02*
X170000000Y-50200000D01*
D36*
X159278655Y-57997037D02*
X161251937Y-57997037D01*
%TO.N,+12V*%
D38*
X170147500Y-47900000D02*
X172800000Y-45247500D01*
X170000000Y-47900000D02*
X170147500Y-47900000D01*
X169950000Y-47850000D02*
X170000000Y-47900000D01*
X144200000Y-52200000D02*
X158800000Y-52200000D01*
X158800000Y-52200000D02*
X158800000Y-51849226D01*
X158800000Y-51849226D02*
X162799226Y-47850000D01*
X172800000Y-45247500D02*
X173247500Y-45247500D01*
X162799226Y-47850000D02*
X169950000Y-47850000D01*
X176800000Y-48800000D02*
X184000000Y-48800000D01*
X142600000Y-53800000D02*
X144200000Y-52200000D01*
X144700000Y-62800000D02*
X144600000Y-62700000D01*
X144600000Y-62700000D02*
X144600000Y-57153122D01*
X173247500Y-45247500D02*
X176800000Y-48800000D01*
X142600000Y-55153122D02*
X142600000Y-53800000D01*
X144600000Y-57153122D02*
X142600000Y-55153122D01*
%TO.N,Net-(U2-NRST)*%
D37*
X160400832Y-63690000D02*
X160810832Y-64100000D01*
X160810832Y-64100000D02*
X161537500Y-64100000D01*
X158228655Y-57222037D02*
X158228655Y-63219111D01*
X159278655Y-56172037D02*
X158228655Y-57222037D01*
X159356618Y-56250000D02*
X159278655Y-56172037D01*
X158228655Y-63219111D02*
X158699544Y-63690000D01*
X162950000Y-56250000D02*
X159356618Y-56250000D01*
X158699544Y-63690000D02*
X160400832Y-63690000D01*
%TO.N,Net-(D1-A2)*%
D38*
X159000000Y-45400000D02*
X159000000Y-48000000D01*
X162200000Y-45400000D02*
X164500000Y-43100000D01*
X159000000Y-45400000D02*
X162200000Y-45400000D01*
X159000000Y-48000000D02*
X158800000Y-48200000D01*
%TO.N,FLOW_SIG*%
D37*
X177800000Y-69600000D02*
X177800000Y-66075000D01*
X177812500Y-66062500D02*
X175850000Y-64100000D01*
X177800000Y-66075000D02*
X177812500Y-66062500D01*
X175850000Y-64100000D02*
X167262500Y-64100000D01*
%TO.N,BTN_START*%
X155312500Y-77162500D02*
X153550000Y-75400000D01*
X150000000Y-75500000D02*
X150000000Y-78900000D01*
X153550000Y-73110832D02*
X160610832Y-66050000D01*
X160610832Y-66050000D02*
X161537500Y-66050000D01*
X153550000Y-75400000D02*
X153550000Y-73110832D01*
X155312500Y-78900000D02*
X155312500Y-77162500D01*
X150100000Y-75400000D02*
X150000000Y-75500000D01*
X153550000Y-75400000D02*
X150100000Y-75400000D01*
%TO.N,I2C_SCL*%
X177282044Y-63650000D02*
X177082044Y-63450000D01*
X178575000Y-63650000D02*
X177282044Y-63650000D01*
X182000000Y-62600000D02*
X179625000Y-62600000D01*
X183100000Y-63700000D02*
X182000000Y-62600000D01*
X184200000Y-63700000D02*
X183100000Y-63700000D01*
X179625000Y-62600000D02*
X178575000Y-63650000D01*
X177082044Y-63450000D02*
X167262500Y-63450000D01*
%TO.N,I2C_SDA*%
X184000000Y-61200000D02*
X182000000Y-59200000D01*
X176025000Y-62800000D02*
X167262500Y-62800000D01*
X182000000Y-59200000D02*
X179625000Y-59200000D01*
X179625000Y-59200000D02*
X176025000Y-62800000D01*
X184200000Y-61200000D02*
X184000000Y-61200000D01*
%TO.N,Net-(R10-Pad2)*%
X156300000Y-86300000D02*
X153475000Y-83475000D01*
X149800000Y-86300000D02*
X153475000Y-82625000D01*
X153475000Y-82300000D02*
X153475000Y-78912500D01*
X153475000Y-83475000D02*
X153475000Y-82300000D01*
X153475000Y-82625000D02*
X153475000Y-82300000D01*
X153475000Y-78912500D02*
X153487500Y-78900000D01*
%TO.N,BTN_UP*%
X162650000Y-64750000D02*
X161537500Y-64750000D01*
X176600000Y-75550000D02*
X173450000Y-75550000D01*
X178512500Y-77462500D02*
X176600000Y-75550000D01*
X173450000Y-75550000D02*
X173300000Y-75400000D01*
X173300000Y-75400000D02*
X173300000Y-78700000D01*
X173300000Y-75400000D02*
X162650000Y-64750000D01*
X178512500Y-78912500D02*
X178512500Y-77462500D01*
%TO.N,Net-(R14-Pad2)*%
X176775000Y-83475000D02*
X179600000Y-86300000D01*
X176775000Y-82300000D02*
X176775000Y-82625000D01*
X176775000Y-82300000D02*
X176775000Y-83475000D01*
X176687500Y-81937500D02*
X176687500Y-78912500D01*
X176775000Y-82625000D02*
X173100000Y-86300000D01*
X176775000Y-82300000D02*
X176775000Y-82025000D01*
X176775000Y-82025000D02*
X176687500Y-81937500D01*
%TO.N,Net-(D2-A)*%
X142600000Y-57800000D02*
X142600000Y-63200000D01*
X142600000Y-63200000D02*
X144600000Y-65200000D01*
X145961262Y-65200000D02*
X144600000Y-65200000D01*
X152887500Y-58273762D02*
X145961262Y-65200000D01*
X152887500Y-57750000D02*
X152887500Y-58273762D01*
%TO.N,SWDIO*%
X179940000Y-55800000D02*
X178107106Y-55800000D01*
X178107106Y-55800000D02*
X171757106Y-62150000D01*
X181140000Y-54600000D02*
X179940000Y-55800000D01*
X171757106Y-62150000D02*
X167262500Y-62150000D01*
%TO.N,SWCLK*%
X178600000Y-54600000D02*
X171700000Y-61500000D01*
X171700000Y-61500000D02*
X167262500Y-61500000D01*
%TO.N,BTN_DOWN*%
X161800000Y-78700000D02*
X161800000Y-75500000D01*
X165200000Y-75500000D02*
X165200000Y-75800000D01*
X165200000Y-68325001D02*
X162274999Y-65400000D01*
X161700000Y-75400000D02*
X165100000Y-75400000D01*
X167112500Y-77712500D02*
X167112500Y-78800000D01*
X165200000Y-75800000D02*
X167112500Y-77712500D01*
X165200000Y-75500000D02*
X165200000Y-68325001D01*
X162274999Y-65400000D02*
X161537500Y-65400000D01*
X161800000Y-75500000D02*
X161700000Y-75400000D01*
X165100000Y-75400000D02*
X165200000Y-75500000D01*
%TO.N,FLUID_PUMP*%
X165800000Y-65400000D02*
X167262500Y-65400000D01*
X161264168Y-59200000D02*
X165000000Y-62935832D01*
X165000000Y-64600000D02*
X165800000Y-65400000D01*
X151150000Y-53550000D02*
X156800000Y-59200000D01*
X160000000Y-59200000D02*
X161264168Y-59200000D01*
X165000000Y-62935832D02*
X165000000Y-64600000D01*
X156800000Y-59200000D02*
X157628655Y-59200000D01*
X145887500Y-54600000D02*
X146937500Y-53550000D01*
X146937500Y-53550000D02*
X151150000Y-53550000D01*
%TO.N,Net-(J5-Pin_2)*%
X187900000Y-67180456D02*
X185080456Y-70000000D01*
X187900000Y-50200000D02*
X187900000Y-67180456D01*
X184000000Y-46300000D02*
X187900000Y-50200000D01*
X180025000Y-70000000D02*
X183600000Y-70000000D01*
X179625000Y-69600000D02*
X180025000Y-70000000D01*
X185080456Y-70000000D02*
X185000000Y-70000000D01*
%TO.N,Net-(R12-Pad2)*%
X165387500Y-83587500D02*
X168100000Y-86300000D01*
X165387500Y-78900000D02*
X165287500Y-78800000D01*
X165387500Y-82300000D02*
X165387500Y-83587500D01*
X165387500Y-82512500D02*
X161600000Y-86300000D01*
X165387500Y-82300000D02*
X165387500Y-78900000D01*
X165387500Y-82300000D02*
X165387500Y-82512500D01*
%TO.N,Net-(F1-Pad1)*%
D38*
X155125000Y-45000000D02*
X159000000Y-41125000D01*
X154250000Y-45000000D02*
X155125000Y-45000000D01*
%TO.N,Net-(Q1-G)*%
D37*
X149912500Y-56800000D02*
X148412500Y-58300000D01*
X148412500Y-58300000D02*
X147675000Y-58300000D01*
X149912500Y-56800000D02*
X147712500Y-54600000D01*
X151012500Y-56800000D02*
X149912500Y-56800000D01*
%TD*%
%TA.AperFunction,Conductor*%
%TO.N,GND*%
G36*
X156220295Y-83256087D02*
G01*
X156264642Y-83284588D01*
X158513181Y-85533127D01*
X158546666Y-85594450D01*
X158549500Y-85620808D01*
X158549500Y-92225500D01*
X158529815Y-92292539D01*
X158477011Y-92338294D01*
X158425500Y-92349500D01*
X157079466Y-92349500D01*
X157012427Y-92329815D01*
X156966672Y-92277011D01*
X156956728Y-92207853D01*
X156985753Y-92144297D01*
X157023171Y-92115015D01*
X157086163Y-92082918D01*
X157086169Y-92082914D01*
X157169104Y-92022658D01*
X157169105Y-92022658D01*
X156470233Y-91323787D01*
X156512292Y-91312518D01*
X156637708Y-91240110D01*
X156740110Y-91137708D01*
X156812518Y-91012292D01*
X156823787Y-90970234D01*
X157522658Y-91669105D01*
X157522658Y-91669104D01*
X157582914Y-91586169D01*
X157582918Y-91586163D01*
X157690102Y-91375802D01*
X157763065Y-91151247D01*
X157800000Y-90918052D01*
X157800000Y-90681947D01*
X157763065Y-90448752D01*
X157690102Y-90224197D01*
X157582914Y-90013828D01*
X157522658Y-89930894D01*
X157522658Y-89930893D01*
X156823787Y-90629765D01*
X156812518Y-90587708D01*
X156740110Y-90462292D01*
X156637708Y-90359890D01*
X156512292Y-90287482D01*
X156470234Y-90276212D01*
X157169105Y-89577340D01*
X157169104Y-89577338D01*
X157086174Y-89517087D01*
X156875802Y-89409897D01*
X156651247Y-89336934D01*
X156651248Y-89336934D01*
X156418052Y-89300000D01*
X156181948Y-89300000D01*
X155948752Y-89336934D01*
X155724197Y-89409897D01*
X155513830Y-89517084D01*
X155430894Y-89577340D01*
X156129766Y-90276212D01*
X156087708Y-90287482D01*
X155962292Y-90359890D01*
X155859890Y-90462292D01*
X155787482Y-90587708D01*
X155776212Y-90629766D01*
X155077340Y-89930894D01*
X155017084Y-90013830D01*
X154909897Y-90224197D01*
X154836934Y-90448752D01*
X154800000Y-90681947D01*
X154800000Y-90918052D01*
X154836934Y-91151247D01*
X154909897Y-91375802D01*
X155017087Y-91586174D01*
X155077338Y-91669104D01*
X155077340Y-91669105D01*
X155776212Y-90970233D01*
X155787482Y-91012292D01*
X155859890Y-91137708D01*
X155962292Y-91240110D01*
X156087708Y-91312518D01*
X156129765Y-91323787D01*
X155430893Y-92022658D01*
X155513828Y-92082914D01*
X155576829Y-92115015D01*
X155627625Y-92162990D01*
X155644420Y-92230811D01*
X155621883Y-92296946D01*
X155567168Y-92340397D01*
X155520534Y-92349500D01*
X150579466Y-92349500D01*
X150512427Y-92329815D01*
X150466672Y-92277011D01*
X150456728Y-92207853D01*
X150485753Y-92144297D01*
X150523171Y-92115015D01*
X150586163Y-92082918D01*
X150586169Y-92082914D01*
X150669104Y-92022658D01*
X150669105Y-92022658D01*
X149970233Y-91323787D01*
X150012292Y-91312518D01*
X150137708Y-91240110D01*
X150240110Y-91137708D01*
X150312518Y-91012292D01*
X150323787Y-90970233D01*
X151022658Y-91669105D01*
X151022658Y-91669104D01*
X151082914Y-91586169D01*
X151082918Y-91586163D01*
X151190102Y-91375802D01*
X151263065Y-91151247D01*
X151300000Y-90918052D01*
X151300000Y-90681947D01*
X151263065Y-90448752D01*
X151190102Y-90224197D01*
X151082914Y-90013828D01*
X151022658Y-89930894D01*
X151022658Y-89930893D01*
X150323787Y-90629765D01*
X150312518Y-90587708D01*
X150240110Y-90462292D01*
X150137708Y-90359890D01*
X150012292Y-90287482D01*
X149970234Y-90276212D01*
X150669105Y-89577340D01*
X150669104Y-89577339D01*
X150586174Y-89517087D01*
X150375802Y-89409897D01*
X150151247Y-89336934D01*
X150151248Y-89336934D01*
X149918052Y-89300000D01*
X149681948Y-89300000D01*
X149448752Y-89336934D01*
X149224197Y-89409897D01*
X149013830Y-89517084D01*
X148930894Y-89577340D01*
X149629766Y-90276212D01*
X149587708Y-90287482D01*
X149462292Y-90359890D01*
X149359890Y-90462292D01*
X149287482Y-90587708D01*
X149276212Y-90629765D01*
X148577340Y-89930894D01*
X148517084Y-90013830D01*
X148409897Y-90224197D01*
X148336934Y-90448752D01*
X148300000Y-90681947D01*
X148300000Y-90918052D01*
X148336934Y-91151247D01*
X148409897Y-91375802D01*
X148517087Y-91586174D01*
X148577338Y-91669104D01*
X148577340Y-91669105D01*
X149276212Y-90970233D01*
X149287482Y-91012292D01*
X149359890Y-91137708D01*
X149462292Y-91240110D01*
X149587708Y-91312518D01*
X149629765Y-91323787D01*
X148930893Y-92022658D01*
X149013828Y-92082914D01*
X149076829Y-92115015D01*
X149127625Y-92162990D01*
X149144420Y-92230811D01*
X149121883Y-92296946D01*
X149067168Y-92340397D01*
X149020534Y-92349500D01*
X148320807Y-92349500D01*
X148253768Y-92329815D01*
X148233131Y-92313185D01*
X148086816Y-92166871D01*
X148053334Y-92105550D01*
X148050500Y-92079192D01*
X148050500Y-85820807D01*
X148070185Y-85753768D01*
X148086814Y-85733130D01*
X148195101Y-85624843D01*
X148256423Y-85591360D01*
X148326115Y-85596344D01*
X148382048Y-85638216D01*
X148406465Y-85703680D01*
X148400712Y-85750844D01*
X148336447Y-85948627D01*
X148336447Y-85948630D01*
X148299500Y-86181902D01*
X148299500Y-86418097D01*
X148336446Y-86651368D01*
X148409433Y-86875996D01*
X148516657Y-87086433D01*
X148655483Y-87277510D01*
X148822490Y-87444517D01*
X149013567Y-87583343D01*
X149112991Y-87634002D01*
X149224003Y-87690566D01*
X149224005Y-87690566D01*
X149224008Y-87690568D01*
X149344412Y-87729689D01*
X149448631Y-87763553D01*
X149681903Y-87800500D01*
X149681908Y-87800500D01*
X149918097Y-87800500D01*
X150151368Y-87763553D01*
X150375992Y-87690568D01*
X150586433Y-87583343D01*
X150777510Y-87444517D01*
X150944517Y-87277510D01*
X151083343Y-87086433D01*
X151190568Y-86875992D01*
X151263553Y-86651368D01*
X151300500Y-86418097D01*
X151300500Y-86181902D01*
X151280347Y-86054666D01*
X151263553Y-85948632D01*
X151239888Y-85875802D01*
X151237894Y-85805963D01*
X151270137Y-85749807D01*
X152962322Y-84057623D01*
X153023641Y-84024141D01*
X153093333Y-84029125D01*
X153137680Y-84057626D01*
X154829859Y-85749805D01*
X154863344Y-85811128D01*
X154860109Y-85875803D01*
X154836447Y-85948628D01*
X154799500Y-86181902D01*
X154799500Y-86418097D01*
X154836446Y-86651368D01*
X154909433Y-86875996D01*
X155016657Y-87086433D01*
X155155483Y-87277510D01*
X155322490Y-87444517D01*
X155513567Y-87583343D01*
X155612991Y-87634002D01*
X155724003Y-87690566D01*
X155724005Y-87690566D01*
X155724008Y-87690568D01*
X155844412Y-87729689D01*
X155948631Y-87763553D01*
X156181903Y-87800500D01*
X156181908Y-87800500D01*
X156418097Y-87800500D01*
X156651368Y-87763553D01*
X156875992Y-87690568D01*
X157086433Y-87583343D01*
X157277510Y-87444517D01*
X157444517Y-87277510D01*
X157583343Y-87086433D01*
X157690568Y-86875992D01*
X157763553Y-86651368D01*
X157800500Y-86418097D01*
X157800500Y-86181902D01*
X157763553Y-85948631D01*
X157717197Y-85805963D01*
X157690568Y-85724008D01*
X157690566Y-85724005D01*
X157690566Y-85724003D01*
X157622980Y-85591360D01*
X157583343Y-85513567D01*
X157444517Y-85322490D01*
X157277510Y-85155483D01*
X157086433Y-85016657D01*
X157037792Y-84991873D01*
X156875996Y-84909433D01*
X156651368Y-84836446D01*
X156418097Y-84799500D01*
X156418092Y-84799500D01*
X156181908Y-84799500D01*
X156181903Y-84799500D01*
X155948628Y-84836447D01*
X155875803Y-84860109D01*
X155805962Y-84862104D01*
X155749805Y-84829859D01*
X154519958Y-83600012D01*
X154486473Y-83538689D01*
X154491457Y-83468997D01*
X154533329Y-83413064D01*
X154598793Y-83388647D01*
X154667066Y-83403499D01*
X154672716Y-83406780D01*
X154718166Y-83434814D01*
X154884703Y-83489999D01*
X154987491Y-83500500D01*
X155612508Y-83500499D01*
X155612516Y-83500498D01*
X155612519Y-83500498D01*
X155668802Y-83494748D01*
X155715297Y-83489999D01*
X155881834Y-83434814D01*
X156031156Y-83342712D01*
X156089280Y-83284588D01*
X156150603Y-83251103D01*
X156220295Y-83256087D01*
G37*
%TD.AperFunction*%
%TA.AperFunction,Conductor*%
G36*
X164893333Y-84029125D02*
G01*
X164937680Y-84057626D01*
X166629859Y-85749805D01*
X166663344Y-85811128D01*
X166660109Y-85875803D01*
X166636447Y-85948628D01*
X166599500Y-86181902D01*
X166599500Y-86418097D01*
X166636446Y-86651368D01*
X166709433Y-86875996D01*
X166816657Y-87086433D01*
X166955483Y-87277510D01*
X167122490Y-87444517D01*
X167313567Y-87583343D01*
X167412991Y-87634002D01*
X167524003Y-87690566D01*
X167524005Y-87690566D01*
X167524008Y-87690568D01*
X167644412Y-87729689D01*
X167748631Y-87763553D01*
X167981903Y-87800500D01*
X167981908Y-87800500D01*
X168218097Y-87800500D01*
X168451368Y-87763553D01*
X168675992Y-87690568D01*
X168886433Y-87583343D01*
X169077510Y-87444517D01*
X169244517Y-87277510D01*
X169244517Y-87277509D01*
X169247819Y-87274208D01*
X169309142Y-87240723D01*
X169378834Y-87245707D01*
X169434767Y-87287579D01*
X169459184Y-87353043D01*
X169459500Y-87361889D01*
X169459500Y-89807520D01*
X169439815Y-89874559D01*
X169387011Y-89920314D01*
X169325773Y-89931138D01*
X169322659Y-89930892D01*
X168623787Y-90629765D01*
X168612518Y-90587708D01*
X168540110Y-90462292D01*
X168437708Y-90359890D01*
X168312292Y-90287482D01*
X168270234Y-90276212D01*
X168969105Y-89577340D01*
X168969104Y-89577338D01*
X168886174Y-89517087D01*
X168675802Y-89409897D01*
X168451247Y-89336934D01*
X168451248Y-89336934D01*
X168218052Y-89300000D01*
X167981948Y-89300000D01*
X167748752Y-89336934D01*
X167524197Y-89409897D01*
X167313830Y-89517084D01*
X167230894Y-89577340D01*
X167929766Y-90276212D01*
X167887708Y-90287482D01*
X167762292Y-90359890D01*
X167659890Y-90462292D01*
X167587482Y-90587708D01*
X167576212Y-90629766D01*
X166877340Y-89930894D01*
X166817084Y-90013830D01*
X166709897Y-90224197D01*
X166636934Y-90448752D01*
X166600000Y-90681947D01*
X166600000Y-90918052D01*
X166636934Y-91151247D01*
X166709897Y-91375802D01*
X166817087Y-91586174D01*
X166877338Y-91669104D01*
X166877340Y-91669105D01*
X167576212Y-90970233D01*
X167587482Y-91012292D01*
X167659890Y-91137708D01*
X167762292Y-91240110D01*
X167887708Y-91312518D01*
X167929765Y-91323787D01*
X167230893Y-92022658D01*
X167313828Y-92082914D01*
X167376829Y-92115015D01*
X167427625Y-92162990D01*
X167444420Y-92230811D01*
X167421883Y-92296946D01*
X167367168Y-92340397D01*
X167320534Y-92349500D01*
X162379466Y-92349500D01*
X162312427Y-92329815D01*
X162266672Y-92277011D01*
X162256728Y-92207853D01*
X162285753Y-92144297D01*
X162323171Y-92115015D01*
X162386163Y-92082918D01*
X162386169Y-92082914D01*
X162469104Y-92022658D01*
X162469105Y-92022658D01*
X161770233Y-91323787D01*
X161812292Y-91312518D01*
X161937708Y-91240110D01*
X162040110Y-91137708D01*
X162112518Y-91012292D01*
X162123787Y-90970234D01*
X162822658Y-91669105D01*
X162822658Y-91669104D01*
X162882914Y-91586169D01*
X162882918Y-91586163D01*
X162990102Y-91375802D01*
X163063065Y-91151247D01*
X163100000Y-90918052D01*
X163100000Y-90681947D01*
X163063065Y-90448752D01*
X162990102Y-90224197D01*
X162882914Y-90013828D01*
X162822658Y-89930894D01*
X162822658Y-89930893D01*
X162123787Y-90629765D01*
X162112518Y-90587708D01*
X162040110Y-90462292D01*
X161937708Y-90359890D01*
X161812292Y-90287482D01*
X161770234Y-90276212D01*
X162469105Y-89577340D01*
X162469104Y-89577339D01*
X162386174Y-89517087D01*
X162175802Y-89409897D01*
X161951247Y-89336934D01*
X161951248Y-89336934D01*
X161718052Y-89300000D01*
X161481948Y-89300000D01*
X161248752Y-89336934D01*
X161024197Y-89409897D01*
X160813830Y-89517084D01*
X160730894Y-89577340D01*
X161429766Y-90276212D01*
X161387708Y-90287482D01*
X161262292Y-90359890D01*
X161159890Y-90462292D01*
X161087482Y-90587708D01*
X161076212Y-90629765D01*
X160377340Y-89930894D01*
X160317084Y-90013830D01*
X160209897Y-90224197D01*
X160136934Y-90448752D01*
X160100000Y-90681947D01*
X160100000Y-90918052D01*
X160136934Y-91151247D01*
X160209897Y-91375802D01*
X160317087Y-91586174D01*
X160377338Y-91669104D01*
X160377340Y-91669105D01*
X161076212Y-90970233D01*
X161087482Y-91012292D01*
X161159890Y-91137708D01*
X161262292Y-91240110D01*
X161387708Y-91312518D01*
X161429765Y-91323787D01*
X160730893Y-92022658D01*
X160813828Y-92082914D01*
X160876829Y-92115015D01*
X160927625Y-92162990D01*
X160944420Y-92230811D01*
X160921883Y-92296946D01*
X160867168Y-92340397D01*
X160820534Y-92349500D01*
X160320808Y-92349500D01*
X160253769Y-92329815D01*
X160233127Y-92313181D01*
X160014674Y-92094727D01*
X160014671Y-92094724D01*
X159905609Y-92021852D01*
X159860804Y-91968240D01*
X159850500Y-91918750D01*
X159850500Y-85620807D01*
X159870185Y-85553768D01*
X159886814Y-85533130D01*
X160939882Y-84480062D01*
X161001203Y-84446579D01*
X161040158Y-84444387D01*
X161099991Y-84450500D01*
X162230191Y-84450499D01*
X162297230Y-84470184D01*
X162342985Y-84522987D01*
X162352929Y-84592146D01*
X162323904Y-84655702D01*
X162317872Y-84662180D01*
X162150193Y-84829859D01*
X162088870Y-84863344D01*
X162024194Y-84860109D01*
X161951370Y-84836447D01*
X161718097Y-84799500D01*
X161718092Y-84799500D01*
X161481908Y-84799500D01*
X161481903Y-84799500D01*
X161248631Y-84836446D01*
X161024003Y-84909433D01*
X160813566Y-85016657D01*
X160775982Y-85043964D01*
X160622490Y-85155483D01*
X160622488Y-85155485D01*
X160622487Y-85155485D01*
X160455485Y-85322487D01*
X160455485Y-85322488D01*
X160455483Y-85322490D01*
X160395862Y-85404550D01*
X160316657Y-85513566D01*
X160209433Y-85724003D01*
X160136446Y-85948631D01*
X160099500Y-86181902D01*
X160099500Y-86418097D01*
X160136446Y-86651368D01*
X160209433Y-86875996D01*
X160316657Y-87086433D01*
X160455483Y-87277510D01*
X160622490Y-87444517D01*
X160813567Y-87583343D01*
X160912991Y-87634002D01*
X161024003Y-87690566D01*
X161024005Y-87690566D01*
X161024008Y-87690568D01*
X161144412Y-87729689D01*
X161248631Y-87763553D01*
X161481903Y-87800500D01*
X161481908Y-87800500D01*
X161718097Y-87800500D01*
X161951368Y-87763553D01*
X162175992Y-87690568D01*
X162386433Y-87583343D01*
X162577510Y-87444517D01*
X162744517Y-87277510D01*
X162883343Y-87086433D01*
X162990568Y-86875992D01*
X163063553Y-86651368D01*
X163100500Y-86418097D01*
X163100500Y-86181902D01*
X163080347Y-86054666D01*
X163063553Y-85948632D01*
X163039888Y-85875802D01*
X163037894Y-85805963D01*
X163070137Y-85749807D01*
X164762320Y-84057624D01*
X164823641Y-84024141D01*
X164893333Y-84029125D01*
G37*
%TD.AperFunction*%
%TA.AperFunction,Conductor*%
G36*
X169322658Y-91669104D02*
G01*
X169325771Y-91668860D01*
X169394148Y-91683224D01*
X169443905Y-91732276D01*
X169459500Y-91792478D01*
X169459500Y-92174071D01*
X169464918Y-92201308D01*
X169458691Y-92270899D01*
X169415829Y-92326077D01*
X169349939Y-92349322D01*
X169343301Y-92349500D01*
X168879466Y-92349500D01*
X168812427Y-92329815D01*
X168766672Y-92277011D01*
X168756728Y-92207853D01*
X168785753Y-92144297D01*
X168823171Y-92115015D01*
X168886163Y-92082918D01*
X168886169Y-92082914D01*
X168969104Y-92022658D01*
X168969105Y-92022658D01*
X168270233Y-91323787D01*
X168312292Y-91312518D01*
X168437708Y-91240110D01*
X168540110Y-91137708D01*
X168612518Y-91012292D01*
X168623787Y-90970233D01*
X169322658Y-91669104D01*
G37*
%TD.AperFunction*%
%TA.AperFunction,Conductor*%
G36*
X176393333Y-84029125D02*
G01*
X176437680Y-84057626D01*
X178129859Y-85749805D01*
X178163344Y-85811128D01*
X178160109Y-85875803D01*
X178136447Y-85948628D01*
X178099500Y-86181902D01*
X178099500Y-86418097D01*
X178136446Y-86651368D01*
X178209433Y-86875996D01*
X178316657Y-87086433D01*
X178455483Y-87277510D01*
X178622490Y-87444517D01*
X178813567Y-87583343D01*
X178912991Y-87634002D01*
X179024003Y-87690566D01*
X179024005Y-87690566D01*
X179024008Y-87690568D01*
X179144412Y-87729689D01*
X179248631Y-87763553D01*
X179481903Y-87800500D01*
X179481908Y-87800500D01*
X179718097Y-87800500D01*
X179951368Y-87763553D01*
X180175992Y-87690568D01*
X180386433Y-87583343D01*
X180577510Y-87444517D01*
X180737819Y-87284208D01*
X180799142Y-87250723D01*
X180868834Y-87255707D01*
X180924767Y-87297579D01*
X180949184Y-87363043D01*
X180949500Y-87371889D01*
X180949500Y-89806733D01*
X180929815Y-89873772D01*
X180877011Y-89919527D01*
X180824795Y-89928756D01*
X180123787Y-90629765D01*
X180112518Y-90587708D01*
X180040110Y-90462292D01*
X179937708Y-90359890D01*
X179812292Y-90287482D01*
X179770234Y-90276212D01*
X180469105Y-89577340D01*
X180469104Y-89577338D01*
X180386174Y-89517087D01*
X180175802Y-89409897D01*
X179951247Y-89336934D01*
X179951248Y-89336934D01*
X179718052Y-89300000D01*
X179481948Y-89300000D01*
X179248752Y-89336934D01*
X179024197Y-89409897D01*
X178813830Y-89517084D01*
X178730894Y-89577340D01*
X179429766Y-90276212D01*
X179387708Y-90287482D01*
X179262292Y-90359890D01*
X179159890Y-90462292D01*
X179087482Y-90587708D01*
X179076212Y-90629765D01*
X178377340Y-89930894D01*
X178317084Y-90013830D01*
X178209897Y-90224197D01*
X178136934Y-90448752D01*
X178100000Y-90681947D01*
X178100000Y-90918052D01*
X178136934Y-91151247D01*
X178209897Y-91375802D01*
X178317087Y-91586174D01*
X178377338Y-91669104D01*
X178377340Y-91669105D01*
X179076212Y-90970233D01*
X179087482Y-91012292D01*
X179159890Y-91137708D01*
X179262292Y-91240110D01*
X179387708Y-91312518D01*
X179429765Y-91323787D01*
X178730893Y-92022658D01*
X178813828Y-92082914D01*
X178876829Y-92115015D01*
X178927625Y-92162990D01*
X178944420Y-92230811D01*
X178921883Y-92296946D01*
X178867168Y-92340397D01*
X178820534Y-92349500D01*
X173879466Y-92349500D01*
X173812427Y-92329815D01*
X173766672Y-92277011D01*
X173756728Y-92207853D01*
X173785753Y-92144297D01*
X173823171Y-92115015D01*
X173886163Y-92082918D01*
X173886169Y-92082914D01*
X173969104Y-92022658D01*
X173969105Y-92022658D01*
X173270233Y-91323787D01*
X173312292Y-91312518D01*
X173437708Y-91240110D01*
X173540110Y-91137708D01*
X173612518Y-91012292D01*
X173623787Y-90970234D01*
X174322658Y-91669105D01*
X174322658Y-91669104D01*
X174382914Y-91586169D01*
X174382918Y-91586163D01*
X174490102Y-91375802D01*
X174563065Y-91151247D01*
X174600000Y-90918052D01*
X174600000Y-90681947D01*
X174563065Y-90448752D01*
X174490102Y-90224197D01*
X174382914Y-90013828D01*
X174322658Y-89930894D01*
X174322658Y-89930893D01*
X173623787Y-90629765D01*
X173612518Y-90587708D01*
X173540110Y-90462292D01*
X173437708Y-90359890D01*
X173312292Y-90287482D01*
X173270234Y-90276212D01*
X173969105Y-89577340D01*
X173969104Y-89577339D01*
X173886174Y-89517087D01*
X173675802Y-89409897D01*
X173451247Y-89336934D01*
X173451248Y-89336934D01*
X173218052Y-89300000D01*
X172981948Y-89300000D01*
X172748752Y-89336934D01*
X172524197Y-89409897D01*
X172313830Y-89517084D01*
X172230894Y-89577340D01*
X172929766Y-90276212D01*
X172887708Y-90287482D01*
X172762292Y-90359890D01*
X172659890Y-90462292D01*
X172587482Y-90587708D01*
X172576212Y-90629766D01*
X171877340Y-89930894D01*
X171817084Y-90013830D01*
X171709897Y-90224197D01*
X171636934Y-90448752D01*
X171600000Y-90681947D01*
X171600000Y-90918052D01*
X171636934Y-91151247D01*
X171709897Y-91375802D01*
X171817087Y-91586174D01*
X171877338Y-91669104D01*
X171877340Y-91669105D01*
X172576212Y-90970233D01*
X172587482Y-91012292D01*
X172659890Y-91137708D01*
X172762292Y-91240110D01*
X172887708Y-91312518D01*
X172929765Y-91323787D01*
X172230893Y-92022658D01*
X172313828Y-92082914D01*
X172376829Y-92115015D01*
X172427625Y-92162990D01*
X172444420Y-92230811D01*
X172421883Y-92296946D01*
X172367168Y-92340397D01*
X172320534Y-92349500D01*
X171320808Y-92349500D01*
X171253769Y-92329815D01*
X171233127Y-92313181D01*
X170796819Y-91876873D01*
X170763334Y-91815550D01*
X170760500Y-91789192D01*
X170760500Y-86210808D01*
X170780185Y-86143769D01*
X170796819Y-86123127D01*
X171305277Y-85614669D01*
X171484018Y-85435928D01*
X172439882Y-84480062D01*
X172501203Y-84446579D01*
X172540158Y-84444387D01*
X172599991Y-84450500D01*
X173730191Y-84450499D01*
X173797230Y-84470184D01*
X173842985Y-84522987D01*
X173852929Y-84592146D01*
X173823904Y-84655702D01*
X173817872Y-84662180D01*
X173650193Y-84829859D01*
X173588870Y-84863344D01*
X173524194Y-84860109D01*
X173451370Y-84836447D01*
X173218097Y-84799500D01*
X173218092Y-84799500D01*
X172981908Y-84799500D01*
X172981903Y-84799500D01*
X172748631Y-84836446D01*
X172524003Y-84909433D01*
X172313566Y-85016657D01*
X172275982Y-85043964D01*
X172122490Y-85155483D01*
X172122488Y-85155485D01*
X172122487Y-85155485D01*
X171955485Y-85322487D01*
X171955485Y-85322488D01*
X171955483Y-85322490D01*
X171895862Y-85404550D01*
X171816657Y-85513566D01*
X171709433Y-85724003D01*
X171636446Y-85948631D01*
X171599500Y-86181902D01*
X171599500Y-86418097D01*
X171636446Y-86651368D01*
X171709433Y-86875996D01*
X171816657Y-87086433D01*
X171955483Y-87277510D01*
X172122490Y-87444517D01*
X172313567Y-87583343D01*
X172412991Y-87634002D01*
X172524003Y-87690566D01*
X172524005Y-87690566D01*
X172524008Y-87690568D01*
X172644412Y-87729689D01*
X172748631Y-87763553D01*
X172981903Y-87800500D01*
X172981908Y-87800500D01*
X173218097Y-87800500D01*
X173451368Y-87763553D01*
X173675992Y-87690568D01*
X173886433Y-87583343D01*
X174077510Y-87444517D01*
X174244517Y-87277510D01*
X174383343Y-87086433D01*
X174490568Y-86875992D01*
X174563553Y-86651368D01*
X174600500Y-86418097D01*
X174600500Y-86181902D01*
X174580347Y-86054666D01*
X174563553Y-85948632D01*
X174539888Y-85875802D01*
X174537894Y-85805963D01*
X174570137Y-85749807D01*
X176262322Y-84057623D01*
X176323641Y-84024141D01*
X176393333Y-84029125D01*
G37*
%TD.AperFunction*%
%TA.AperFunction,Conductor*%
G36*
X180825175Y-91671622D02*
G01*
X180884148Y-91684011D01*
X180933905Y-91733063D01*
X180949500Y-91793265D01*
X180949500Y-92079192D01*
X180929815Y-92146231D01*
X180913181Y-92166873D01*
X180766873Y-92313181D01*
X180705550Y-92346666D01*
X180679192Y-92349500D01*
X180379466Y-92349500D01*
X180312427Y-92329815D01*
X180266672Y-92277011D01*
X180256728Y-92207853D01*
X180285753Y-92144297D01*
X180323171Y-92115015D01*
X180386163Y-92082918D01*
X180386169Y-92082914D01*
X180469104Y-92022658D01*
X180469105Y-92022658D01*
X179770233Y-91323787D01*
X179812292Y-91312518D01*
X179937708Y-91240110D01*
X180040110Y-91137708D01*
X180112518Y-91012292D01*
X180123787Y-90970233D01*
X180825175Y-91671622D01*
G37*
%TD.AperFunction*%
%TA.AperFunction,Conductor*%
G36*
X166055703Y-69076095D02*
G01*
X166062181Y-69082127D01*
X171863181Y-74883127D01*
X171896666Y-74944450D01*
X171899500Y-74970808D01*
X171899500Y-76450001D01*
X171899501Y-76450018D01*
X171910000Y-76552796D01*
X171910001Y-76552799D01*
X171965185Y-76719331D01*
X171965187Y-76719336D01*
X171991246Y-76761584D01*
X172048478Y-76854373D01*
X172057289Y-76868657D01*
X172150951Y-76962319D01*
X172184436Y-77023642D01*
X172179452Y-77093334D01*
X172150951Y-77137681D01*
X172057289Y-77231342D01*
X171965187Y-77380663D01*
X171965185Y-77380668D01*
X171948393Y-77431344D01*
X171910001Y-77547203D01*
X171910001Y-77547204D01*
X171910000Y-77547204D01*
X171899500Y-77649983D01*
X171899500Y-79750001D01*
X171899501Y-79750018D01*
X171910000Y-79852796D01*
X171910001Y-79852799D01*
X171965185Y-80019331D01*
X171965187Y-80019336D01*
X171996053Y-80069377D01*
X172057288Y-80168656D01*
X172181344Y-80292712D01*
X172330666Y-80384814D01*
X172497203Y-80439999D01*
X172599991Y-80450500D01*
X174000008Y-80450499D01*
X174102797Y-80439999D01*
X174269334Y-80384814D01*
X174418656Y-80292712D01*
X174542712Y-80168656D01*
X174634814Y-80019334D01*
X174689999Y-79852797D01*
X174700500Y-79750009D01*
X174700499Y-77649992D01*
X174693417Y-77580668D01*
X174689999Y-77547203D01*
X174689998Y-77547200D01*
X174660092Y-77456950D01*
X174634814Y-77380666D01*
X174542712Y-77231344D01*
X174449049Y-77137681D01*
X174415564Y-77076358D01*
X174420548Y-77006666D01*
X174449049Y-76962319D01*
X174488613Y-76922755D01*
X174542712Y-76868656D01*
X174634814Y-76719334D01*
X174689999Y-76552797D01*
X174700500Y-76450009D01*
X174700500Y-76324500D01*
X174720185Y-76257461D01*
X174772989Y-76211706D01*
X174824500Y-76200500D01*
X175527983Y-76200500D01*
X175595022Y-76220185D01*
X175640777Y-76272989D01*
X175645686Y-76285489D01*
X175665186Y-76344334D01*
X175757288Y-76493656D01*
X175881344Y-76617712D01*
X176030666Y-76709814D01*
X176197203Y-76764999D01*
X176299991Y-76775500D01*
X176854191Y-76775499D01*
X176921230Y-76795183D01*
X176941872Y-76811818D01*
X177805594Y-77675540D01*
X177839079Y-77736863D01*
X177834095Y-77806555D01*
X177803530Y-77852919D01*
X177794099Y-77861920D01*
X177781344Y-77869788D01*
X177686650Y-77964481D01*
X177685617Y-77965468D01*
X177655783Y-77980868D01*
X177626358Y-77996936D01*
X177624864Y-77996829D01*
X177623532Y-77997517D01*
X177590128Y-77994345D01*
X177556666Y-77991952D01*
X177555233Y-77991031D01*
X177553975Y-77990912D01*
X177549149Y-77987121D01*
X177512319Y-77963451D01*
X177418657Y-77869789D01*
X177418656Y-77869788D01*
X177269334Y-77777686D01*
X177102797Y-77722501D01*
X177102795Y-77722500D01*
X177000010Y-77712000D01*
X176374998Y-77712000D01*
X176374980Y-77712001D01*
X176272203Y-77722500D01*
X176272200Y-77722501D01*
X176105668Y-77777685D01*
X176105663Y-77777687D01*
X175956342Y-77869789D01*
X175832289Y-77993842D01*
X175740187Y-78143163D01*
X175740185Y-78143168D01*
X175712349Y-78227170D01*
X175685001Y-78309703D01*
X175685001Y-78309704D01*
X175685000Y-78309704D01*
X175674500Y-78412483D01*
X175674500Y-79412501D01*
X175674501Y-79412519D01*
X175685000Y-79515296D01*
X175685001Y-79515299D01*
X175721610Y-79625776D01*
X175740186Y-79681834D01*
X175832288Y-79831156D01*
X175956344Y-79955212D01*
X175978094Y-79968627D01*
X176024820Y-80020573D01*
X176037000Y-80074167D01*
X176037000Y-81212770D01*
X176017315Y-81279809D01*
X176000681Y-81300451D01*
X175919789Y-81381342D01*
X175827687Y-81530663D01*
X175827685Y-81530668D01*
X175811117Y-81580668D01*
X175772501Y-81697203D01*
X175772501Y-81697204D01*
X175772500Y-81697204D01*
X175762000Y-81799983D01*
X175762000Y-82666691D01*
X175742315Y-82733730D01*
X175725681Y-82754372D01*
X174912180Y-83567872D01*
X174850857Y-83601357D01*
X174781165Y-83596373D01*
X174725232Y-83554501D01*
X174700815Y-83489037D01*
X174700499Y-83480215D01*
X174700499Y-81649992D01*
X174693940Y-81585788D01*
X174689999Y-81547203D01*
X174689998Y-81547200D01*
X174684518Y-81530663D01*
X174634814Y-81380666D01*
X174542712Y-81231344D01*
X174418656Y-81107288D01*
X174269334Y-81015186D01*
X174102797Y-80960001D01*
X174102795Y-80960000D01*
X174000010Y-80949500D01*
X172599998Y-80949500D01*
X172599981Y-80949501D01*
X172497203Y-80960000D01*
X172497200Y-80960001D01*
X172330668Y-81015185D01*
X172330663Y-81015187D01*
X172181342Y-81107289D01*
X172057289Y-81231342D01*
X171965187Y-81380663D01*
X171965185Y-81380668D01*
X171948393Y-81431344D01*
X171910001Y-81547203D01*
X171910001Y-81547204D01*
X171910000Y-81547204D01*
X171899500Y-81649983D01*
X171899500Y-83129191D01*
X171879815Y-83196230D01*
X171863181Y-83216872D01*
X170566873Y-84513181D01*
X170505550Y-84546666D01*
X170479192Y-84549500D01*
X170433308Y-84549500D01*
X170366269Y-84529815D01*
X170345627Y-84513181D01*
X168261818Y-82429372D01*
X168228333Y-82368049D01*
X168225499Y-82341691D01*
X168225499Y-81799998D01*
X168225498Y-81799981D01*
X168214999Y-81697203D01*
X168214998Y-81697200D01*
X168194723Y-81636015D01*
X168159814Y-81530666D01*
X168067712Y-81381344D01*
X167943656Y-81257288D01*
X167834404Y-81189901D01*
X167794336Y-81165187D01*
X167794331Y-81165185D01*
X167773825Y-81158390D01*
X167627797Y-81110001D01*
X167627795Y-81110000D01*
X167525010Y-81099500D01*
X166899998Y-81099500D01*
X166899980Y-81099501D01*
X166797203Y-81110000D01*
X166797200Y-81110001D01*
X166630668Y-81165185D01*
X166630663Y-81165187D01*
X166481342Y-81257289D01*
X166387681Y-81350951D01*
X166326358Y-81384436D01*
X166256666Y-81379452D01*
X166216777Y-81355193D01*
X166214494Y-81353126D01*
X166118656Y-81257288D01*
X166087220Y-81237898D01*
X166078777Y-81230254D01*
X166066236Y-81209774D01*
X166050177Y-81191918D01*
X166047152Y-81178606D01*
X166042291Y-81170668D01*
X166042558Y-81158390D01*
X166038000Y-81138331D01*
X166038000Y-79874730D01*
X166057685Y-79807691D01*
X166074319Y-79787049D01*
X166112319Y-79749049D01*
X166173642Y-79715564D01*
X166243334Y-79720548D01*
X166287681Y-79749049D01*
X166381344Y-79842712D01*
X166530666Y-79934814D01*
X166697203Y-79989999D01*
X166799991Y-80000500D01*
X167425008Y-80000499D01*
X167425016Y-80000498D01*
X167425019Y-80000498D01*
X167481302Y-79994748D01*
X167527797Y-79989999D01*
X167694334Y-79934814D01*
X167843656Y-79842712D01*
X167967712Y-79718656D01*
X168059814Y-79569334D01*
X168114999Y-79402797D01*
X168125500Y-79300009D01*
X168125499Y-78299992D01*
X168114999Y-78197203D01*
X168059814Y-78030666D01*
X167967712Y-77881344D01*
X167843656Y-77757288D01*
X167843655Y-77757287D01*
X167821481Y-77743610D01*
X167774757Y-77691661D01*
X167764338Y-77654376D01*
X167764189Y-77654406D01*
X167763798Y-77652441D01*
X167763175Y-77650211D01*
X167762999Y-77648425D01*
X167738002Y-77522761D01*
X167738001Y-77522760D01*
X167738001Y-77522756D01*
X167688965Y-77404373D01*
X167654133Y-77352243D01*
X167654133Y-77352242D01*
X167617777Y-77297831D01*
X167617771Y-77297824D01*
X167256626Y-76936680D01*
X167223141Y-76875357D01*
X167228125Y-76805666D01*
X167269996Y-76749732D01*
X167335461Y-76725315D01*
X167344307Y-76724999D01*
X167399972Y-76724999D01*
X167399986Y-76724998D01*
X167502697Y-76714505D01*
X167669119Y-76659358D01*
X167669124Y-76659356D01*
X167818345Y-76567315D01*
X167942315Y-76443345D01*
X168034356Y-76294124D01*
X168034358Y-76294119D01*
X168089505Y-76127697D01*
X168089506Y-76127690D01*
X168099999Y-76024986D01*
X168100000Y-76024973D01*
X168100000Y-75750000D01*
X167224000Y-75750000D01*
X167156961Y-75730315D01*
X167111206Y-75677511D01*
X167100000Y-75626000D01*
X167100000Y-75500000D01*
X166974000Y-75500000D01*
X166906961Y-75480315D01*
X166861206Y-75427511D01*
X166850000Y-75376000D01*
X166850000Y-75250000D01*
X167350000Y-75250000D01*
X168099999Y-75250000D01*
X168099999Y-74975028D01*
X168099998Y-74975013D01*
X168089505Y-74872302D01*
X168034358Y-74705880D01*
X168034356Y-74705875D01*
X167942315Y-74556654D01*
X167818345Y-74432684D01*
X167669124Y-74340643D01*
X167669119Y-74340641D01*
X167502697Y-74285494D01*
X167502690Y-74285493D01*
X167399986Y-74275000D01*
X167350000Y-74275000D01*
X167350000Y-75250000D01*
X166850000Y-75250000D01*
X166850000Y-74275000D01*
X166849999Y-74274999D01*
X166800029Y-74275000D01*
X166800011Y-74275001D01*
X166697302Y-74285494D01*
X166530880Y-74340641D01*
X166530875Y-74340643D01*
X166381654Y-74432684D01*
X166257683Y-74556655D01*
X166257679Y-74556660D01*
X166255826Y-74559665D01*
X166254018Y-74561290D01*
X166253202Y-74562323D01*
X166253025Y-74562183D01*
X166203874Y-74606385D01*
X166134911Y-74617601D01*
X166070831Y-74589752D01*
X166063185Y-74582810D01*
X166052579Y-74572341D01*
X166042712Y-74556344D01*
X165918656Y-74432288D01*
X165897415Y-74419186D01*
X165887392Y-74409293D01*
X165877003Y-74390559D01*
X165862678Y-74374632D01*
X165858863Y-74357847D01*
X165853508Y-74348189D01*
X165854210Y-74337371D01*
X165850500Y-74321042D01*
X165850500Y-69169808D01*
X165870185Y-69102769D01*
X165922989Y-69057014D01*
X165992147Y-69047070D01*
X166055703Y-69076095D01*
G37*
%TD.AperFunction*%
%TA.AperFunction,Conductor*%
G36*
X162911311Y-66961706D02*
G01*
X162935720Y-66980667D01*
X164513181Y-68558128D01*
X164546666Y-68619451D01*
X164549500Y-68645809D01*
X164549500Y-74321042D01*
X164529815Y-74388081D01*
X164490598Y-74426580D01*
X164481344Y-74432287D01*
X164357289Y-74556342D01*
X164354237Y-74561290D01*
X164282861Y-74677011D01*
X164274481Y-74690597D01*
X164222533Y-74737321D01*
X164168942Y-74749500D01*
X163224499Y-74749500D01*
X163157460Y-74729815D01*
X163111705Y-74677011D01*
X163100499Y-74625500D01*
X163100499Y-74349998D01*
X163100498Y-74349981D01*
X163089999Y-74247203D01*
X163089998Y-74247200D01*
X163081330Y-74221042D01*
X163034814Y-74080666D01*
X162942712Y-73931344D01*
X162818656Y-73807288D01*
X162669334Y-73715186D01*
X162502797Y-73660001D01*
X162502795Y-73660000D01*
X162400010Y-73649500D01*
X160999998Y-73649500D01*
X160999981Y-73649501D01*
X160897203Y-73660000D01*
X160897200Y-73660001D01*
X160730668Y-73715185D01*
X160730663Y-73715187D01*
X160581342Y-73807289D01*
X160457289Y-73931342D01*
X160365187Y-74080663D01*
X160365186Y-74080666D01*
X160310001Y-74247203D01*
X160310001Y-74247204D01*
X160310000Y-74247204D01*
X160299500Y-74349983D01*
X160299500Y-76450001D01*
X160299501Y-76450018D01*
X160310000Y-76552796D01*
X160310001Y-76552799D01*
X160365185Y-76719331D01*
X160365187Y-76719336D01*
X160391246Y-76761584D01*
X160448478Y-76854373D01*
X160457289Y-76868657D01*
X160581343Y-76992711D01*
X160587011Y-76997193D01*
X160586087Y-76998360D01*
X160627310Y-77044195D01*
X160638530Y-77113158D01*
X160610684Y-77177239D01*
X160603169Y-77185462D01*
X160557289Y-77231342D01*
X160465187Y-77380663D01*
X160465185Y-77380668D01*
X160448393Y-77431344D01*
X160410001Y-77547203D01*
X160410001Y-77547204D01*
X160410000Y-77547204D01*
X160399500Y-77649983D01*
X160399500Y-79750001D01*
X160399501Y-79750018D01*
X160410000Y-79852796D01*
X160410001Y-79852799D01*
X160465185Y-80019331D01*
X160465187Y-80019336D01*
X160496053Y-80069377D01*
X160557288Y-80168656D01*
X160681344Y-80292712D01*
X160830666Y-80384814D01*
X160997203Y-80439999D01*
X161099991Y-80450500D01*
X162500008Y-80450499D01*
X162602797Y-80439999D01*
X162769334Y-80384814D01*
X162918656Y-80292712D01*
X163042712Y-80168656D01*
X163134814Y-80019334D01*
X163189999Y-79852797D01*
X163200500Y-79750009D01*
X163200499Y-77649992D01*
X163193417Y-77580668D01*
X163189999Y-77547203D01*
X163189998Y-77547200D01*
X163160092Y-77456950D01*
X163134814Y-77380666D01*
X163042712Y-77231344D01*
X162918656Y-77107288D01*
X162912989Y-77102807D01*
X162913911Y-77101640D01*
X162872686Y-77055798D01*
X162861470Y-76986834D01*
X162889319Y-76922755D01*
X162896821Y-76914546D01*
X162942712Y-76868656D01*
X163034814Y-76719334D01*
X163089999Y-76552797D01*
X163100500Y-76450009D01*
X163100500Y-76174500D01*
X163120185Y-76107461D01*
X163172989Y-76061706D01*
X163224500Y-76050500D01*
X164094846Y-76050500D01*
X164161885Y-76070185D01*
X164207640Y-76122989D01*
X164212552Y-76135495D01*
X164265186Y-76294334D01*
X164357288Y-76443656D01*
X164481344Y-76567712D01*
X164630666Y-76659814D01*
X164797203Y-76714999D01*
X164899991Y-76725500D01*
X165154191Y-76725499D01*
X165221230Y-76745183D01*
X165241872Y-76761818D01*
X165912018Y-77431964D01*
X165945503Y-77493287D01*
X165940519Y-77562979D01*
X165898647Y-77618912D01*
X165833183Y-77643329D01*
X165785334Y-77637351D01*
X165702797Y-77610001D01*
X165702795Y-77610000D01*
X165600010Y-77599500D01*
X164974998Y-77599500D01*
X164974980Y-77599501D01*
X164872203Y-77610000D01*
X164872200Y-77610001D01*
X164705668Y-77665185D01*
X164705663Y-77665187D01*
X164556342Y-77757289D01*
X164432289Y-77881342D01*
X164340187Y-78030663D01*
X164340185Y-78030668D01*
X164312349Y-78114670D01*
X164285001Y-78197203D01*
X164285001Y-78197204D01*
X164285000Y-78197204D01*
X164274500Y-78299983D01*
X164274500Y-79300001D01*
X164274501Y-79300019D01*
X164285000Y-79402796D01*
X164285001Y-79402799D01*
X164340185Y-79569331D01*
X164340186Y-79569334D01*
X164432288Y-79718656D01*
X164556344Y-79842712D01*
X164678097Y-79917809D01*
X164724821Y-79969755D01*
X164737000Y-80023347D01*
X164737000Y-81138331D01*
X164717315Y-81205370D01*
X164678100Y-81243868D01*
X164656343Y-81257288D01*
X164532289Y-81381342D01*
X164440187Y-81530663D01*
X164440185Y-81530668D01*
X164423617Y-81580668D01*
X164385001Y-81697203D01*
X164385001Y-81697204D01*
X164385000Y-81697204D01*
X164374500Y-81799983D01*
X164374500Y-82554191D01*
X164354815Y-82621230D01*
X164338181Y-82641872D01*
X163412180Y-83567872D01*
X163350857Y-83601357D01*
X163281165Y-83596373D01*
X163225232Y-83554501D01*
X163200815Y-83489037D01*
X163200499Y-83480215D01*
X163200499Y-81649992D01*
X163193940Y-81585788D01*
X163189999Y-81547203D01*
X163189998Y-81547200D01*
X163184518Y-81530663D01*
X163134814Y-81380666D01*
X163042712Y-81231344D01*
X162918656Y-81107288D01*
X162769334Y-81015186D01*
X162602797Y-80960001D01*
X162602795Y-80960000D01*
X162500010Y-80949500D01*
X161099998Y-80949500D01*
X161099981Y-80949501D01*
X160997203Y-80960000D01*
X160997200Y-80960001D01*
X160830668Y-81015185D01*
X160830663Y-81015187D01*
X160681342Y-81107289D01*
X160557289Y-81231342D01*
X160465187Y-81380663D01*
X160465185Y-81380668D01*
X160448393Y-81431344D01*
X160410001Y-81547203D01*
X160410001Y-81547204D01*
X160410000Y-81547204D01*
X160399500Y-81649983D01*
X160399500Y-83129191D01*
X160379815Y-83196230D01*
X160363181Y-83216872D01*
X159287680Y-84292372D01*
X159226357Y-84325857D01*
X159156665Y-84320873D01*
X159112318Y-84292372D01*
X156614674Y-81794727D01*
X156614673Y-81794726D01*
X156614669Y-81794723D01*
X156508127Y-81723535D01*
X156444557Y-81697203D01*
X156389742Y-81674498D01*
X156389739Y-81674497D01*
X156359092Y-81668401D01*
X156297181Y-81636015D01*
X156265580Y-81585790D01*
X156247314Y-81530666D01*
X156155212Y-81381344D01*
X156031156Y-81257288D01*
X155921904Y-81189901D01*
X155881836Y-81165187D01*
X155881831Y-81165185D01*
X155861325Y-81158390D01*
X155715297Y-81110001D01*
X155715295Y-81110000D01*
X155612510Y-81099500D01*
X154987498Y-81099500D01*
X154987480Y-81099501D01*
X154884703Y-81110000D01*
X154884700Y-81110001D01*
X154718168Y-81165185D01*
X154718163Y-81165187D01*
X154568842Y-81257289D01*
X154475181Y-81350951D01*
X154413858Y-81384436D01*
X154344166Y-81379452D01*
X154304277Y-81355193D01*
X154301994Y-81353126D01*
X154206156Y-81257288D01*
X154174720Y-81237898D01*
X154166277Y-81230254D01*
X154153736Y-81209774D01*
X154137677Y-81191918D01*
X154134652Y-81178606D01*
X154129791Y-81170668D01*
X154130058Y-81158390D01*
X154125500Y-81138331D01*
X154125500Y-80069377D01*
X154145185Y-80002338D01*
X154184406Y-79963837D01*
X154206838Y-79950001D01*
X154218656Y-79942712D01*
X154312319Y-79849049D01*
X154373642Y-79815564D01*
X154443334Y-79820548D01*
X154487681Y-79849049D01*
X154581344Y-79942712D01*
X154730666Y-80034814D01*
X154897203Y-80089999D01*
X154999991Y-80100500D01*
X155625008Y-80100499D01*
X155625016Y-80100498D01*
X155625019Y-80100498D01*
X155681302Y-80094748D01*
X155727797Y-80089999D01*
X155894334Y-80034814D01*
X156043656Y-79942712D01*
X156167712Y-79818656D01*
X156259814Y-79669334D01*
X156314999Y-79502797D01*
X156325500Y-79400009D01*
X156325499Y-78399992D01*
X156314999Y-78297203D01*
X156259814Y-78130666D01*
X156167712Y-77981344D01*
X156043656Y-77857288D01*
X156021900Y-77843868D01*
X155975177Y-77791918D01*
X155963000Y-77738331D01*
X155963000Y-77098428D01*
X155938002Y-76972761D01*
X155938001Y-76972760D01*
X155938001Y-76972756D01*
X155888965Y-76854373D01*
X155865553Y-76819334D01*
X155865553Y-76819333D01*
X155841630Y-76783531D01*
X155820751Y-76716854D01*
X155839235Y-76649474D01*
X155891213Y-76602783D01*
X155905727Y-76596933D01*
X156019119Y-76559358D01*
X156019124Y-76559356D01*
X156168345Y-76467315D01*
X156292315Y-76343345D01*
X156384356Y-76194124D01*
X156384358Y-76194119D01*
X156439505Y-76027697D01*
X156439506Y-76027690D01*
X156449999Y-75924986D01*
X156450000Y-75924973D01*
X156450000Y-75650000D01*
X155574000Y-75650000D01*
X155506961Y-75630315D01*
X155461206Y-75577511D01*
X155450000Y-75526000D01*
X155450000Y-75400000D01*
X155324000Y-75400000D01*
X155256961Y-75380315D01*
X155211206Y-75327511D01*
X155200000Y-75276000D01*
X155200000Y-75150000D01*
X155700000Y-75150000D01*
X156449999Y-75150000D01*
X156449999Y-74875028D01*
X156449998Y-74875013D01*
X156439505Y-74772302D01*
X156384358Y-74605880D01*
X156384356Y-74605875D01*
X156292315Y-74456654D01*
X156168345Y-74332684D01*
X156019124Y-74240643D01*
X156019119Y-74240641D01*
X155852697Y-74185494D01*
X155852690Y-74185493D01*
X155749986Y-74175000D01*
X155700000Y-74175000D01*
X155700000Y-75150000D01*
X155200000Y-75150000D01*
X155200000Y-74175000D01*
X155199999Y-74174999D01*
X155150029Y-74175000D01*
X155150011Y-74175001D01*
X155047302Y-74185494D01*
X154880880Y-74240641D01*
X154880875Y-74240643D01*
X154731654Y-74332684D01*
X154607683Y-74456655D01*
X154607679Y-74456660D01*
X154605826Y-74459665D01*
X154604018Y-74461290D01*
X154603202Y-74462323D01*
X154603025Y-74462183D01*
X154553874Y-74506385D01*
X154484911Y-74517601D01*
X154420831Y-74489752D01*
X154413185Y-74482810D01*
X154402579Y-74472341D01*
X154392712Y-74456344D01*
X154268656Y-74332288D01*
X154247415Y-74319186D01*
X154237392Y-74309293D01*
X154227003Y-74290559D01*
X154212678Y-74274632D01*
X154208863Y-74257847D01*
X154203508Y-74248189D01*
X154204210Y-74237371D01*
X154200500Y-74221042D01*
X154200500Y-73431639D01*
X154220185Y-73364600D01*
X154236814Y-73343963D01*
X155130791Y-72449986D01*
X160300001Y-72449986D01*
X160310494Y-72552697D01*
X160365641Y-72719119D01*
X160365643Y-72719124D01*
X160457684Y-72868345D01*
X160581654Y-72992315D01*
X160730875Y-73084356D01*
X160730880Y-73084358D01*
X160897302Y-73139505D01*
X160897309Y-73139506D01*
X161000019Y-73149999D01*
X161449999Y-73149999D01*
X161950000Y-73149999D01*
X162399972Y-73149999D01*
X162399986Y-73149998D01*
X162502697Y-73139505D01*
X162669119Y-73084358D01*
X162669124Y-73084356D01*
X162818345Y-72992315D01*
X162942315Y-72868345D01*
X163034356Y-72719124D01*
X163034358Y-72719119D01*
X163089505Y-72552697D01*
X163089506Y-72552690D01*
X163099999Y-72449986D01*
X163100000Y-72449973D01*
X163100000Y-71650000D01*
X161950000Y-71650000D01*
X161950000Y-73149999D01*
X161449999Y-73149999D01*
X161450000Y-73149998D01*
X161450000Y-71650000D01*
X160300001Y-71650000D01*
X160300001Y-72449986D01*
X155130791Y-72449986D01*
X157230764Y-70350013D01*
X160300000Y-70350013D01*
X160300000Y-71150000D01*
X161450000Y-71150000D01*
X161950000Y-71150000D01*
X163099999Y-71150000D01*
X163099999Y-70350028D01*
X163099998Y-70350013D01*
X163089505Y-70247302D01*
X163034358Y-70080880D01*
X163034356Y-70080875D01*
X162942315Y-69931654D01*
X162818345Y-69807684D01*
X162669124Y-69715643D01*
X162669119Y-69715641D01*
X162502697Y-69660494D01*
X162502690Y-69660493D01*
X162399986Y-69650000D01*
X161950000Y-69650000D01*
X161950000Y-71150000D01*
X161450000Y-71150000D01*
X161450000Y-69650000D01*
X161000028Y-69650000D01*
X161000012Y-69650001D01*
X160897302Y-69660494D01*
X160730880Y-69715641D01*
X160730875Y-69715643D01*
X160581654Y-69807684D01*
X160457684Y-69931654D01*
X160365643Y-70080875D01*
X160365641Y-70080880D01*
X160310494Y-70247302D01*
X160310493Y-70247309D01*
X160300000Y-70350013D01*
X157230764Y-70350013D01*
X160327366Y-67253410D01*
X160388687Y-67219927D01*
X160458379Y-67224911D01*
X160490525Y-67242713D01*
X160597159Y-67324536D01*
X160743238Y-67385044D01*
X160860639Y-67400500D01*
X162214360Y-67400499D01*
X162214363Y-67400499D01*
X162331753Y-67385046D01*
X162331757Y-67385044D01*
X162331762Y-67385044D01*
X162477841Y-67324536D01*
X162603282Y-67228282D01*
X162699536Y-67102841D01*
X162733480Y-67020891D01*
X162777318Y-66966493D01*
X162843612Y-66944427D01*
X162911311Y-66961706D01*
G37*
%TD.AperFunction*%
%TA.AperFunction,Conductor*%
G36*
X175596231Y-64770185D02*
G01*
X175616873Y-64786819D01*
X176763181Y-65933127D01*
X176796666Y-65994450D01*
X176799500Y-66020808D01*
X176799500Y-66562501D01*
X176799501Y-66562519D01*
X176810000Y-66665296D01*
X176810001Y-66665299D01*
X176865185Y-66831831D01*
X176865187Y-66831836D01*
X176900069Y-66888388D01*
X176957288Y-66981156D01*
X177081344Y-67105212D01*
X177090591Y-67110916D01*
X177137318Y-67162860D01*
X177149500Y-67216457D01*
X177149500Y-68438331D01*
X177129815Y-68505370D01*
X177090600Y-68543868D01*
X177068843Y-68557288D01*
X176944789Y-68681342D01*
X176852687Y-68830663D01*
X176852686Y-68830666D01*
X176797501Y-68997203D01*
X176797501Y-68997204D01*
X176797500Y-68997204D01*
X176787000Y-69099983D01*
X176787000Y-70100001D01*
X176787001Y-70100019D01*
X176797500Y-70202796D01*
X176797501Y-70202799D01*
X176852685Y-70369331D01*
X176852686Y-70369334D01*
X176944788Y-70518656D01*
X177068844Y-70642712D01*
X177218166Y-70734814D01*
X177384703Y-70789999D01*
X177487491Y-70800500D01*
X178112508Y-70800499D01*
X178112516Y-70800498D01*
X178112519Y-70800498D01*
X178168802Y-70794748D01*
X178215297Y-70789999D01*
X178381834Y-70734814D01*
X178531156Y-70642712D01*
X178624819Y-70549049D01*
X178686142Y-70515564D01*
X178755834Y-70520548D01*
X178800181Y-70549049D01*
X178893844Y-70642712D01*
X179043166Y-70734814D01*
X179209703Y-70789999D01*
X179312491Y-70800500D01*
X179937508Y-70800499D01*
X179937516Y-70800498D01*
X179937519Y-70800498D01*
X179993802Y-70794748D01*
X180040297Y-70789999D01*
X180206834Y-70734814D01*
X180313600Y-70668961D01*
X180378696Y-70650500D01*
X183186160Y-70650500D01*
X183238520Y-70663614D01*
X183238878Y-70662753D01*
X183244504Y-70665083D01*
X183244505Y-70665084D01*
X183381087Y-70721658D01*
X183381091Y-70721658D01*
X183381092Y-70721659D01*
X183449692Y-70735305D01*
X183511603Y-70767690D01*
X183546177Y-70828406D01*
X183549500Y-70856922D01*
X183549500Y-76379191D01*
X183529815Y-76446230D01*
X183513181Y-76466872D01*
X178916871Y-81063181D01*
X178855548Y-81096666D01*
X178829190Y-81099500D01*
X178287498Y-81099500D01*
X178287480Y-81099501D01*
X178184703Y-81110000D01*
X178184700Y-81110001D01*
X178018168Y-81165185D01*
X178018163Y-81165187D01*
X177868842Y-81257289D01*
X177775181Y-81350951D01*
X177713858Y-81384436D01*
X177644166Y-81379452D01*
X177599819Y-81350951D01*
X177506157Y-81257289D01*
X177506156Y-81257288D01*
X177396902Y-81189900D01*
X177350179Y-81137953D01*
X177338000Y-81084362D01*
X177338000Y-80074167D01*
X177357685Y-80007128D01*
X177378778Y-79982243D01*
X177387215Y-79974604D01*
X177418656Y-79955212D01*
X177514496Y-79859371D01*
X177516778Y-79857306D01*
X177545575Y-79843389D01*
X177573642Y-79828064D01*
X177576818Y-79828291D01*
X177579687Y-79826905D01*
X177611430Y-79830766D01*
X177643334Y-79833048D01*
X177646403Y-79835020D01*
X177649045Y-79835342D01*
X177656428Y-79841463D01*
X177687681Y-79861549D01*
X177781344Y-79955212D01*
X177930666Y-80047314D01*
X178097203Y-80102499D01*
X178199991Y-80113000D01*
X178825008Y-80112999D01*
X178825016Y-80112998D01*
X178825019Y-80112998D01*
X178881302Y-80107248D01*
X178927797Y-80102499D01*
X179094334Y-80047314D01*
X179243656Y-79955212D01*
X179367712Y-79831156D01*
X179459814Y-79681834D01*
X179514999Y-79515297D01*
X179525500Y-79412509D01*
X179525499Y-78412492D01*
X179514999Y-78309703D01*
X179459814Y-78143166D01*
X179367712Y-77993844D01*
X179243656Y-77869788D01*
X179221900Y-77856368D01*
X179175177Y-77804418D01*
X179163000Y-77750831D01*
X179163000Y-77398428D01*
X179138002Y-77272761D01*
X179138001Y-77272760D01*
X179138001Y-77272756D01*
X179114155Y-77215186D01*
X179088968Y-77154378D01*
X179088965Y-77154373D01*
X179086378Y-77150501D01*
X179086377Y-77150500D01*
X179062438Y-77114673D01*
X179017774Y-77047827D01*
X178918479Y-76948532D01*
X178884994Y-76887209D01*
X178889978Y-76817517D01*
X178931850Y-76761584D01*
X178967157Y-76743145D01*
X179069117Y-76709359D01*
X179069124Y-76709356D01*
X179218345Y-76617315D01*
X179342315Y-76493345D01*
X179434356Y-76344124D01*
X179434358Y-76344119D01*
X179489505Y-76177697D01*
X179489506Y-76177690D01*
X179499999Y-76074986D01*
X179500000Y-76074973D01*
X179500000Y-75800000D01*
X178624000Y-75800000D01*
X178556961Y-75780315D01*
X178511206Y-75727511D01*
X178500000Y-75676000D01*
X178500000Y-75550000D01*
X178374000Y-75550000D01*
X178306961Y-75530315D01*
X178261206Y-75477511D01*
X178250000Y-75426000D01*
X178250000Y-75300000D01*
X178750000Y-75300000D01*
X179499999Y-75300000D01*
X179499999Y-75025028D01*
X179499998Y-75025013D01*
X179489505Y-74922302D01*
X179434358Y-74755880D01*
X179434356Y-74755875D01*
X179342315Y-74606654D01*
X179218345Y-74482684D01*
X179069124Y-74390643D01*
X179069119Y-74390641D01*
X178902697Y-74335494D01*
X178902690Y-74335493D01*
X178799986Y-74325000D01*
X178750000Y-74325000D01*
X178750000Y-75300000D01*
X178250000Y-75300000D01*
X178250000Y-74325000D01*
X178249999Y-74324999D01*
X178200029Y-74325000D01*
X178200011Y-74325001D01*
X178097302Y-74335494D01*
X177930880Y-74390641D01*
X177930875Y-74390643D01*
X177781654Y-74482684D01*
X177657683Y-74606655D01*
X177657679Y-74606660D01*
X177655826Y-74609665D01*
X177654018Y-74611290D01*
X177653202Y-74612323D01*
X177653025Y-74612183D01*
X177603874Y-74656385D01*
X177534911Y-74667601D01*
X177470831Y-74639752D01*
X177444753Y-74609653D01*
X177444737Y-74609628D01*
X177442712Y-74606344D01*
X177318656Y-74482288D01*
X177169939Y-74390559D01*
X177169336Y-74390187D01*
X177169331Y-74390185D01*
X177167862Y-74389698D01*
X177002797Y-74335001D01*
X177002795Y-74335000D01*
X176900010Y-74324500D01*
X176299998Y-74324500D01*
X176299980Y-74324501D01*
X176197203Y-74335000D01*
X176197200Y-74335001D01*
X176030668Y-74390185D01*
X176030663Y-74390187D01*
X175881342Y-74482289D01*
X175757289Y-74606342D01*
X175665187Y-74755663D01*
X175665186Y-74755666D01*
X175645689Y-74814505D01*
X175605916Y-74871949D01*
X175541400Y-74898772D01*
X175527983Y-74899500D01*
X174824499Y-74899500D01*
X174757460Y-74879815D01*
X174711705Y-74827011D01*
X174700499Y-74775500D01*
X174700499Y-74349998D01*
X174700498Y-74349981D01*
X174689999Y-74247203D01*
X174689998Y-74247200D01*
X174681330Y-74221042D01*
X174634814Y-74080666D01*
X174542712Y-73931344D01*
X174418656Y-73807288D01*
X174269334Y-73715186D01*
X174102797Y-73660001D01*
X174102795Y-73660000D01*
X174000010Y-73649500D01*
X172599998Y-73649500D01*
X172599978Y-73649502D01*
X172540162Y-73655612D01*
X172471470Y-73642842D01*
X172439881Y-73619935D01*
X171269933Y-72449986D01*
X171900001Y-72449986D01*
X171910494Y-72552697D01*
X171965641Y-72719119D01*
X171965643Y-72719124D01*
X172057684Y-72868345D01*
X172181654Y-72992315D01*
X172330875Y-73084356D01*
X172330880Y-73084358D01*
X172497302Y-73139505D01*
X172497309Y-73139506D01*
X172600019Y-73149999D01*
X173049999Y-73149999D01*
X173550000Y-73149999D01*
X173999972Y-73149999D01*
X173999986Y-73149998D01*
X174102697Y-73139505D01*
X174269119Y-73084358D01*
X174269124Y-73084356D01*
X174418345Y-72992315D01*
X174542315Y-72868345D01*
X174634356Y-72719124D01*
X174634358Y-72719119D01*
X174689505Y-72552697D01*
X174689506Y-72552690D01*
X174699999Y-72449986D01*
X174700000Y-72449973D01*
X174700000Y-71650000D01*
X173550000Y-71650000D01*
X173550000Y-73149999D01*
X173049999Y-73149999D01*
X173050000Y-73149998D01*
X173050000Y-71650000D01*
X171900001Y-71650000D01*
X171900001Y-72449986D01*
X171269933Y-72449986D01*
X170506266Y-71686319D01*
X169169960Y-70350013D01*
X171900000Y-70350013D01*
X171900000Y-71150000D01*
X173050000Y-71150000D01*
X173550000Y-71150000D01*
X174699999Y-71150000D01*
X174699999Y-70350028D01*
X174699998Y-70350013D01*
X174689505Y-70247302D01*
X174634358Y-70080880D01*
X174634356Y-70080875D01*
X174542315Y-69931654D01*
X174418345Y-69807684D01*
X174269124Y-69715643D01*
X174269119Y-69715641D01*
X174102697Y-69660494D01*
X174102690Y-69660493D01*
X173999986Y-69650000D01*
X173550000Y-69650000D01*
X173550000Y-71150000D01*
X173050000Y-71150000D01*
X173050000Y-69650000D01*
X172600028Y-69650000D01*
X172600012Y-69650001D01*
X172497302Y-69660494D01*
X172330880Y-69715641D01*
X172330875Y-69715643D01*
X172181654Y-69807684D01*
X172057684Y-69931654D01*
X171965643Y-70080875D01*
X171965641Y-70080880D01*
X171910494Y-70247302D01*
X171910493Y-70247309D01*
X171900000Y-70350013D01*
X169169960Y-70350013D01*
X166423379Y-67603432D01*
X166389894Y-67542109D01*
X166394878Y-67472417D01*
X166436750Y-67416484D01*
X166502214Y-67392067D01*
X166527241Y-67392811D01*
X166585639Y-67400500D01*
X167939360Y-67400499D01*
X167939363Y-67400499D01*
X168056753Y-67385046D01*
X168056757Y-67385044D01*
X168056762Y-67385044D01*
X168202841Y-67324536D01*
X168328282Y-67228282D01*
X168424536Y-67102841D01*
X168485044Y-66956762D01*
X168500500Y-66839361D01*
X168500499Y-66560640D01*
X168485044Y-66443238D01*
X168485042Y-66443234D01*
X168476435Y-66422455D01*
X168468965Y-66352986D01*
X168476435Y-66327545D01*
X168477075Y-66326000D01*
X168485044Y-66306762D01*
X168500500Y-66189361D01*
X168500499Y-65910640D01*
X168499792Y-65905273D01*
X168496682Y-65881646D01*
X168485044Y-65793238D01*
X168476434Y-65772454D01*
X168468965Y-65702986D01*
X168476435Y-65677545D01*
X168477756Y-65674356D01*
X168485044Y-65656762D01*
X168500500Y-65539361D01*
X168500499Y-65260640D01*
X168485044Y-65143238D01*
X168476434Y-65122454D01*
X168468691Y-65054562D01*
X168471021Y-65040613D01*
X168485044Y-65006762D01*
X168500500Y-64889361D01*
X168500500Y-64864211D01*
X168502196Y-64854062D01*
X168513124Y-64831506D01*
X168520185Y-64807461D01*
X168528095Y-64800606D01*
X168532661Y-64791184D01*
X168554050Y-64778116D01*
X168572989Y-64761706D01*
X168585292Y-64759029D01*
X168592284Y-64754758D01*
X168603728Y-64755018D01*
X168624500Y-64750500D01*
X175529192Y-64750500D01*
X175596231Y-64770185D01*
G37*
%TD.AperFunction*%
%TA.AperFunction,Conductor*%
G36*
X181746231Y-63270185D02*
G01*
X181766873Y-63286819D01*
X182685331Y-64205277D01*
X182702794Y-64216945D01*
X182740095Y-64241869D01*
X182740101Y-64241872D01*
X182744369Y-64244724D01*
X182791873Y-64276465D01*
X182833646Y-64293768D01*
X182839817Y-64297191D01*
X182859590Y-64317231D01*
X182881518Y-64334901D01*
X182888435Y-64346465D01*
X182888890Y-64346926D01*
X182888987Y-64347387D01*
X182890146Y-64349325D01*
X182904528Y-64377550D01*
X182919951Y-64407820D01*
X183044890Y-64579786D01*
X183195209Y-64730105D01*
X183195214Y-64730109D01*
X183360218Y-64849991D01*
X183402884Y-64905320D01*
X183408863Y-64974934D01*
X183376258Y-65036729D01*
X183360218Y-65050627D01*
X183195540Y-65170272D01*
X183195535Y-65170276D01*
X183045276Y-65320535D01*
X183045272Y-65320540D01*
X182920379Y-65492442D01*
X182823904Y-65681782D01*
X182758242Y-65883870D01*
X182758242Y-65883873D01*
X182747769Y-65950000D01*
X183795854Y-65950000D01*
X183757370Y-66016657D01*
X183725000Y-66137465D01*
X183725000Y-66262535D01*
X183757370Y-66383343D01*
X183795854Y-66450000D01*
X182747769Y-66450000D01*
X182758242Y-66516126D01*
X182758242Y-66516129D01*
X182823904Y-66718217D01*
X182920379Y-66907557D01*
X183045272Y-67079459D01*
X183045276Y-67079464D01*
X183184143Y-67218331D01*
X183217628Y-67279654D01*
X183212644Y-67349346D01*
X183170772Y-67405279D01*
X183161559Y-67411551D01*
X183006342Y-67507289D01*
X182882289Y-67631342D01*
X182790187Y-67780663D01*
X182790186Y-67780666D01*
X182735001Y-67947203D01*
X182735001Y-67947204D01*
X182735000Y-67947204D01*
X182724500Y-68049983D01*
X182724500Y-68049991D01*
X182724500Y-68684436D01*
X182724501Y-69225500D01*
X182704816Y-69292539D01*
X182652013Y-69338294D01*
X182600501Y-69349500D01*
X180761999Y-69349500D01*
X180694960Y-69329815D01*
X180649205Y-69277011D01*
X180637999Y-69225500D01*
X180637999Y-69099998D01*
X180637998Y-69099981D01*
X180627499Y-68997203D01*
X180627498Y-68997200D01*
X180572314Y-68830666D01*
X180480212Y-68681344D01*
X180356156Y-68557288D01*
X180238974Y-68485010D01*
X180206836Y-68465187D01*
X180206831Y-68465185D01*
X180186325Y-68458390D01*
X180040297Y-68410001D01*
X180040295Y-68410000D01*
X179937510Y-68399500D01*
X179312498Y-68399500D01*
X179312480Y-68399501D01*
X179209703Y-68410000D01*
X179209700Y-68410001D01*
X179043168Y-68465185D01*
X179043163Y-68465187D01*
X178893842Y-68557289D01*
X178800181Y-68650951D01*
X178738858Y-68684436D01*
X178669166Y-68679452D01*
X178629277Y-68655193D01*
X178626994Y-68653126D01*
X178531156Y-68557288D01*
X178499720Y-68537898D01*
X178491277Y-68530254D01*
X178478736Y-68509774D01*
X178462677Y-68491918D01*
X178459652Y-68478606D01*
X178454791Y-68470668D01*
X178455058Y-68458390D01*
X178450500Y-68438331D01*
X178450500Y-67231877D01*
X178470185Y-67164838D01*
X178509406Y-67126337D01*
X178543651Y-67105215D01*
X178543650Y-67105215D01*
X178543656Y-67105212D01*
X178637675Y-67011192D01*
X178698994Y-66977710D01*
X178768686Y-66982694D01*
X178813034Y-67011195D01*
X178906654Y-67104815D01*
X179055875Y-67196856D01*
X179055880Y-67196858D01*
X179222302Y-67252005D01*
X179222309Y-67252006D01*
X179325019Y-67262499D01*
X179887500Y-67262499D01*
X179949972Y-67262499D01*
X179949986Y-67262498D01*
X180052697Y-67252005D01*
X180219119Y-67196858D01*
X180219124Y-67196856D01*
X180368345Y-67104815D01*
X180492315Y-66980845D01*
X180584356Y-66831624D01*
X180584358Y-66831619D01*
X180639505Y-66665197D01*
X180639506Y-66665190D01*
X180649999Y-66562486D01*
X180650000Y-66562473D01*
X180650000Y-66312500D01*
X179887500Y-66312500D01*
X179887500Y-67262499D01*
X179325019Y-67262499D01*
X179387499Y-67262498D01*
X179387500Y-67262498D01*
X179387500Y-65812500D01*
X179887500Y-65812500D01*
X180649999Y-65812500D01*
X180649999Y-65562528D01*
X180649998Y-65562513D01*
X180639505Y-65459802D01*
X180584358Y-65293380D01*
X180584356Y-65293375D01*
X180492315Y-65144154D01*
X180368345Y-65020184D01*
X180219124Y-64928143D01*
X180219119Y-64928141D01*
X180052697Y-64872994D01*
X180052690Y-64872993D01*
X179949986Y-64862500D01*
X179887500Y-64862500D01*
X179887500Y-65812500D01*
X179387500Y-65812500D01*
X179387500Y-64862500D01*
X179387499Y-64862499D01*
X179325028Y-64862500D01*
X179325011Y-64862501D01*
X179222302Y-64872994D01*
X179055880Y-64928141D01*
X179055875Y-64928143D01*
X178906657Y-65020182D01*
X178813034Y-65113805D01*
X178751710Y-65147289D01*
X178682019Y-65142305D01*
X178637672Y-65113804D01*
X178543657Y-65019789D01*
X178543656Y-65019788D01*
X178394334Y-64927686D01*
X178227797Y-64872501D01*
X178227795Y-64872500D01*
X178125016Y-64862000D01*
X178125009Y-64862000D01*
X177583308Y-64862000D01*
X177516269Y-64842315D01*
X177495627Y-64825681D01*
X177182127Y-64512181D01*
X177148642Y-64450858D01*
X177153626Y-64381166D01*
X177195498Y-64325233D01*
X177260962Y-64300816D01*
X177269808Y-64300500D01*
X178639071Y-64300500D01*
X178723615Y-64283682D01*
X178764744Y-64275501D01*
X178883127Y-64226465D01*
X178892756Y-64220030D01*
X178895181Y-64218411D01*
X178950575Y-64181398D01*
X178989669Y-64155277D01*
X179308128Y-63836816D01*
X179369450Y-63803333D01*
X179395808Y-63800499D01*
X179937502Y-63800499D01*
X179937508Y-63800499D01*
X180040297Y-63789999D01*
X180206834Y-63734814D01*
X180356156Y-63642712D01*
X180480212Y-63518656D01*
X180572314Y-63369334D01*
X180582769Y-63337783D01*
X180583528Y-63335494D01*
X180623301Y-63278050D01*
X180687817Y-63251228D01*
X180701233Y-63250500D01*
X181679192Y-63250500D01*
X181746231Y-63270185D01*
G37*
%TD.AperFunction*%
%TA.AperFunction,Conductor*%
G36*
X162956878Y-61816232D02*
G01*
X162976283Y-61832061D01*
X164313181Y-63168959D01*
X164346666Y-63230282D01*
X164349500Y-63256640D01*
X164349500Y-64664069D01*
X164349500Y-64664071D01*
X164349499Y-64664071D01*
X164373563Y-64785039D01*
X164374498Y-64789743D01*
X164374499Y-64789744D01*
X164413440Y-64883757D01*
X164423535Y-64908127D01*
X164489440Y-65006762D01*
X164494726Y-65014673D01*
X165385326Y-65905273D01*
X165385329Y-65905275D01*
X165385331Y-65905277D01*
X165491873Y-65976465D01*
X165610256Y-66025501D01*
X165610260Y-66025501D01*
X165610261Y-66025502D01*
X165735928Y-66050500D01*
X165735931Y-66050500D01*
X165900501Y-66050500D01*
X165967540Y-66070185D01*
X166013295Y-66122989D01*
X166022805Y-66154063D01*
X166024501Y-66164212D01*
X166024501Y-66189360D01*
X166039956Y-66306762D01*
X166053976Y-66340610D01*
X166056308Y-66354563D01*
X166053749Y-66375775D01*
X166056033Y-66397019D01*
X166048566Y-66422450D01*
X166039957Y-66443234D01*
X166039955Y-66443239D01*
X166024500Y-66560638D01*
X166024500Y-66839356D01*
X166032188Y-66897758D01*
X166021420Y-66966793D01*
X165975038Y-67019048D01*
X165907769Y-67037931D01*
X165840969Y-67017448D01*
X165821567Y-67001621D01*
X163064674Y-64244727D01*
X163064671Y-64244725D01*
X163064670Y-64244724D01*
X163064669Y-64244723D01*
X162958127Y-64173535D01*
X162958126Y-64173534D01*
X162958124Y-64173533D01*
X162852046Y-64129594D01*
X162797642Y-64085753D01*
X162776702Y-64032265D01*
X162775499Y-64023692D01*
X162775499Y-63960640D01*
X162760044Y-63843238D01*
X162745120Y-63807210D01*
X162742927Y-63791577D01*
X162745809Y-63772002D01*
X162743694Y-63752328D01*
X162751164Y-63726890D01*
X162759555Y-63706632D01*
X162759555Y-63706630D01*
X162767012Y-63650000D01*
X162724500Y-63650000D01*
X162657461Y-63630315D01*
X162636907Y-63613769D01*
X162631108Y-63607981D01*
X162603282Y-63571718D01*
X162566460Y-63543463D01*
X162560754Y-63537769D01*
X162547696Y-63513913D01*
X162531658Y-63491949D01*
X162531167Y-63483715D01*
X162527207Y-63476480D01*
X162529120Y-63449349D01*
X162527503Y-63422203D01*
X162531541Y-63415010D01*
X162532122Y-63406783D01*
X162548395Y-63384998D01*
X162561714Y-63361282D01*
X162572851Y-63351631D01*
X162603282Y-63328282D01*
X162616821Y-63310638D01*
X162626125Y-63298513D01*
X162682553Y-63257310D01*
X162724500Y-63250000D01*
X162767010Y-63250000D01*
X162767011Y-63249998D01*
X162759558Y-63193377D01*
X162759554Y-63193365D01*
X162751163Y-63173106D01*
X162743694Y-63103637D01*
X162751164Y-63078199D01*
X162751433Y-63077550D01*
X162760044Y-63056762D01*
X162775500Y-62939361D01*
X162775499Y-62660640D01*
X162760044Y-62543238D01*
X162760042Y-62543234D01*
X162751435Y-62522455D01*
X162743965Y-62452986D01*
X162751435Y-62427545D01*
X162760044Y-62406762D01*
X162775500Y-62289361D01*
X162775499Y-62010640D01*
X162765663Y-61935924D01*
X162776429Y-61866892D01*
X162822809Y-61814636D01*
X162890078Y-61795751D01*
X162956878Y-61816232D01*
G37*
%TD.AperFunction*%
%TA.AperFunction,Conductor*%
G36*
X177254912Y-54070185D02*
G01*
X177300667Y-54122989D01*
X177310611Y-54192147D01*
X177305805Y-54212813D01*
X177291298Y-54257461D01*
X177282753Y-54283760D01*
X177249500Y-54493713D01*
X177249500Y-54706286D01*
X177283516Y-54921055D01*
X177281877Y-54921314D01*
X177278738Y-54983883D01*
X177249342Y-55030710D01*
X171466873Y-60813181D01*
X171405550Y-60846666D01*
X171379192Y-60849500D01*
X168624499Y-60849500D01*
X168557460Y-60829815D01*
X168511705Y-60777011D01*
X168500499Y-60725500D01*
X168500499Y-60710636D01*
X168485046Y-60593246D01*
X168485044Y-60593239D01*
X168485044Y-60593238D01*
X168424536Y-60447159D01*
X168328282Y-60321718D01*
X168202841Y-60225464D01*
X168056762Y-60164956D01*
X168056760Y-60164955D01*
X167939370Y-60149501D01*
X167939367Y-60149500D01*
X167939361Y-60149500D01*
X167939354Y-60149500D01*
X166585636Y-60149500D01*
X166468246Y-60164953D01*
X166468237Y-60164956D01*
X166322160Y-60225463D01*
X166196718Y-60321718D01*
X166100463Y-60447160D01*
X166039956Y-60593237D01*
X166039955Y-60593239D01*
X166024500Y-60710638D01*
X166024500Y-60989363D01*
X166039953Y-61106753D01*
X166039957Y-61106765D01*
X166048566Y-61127550D01*
X166056033Y-61197019D01*
X166048566Y-61222450D01*
X166039957Y-61243234D01*
X166039955Y-61243239D01*
X166024500Y-61360638D01*
X166024500Y-61639363D01*
X166039953Y-61756753D01*
X166039957Y-61756765D01*
X166048566Y-61777550D01*
X166056033Y-61847019D01*
X166048566Y-61872450D01*
X166039957Y-61893234D01*
X166039955Y-61893239D01*
X166024500Y-62010638D01*
X166024500Y-62289363D01*
X166039953Y-62406753D01*
X166039957Y-62406765D01*
X166048566Y-62427550D01*
X166056033Y-62497019D01*
X166048566Y-62522450D01*
X166039957Y-62543234D01*
X166039955Y-62543239D01*
X166024500Y-62660638D01*
X166024500Y-62939363D01*
X166039953Y-63056753D01*
X166039957Y-63056765D01*
X166048566Y-63077550D01*
X166056033Y-63147019D01*
X166048566Y-63172450D01*
X166039957Y-63193234D01*
X166039955Y-63193239D01*
X166024500Y-63310638D01*
X166024500Y-63589363D01*
X166039953Y-63706753D01*
X166039957Y-63706765D01*
X166048566Y-63727550D01*
X166056033Y-63797019D01*
X166048566Y-63822450D01*
X166039957Y-63843234D01*
X166039955Y-63843239D01*
X166024500Y-63960638D01*
X166024500Y-64239363D01*
X166039953Y-64356753D01*
X166039957Y-64356765D01*
X166048566Y-64377550D01*
X166056033Y-64447019D01*
X166048562Y-64472460D01*
X166044550Y-64482144D01*
X166000705Y-64536545D01*
X165934410Y-64558605D01*
X165866711Y-64541322D01*
X165842311Y-64522365D01*
X165686819Y-64366873D01*
X165653334Y-64305550D01*
X165650500Y-64279192D01*
X165650500Y-62871760D01*
X165625502Y-62746093D01*
X165625501Y-62746092D01*
X165625501Y-62746088D01*
X165576465Y-62627705D01*
X165558929Y-62601460D01*
X165558928Y-62601458D01*
X165505277Y-62521163D01*
X165505271Y-62521156D01*
X162796295Y-59812181D01*
X162762810Y-59750858D01*
X162767794Y-59681166D01*
X162809666Y-59625233D01*
X162875130Y-59600816D01*
X162883976Y-59600500D01*
X164916608Y-59600500D01*
X164916608Y-59600499D01*
X164992868Y-59585331D01*
X165037452Y-59576463D01*
X165088073Y-59555495D01*
X165151286Y-59529312D01*
X165217880Y-59484814D01*
X165253733Y-59460858D01*
X165340858Y-59373733D01*
X165340859Y-59373731D01*
X165347925Y-59366665D01*
X165347928Y-59366661D01*
X165522289Y-59192299D01*
X165583610Y-59158816D01*
X165653302Y-59163800D01*
X165675062Y-59174441D01*
X165675666Y-59174814D01*
X165842203Y-59229999D01*
X165944991Y-59240500D01*
X166995008Y-59240499D01*
X166995016Y-59240498D01*
X166995019Y-59240498D01*
X167051302Y-59234748D01*
X167097797Y-59229999D01*
X167264334Y-59174814D01*
X167413656Y-59082712D01*
X167537712Y-58958656D01*
X167558839Y-58924402D01*
X167610787Y-58877679D01*
X167664378Y-58865500D01*
X170371608Y-58865500D01*
X170371608Y-58865499D01*
X170477158Y-58844505D01*
X170492452Y-58841463D01*
X170525792Y-58827652D01*
X170606286Y-58794312D01*
X170657509Y-58760084D01*
X170708733Y-58725858D01*
X170795858Y-58638733D01*
X170795858Y-58638731D01*
X170806066Y-58628524D01*
X170806067Y-58628521D01*
X175347772Y-54086819D01*
X175409095Y-54053334D01*
X175435453Y-54050500D01*
X177187873Y-54050500D01*
X177254912Y-54070185D01*
G37*
%TD.AperFunction*%
%TA.AperFunction,Conductor*%
G36*
X146384730Y-52970185D02*
G01*
X146430485Y-53022989D01*
X146440429Y-53092147D01*
X146411404Y-53155703D01*
X146405372Y-53162181D01*
X146204371Y-53363181D01*
X146143048Y-53396666D01*
X146116690Y-53399500D01*
X145574998Y-53399500D01*
X145574980Y-53399501D01*
X145472203Y-53410000D01*
X145472200Y-53410001D01*
X145305668Y-53465185D01*
X145305663Y-53465187D01*
X145156342Y-53557289D01*
X145032289Y-53681342D01*
X144940187Y-53830663D01*
X144940186Y-53830666D01*
X144885001Y-53997203D01*
X144885001Y-53997204D01*
X144885000Y-53997204D01*
X144874500Y-54099983D01*
X144874500Y-55100001D01*
X144874501Y-55100019D01*
X144885000Y-55202796D01*
X144885001Y-55202799D01*
X144940185Y-55369331D01*
X144940187Y-55369336D01*
X144958871Y-55399628D01*
X145032288Y-55518656D01*
X145156344Y-55642712D01*
X145305666Y-55734814D01*
X145472203Y-55789999D01*
X145574991Y-55800500D01*
X146200008Y-55800499D01*
X146200016Y-55800498D01*
X146200019Y-55800498D01*
X146256302Y-55794748D01*
X146302797Y-55789999D01*
X146469334Y-55734814D01*
X146618656Y-55642712D01*
X146712319Y-55549049D01*
X146773642Y-55515564D01*
X146843334Y-55520548D01*
X146887681Y-55549049D01*
X146981344Y-55642712D01*
X147130666Y-55734814D01*
X147297203Y-55789999D01*
X147399991Y-55800500D01*
X147941691Y-55800499D01*
X148008730Y-55820183D01*
X148029372Y-55836818D01*
X148904873Y-56712319D01*
X148938358Y-56773642D01*
X148933374Y-56843334D01*
X148904873Y-56887681D01*
X148555340Y-57237213D01*
X148494017Y-57270698D01*
X148424325Y-57265714D01*
X148402563Y-57255071D01*
X148256840Y-57165189D01*
X148256835Y-57165187D01*
X148256834Y-57165186D01*
X148090297Y-57110001D01*
X148090295Y-57110000D01*
X147987510Y-57099500D01*
X147362498Y-57099500D01*
X147362480Y-57099501D01*
X147259703Y-57110000D01*
X147259700Y-57110001D01*
X147093168Y-57165185D01*
X147093163Y-57165187D01*
X146943845Y-57257287D01*
X146849827Y-57351305D01*
X146788503Y-57384789D01*
X146718812Y-57379805D01*
X146674465Y-57351304D01*
X146580845Y-57257684D01*
X146431624Y-57165643D01*
X146431619Y-57165641D01*
X146265197Y-57110494D01*
X146265190Y-57110493D01*
X146162486Y-57100000D01*
X146100000Y-57100000D01*
X146100000Y-59499999D01*
X146162472Y-59499999D01*
X146162486Y-59499998D01*
X146265197Y-59489505D01*
X146431619Y-59434358D01*
X146431624Y-59434356D01*
X146580842Y-59342317D01*
X146674464Y-59248695D01*
X146735787Y-59215210D01*
X146805479Y-59220194D01*
X146849827Y-59248695D01*
X146943844Y-59342712D01*
X147093166Y-59434814D01*
X147259703Y-59489999D01*
X147362491Y-59500500D01*
X147987508Y-59500499D01*
X147987516Y-59500498D01*
X147987519Y-59500498D01*
X148043802Y-59494748D01*
X148090297Y-59489999D01*
X148256834Y-59434814D01*
X148406156Y-59342712D01*
X148530212Y-59218656D01*
X148622314Y-59069334D01*
X148663243Y-58945818D01*
X148703015Y-58888375D01*
X148715660Y-58879996D01*
X148715562Y-58879849D01*
X148720627Y-58876465D01*
X148827169Y-58805277D01*
X149182447Y-58449998D01*
X149777704Y-58449998D01*
X149777705Y-58450000D01*
X150762500Y-58450000D01*
X150762500Y-57900000D01*
X150359350Y-57900000D01*
X150322510Y-57902899D01*
X150322504Y-57902900D01*
X150164806Y-57948716D01*
X150164803Y-57948717D01*
X150023447Y-58032314D01*
X150023438Y-58032321D01*
X149907321Y-58148438D01*
X149907314Y-58148447D01*
X149823718Y-58289801D01*
X149777899Y-58447513D01*
X149777704Y-58449998D01*
X149182447Y-58449998D01*
X150047736Y-57584708D01*
X150109057Y-57551225D01*
X150170009Y-57553314D01*
X150322431Y-57597598D01*
X150359306Y-57600500D01*
X151525500Y-57600500D01*
X151592539Y-57620185D01*
X151638294Y-57672989D01*
X151649500Y-57724500D01*
X151649500Y-57776000D01*
X151629815Y-57843039D01*
X151577011Y-57888794D01*
X151525500Y-57900000D01*
X151262500Y-57900000D01*
X151262500Y-58576000D01*
X151242815Y-58643039D01*
X151190011Y-58688794D01*
X151138500Y-58700000D01*
X151012500Y-58700000D01*
X151012500Y-58826000D01*
X150992815Y-58893039D01*
X150940011Y-58938794D01*
X150888500Y-58950000D01*
X149777705Y-58950000D01*
X149777704Y-58950001D01*
X149777899Y-58952486D01*
X149823718Y-59110198D01*
X149907314Y-59251552D01*
X149907321Y-59251561D01*
X150023438Y-59367678D01*
X150023447Y-59367685D01*
X150164803Y-59451282D01*
X150164806Y-59451283D01*
X150322504Y-59497099D01*
X150322510Y-59497100D01*
X150359350Y-59499999D01*
X150359366Y-59500000D01*
X150441954Y-59500000D01*
X150508993Y-59519685D01*
X150554748Y-59572489D01*
X150564692Y-59641647D01*
X150535667Y-59705203D01*
X150529635Y-59711681D01*
X145938286Y-64303028D01*
X145876963Y-64336513D01*
X145807271Y-64331529D01*
X145762924Y-64303028D01*
X145641294Y-64181398D01*
X145607809Y-64120075D01*
X145612793Y-64050383D01*
X145654665Y-63994450D01*
X145663879Y-63988178D01*
X145669331Y-63984814D01*
X145669334Y-63984814D01*
X145818656Y-63892712D01*
X145942712Y-63768656D01*
X146034814Y-63619334D01*
X146089999Y-63452797D01*
X146100500Y-63350009D01*
X146100499Y-62049992D01*
X146096194Y-62007853D01*
X146089999Y-61947203D01*
X146089998Y-61947200D01*
X146072115Y-61893234D01*
X146034814Y-61780666D01*
X145942712Y-61631344D01*
X145818656Y-61507288D01*
X145669407Y-61415231D01*
X145669336Y-61415187D01*
X145669331Y-61415185D01*
X145667862Y-61414698D01*
X145502797Y-61360001D01*
X145502795Y-61360000D01*
X145461896Y-61355822D01*
X145397205Y-61329425D01*
X145357054Y-61272244D01*
X145350500Y-61232464D01*
X145350500Y-59618207D01*
X145370185Y-59551168D01*
X145422989Y-59505413D01*
X145487103Y-59494849D01*
X145537519Y-59499999D01*
X145599999Y-59499998D01*
X145600000Y-59499998D01*
X145600000Y-57100000D01*
X145599999Y-57099999D01*
X145537528Y-57100000D01*
X145537509Y-57100001D01*
X145470491Y-57106848D01*
X145401798Y-57094078D01*
X145350914Y-57046197D01*
X145336273Y-57007681D01*
X145328727Y-56969747D01*
X145321658Y-56934209D01*
X145313250Y-56913910D01*
X145265087Y-56797633D01*
X145265080Y-56797620D01*
X145182952Y-56674707D01*
X145148218Y-56639973D01*
X145078416Y-56570171D01*
X143886934Y-55378689D01*
X143853449Y-55317366D01*
X143858433Y-55247674D01*
X143869071Y-55225920D01*
X143934814Y-55119334D01*
X143989999Y-54952797D01*
X144000500Y-54850009D01*
X144000499Y-53512229D01*
X144020184Y-53445191D01*
X144036818Y-53424549D01*
X144474549Y-52986819D01*
X144535872Y-52953334D01*
X144562230Y-52950500D01*
X146317691Y-52950500D01*
X146384730Y-52970185D01*
G37*
%TD.AperFunction*%
%TA.AperFunction,Conductor*%
G36*
X183214075Y-54792993D02*
G01*
X183279901Y-54907007D01*
X183372993Y-55000099D01*
X183487007Y-55065925D01*
X183550590Y-55082962D01*
X182918282Y-55715269D01*
X182918282Y-55715270D01*
X182972449Y-55754624D01*
X183161782Y-55851095D01*
X183363870Y-55916757D01*
X183573754Y-55950000D01*
X183786246Y-55950000D01*
X183996127Y-55916757D01*
X183996130Y-55916757D01*
X184198217Y-55851095D01*
X184387554Y-55754622D01*
X184441716Y-55715270D01*
X184441717Y-55715270D01*
X183809408Y-55082962D01*
X183872993Y-55065925D01*
X183987007Y-55000099D01*
X184080099Y-54907007D01*
X184145925Y-54792993D01*
X184162962Y-54729409D01*
X184833181Y-55399628D01*
X184866666Y-55460951D01*
X184869500Y-55487300D01*
X184869500Y-55497865D01*
X184869501Y-55497876D01*
X184875908Y-55557483D01*
X184926202Y-55692328D01*
X184926206Y-55692335D01*
X185012452Y-55807544D01*
X185012455Y-55807547D01*
X185127664Y-55893793D01*
X185127671Y-55893797D01*
X185137243Y-55897367D01*
X185262517Y-55944091D01*
X185322127Y-55950500D01*
X185445500Y-55950499D01*
X185512539Y-55970183D01*
X185558294Y-56022987D01*
X185569500Y-56074499D01*
X185569500Y-56459192D01*
X185549815Y-56526231D01*
X185533181Y-56546873D01*
X184966873Y-57113181D01*
X184905550Y-57146666D01*
X184879192Y-57149500D01*
X179135929Y-57149500D01*
X179015102Y-57173535D01*
X179015097Y-57173536D01*
X179010258Y-57174498D01*
X179010257Y-57174498D01*
X178891874Y-57223534D01*
X178785326Y-57294726D01*
X178116871Y-57963181D01*
X178055548Y-57996666D01*
X178029190Y-57999500D01*
X177487498Y-57999500D01*
X177487480Y-57999501D01*
X177384703Y-58010000D01*
X177384700Y-58010001D01*
X177218168Y-58065185D01*
X177218163Y-58065187D01*
X177068842Y-58157289D01*
X176944789Y-58281342D01*
X176852687Y-58430663D01*
X176852685Y-58430668D01*
X176836888Y-58478340D01*
X176797501Y-58597203D01*
X176797501Y-58597204D01*
X176797500Y-58597204D01*
X176787000Y-58699983D01*
X176787000Y-59241691D01*
X176767315Y-59308730D01*
X176750681Y-59329372D01*
X176374315Y-59705737D01*
X176312992Y-59739222D01*
X176243300Y-59734238D01*
X176239190Y-59732621D01*
X176238311Y-59732257D01*
X176233497Y-59730263D01*
X176233494Y-59730262D01*
X176233488Y-59730260D01*
X176078845Y-59699500D01*
X176078842Y-59699500D01*
X175921158Y-59699500D01*
X175921155Y-59699500D01*
X175766510Y-59730261D01*
X175766498Y-59730264D01*
X175620827Y-59790602D01*
X175620819Y-59790607D01*
X175489711Y-59878210D01*
X175489707Y-59878213D01*
X175378213Y-59989707D01*
X175378210Y-59989711D01*
X175290609Y-60120814D01*
X175290602Y-60120827D01*
X175230264Y-60266498D01*
X175230261Y-60266510D01*
X175199500Y-60421153D01*
X175199500Y-60578846D01*
X175230261Y-60733489D01*
X175230264Y-60733501D01*
X175290602Y-60879172D01*
X175290609Y-60879185D01*
X175378210Y-61010288D01*
X175378213Y-61010292D01*
X175489707Y-61121786D01*
X175489711Y-61121789D01*
X175620814Y-61209390D01*
X175620827Y-61209397D01*
X175713964Y-61247975D01*
X175766503Y-61269737D01*
X175916151Y-61299504D01*
X175921153Y-61300499D01*
X175921156Y-61300500D01*
X175921158Y-61300500D01*
X176078844Y-61300500D01*
X176078845Y-61300499D01*
X176233497Y-61269737D01*
X176343509Y-61224168D01*
X176412976Y-61216700D01*
X176475456Y-61247975D01*
X176511108Y-61308064D01*
X176508614Y-61377889D01*
X176478641Y-61426411D01*
X175791873Y-62113181D01*
X175730550Y-62146666D01*
X175704192Y-62149500D01*
X172976914Y-62149500D01*
X172909875Y-62129815D01*
X172864120Y-62077011D01*
X172854176Y-62007853D01*
X172883201Y-61944297D01*
X172889233Y-61937819D01*
X178340232Y-56486819D01*
X178401555Y-56453334D01*
X178427913Y-56450500D01*
X180004071Y-56450500D01*
X180088615Y-56433682D01*
X180129744Y-56425501D01*
X180248127Y-56376465D01*
X180270103Y-56361781D01*
X180354669Y-56305277D01*
X180709288Y-55950656D01*
X180770611Y-55917172D01*
X180818754Y-55917688D01*
X180818945Y-55916484D01*
X180923888Y-55933105D01*
X181033713Y-55950500D01*
X181033714Y-55950500D01*
X181246286Y-55950500D01*
X181246287Y-55950500D01*
X181456243Y-55917246D01*
X181658412Y-55851557D01*
X181847816Y-55755051D01*
X181934138Y-55692335D01*
X182019786Y-55630109D01*
X182019788Y-55630106D01*
X182019792Y-55630104D01*
X182170104Y-55479792D01*
X182170106Y-55479788D01*
X182170109Y-55479786D01*
X182250358Y-55369331D01*
X182295051Y-55307816D01*
X182299793Y-55298508D01*
X182347763Y-55247711D01*
X182415583Y-55230911D01*
X182481719Y-55253445D01*
X182520763Y-55298500D01*
X182525373Y-55307547D01*
X182564728Y-55361716D01*
X183197036Y-54729407D01*
X183214075Y-54792993D01*
G37*
%TD.AperFunction*%
%TA.AperFunction,Conductor*%
G36*
X162118834Y-49694272D02*
G01*
X162174767Y-49736144D01*
X162199184Y-49801608D01*
X162199500Y-49810454D01*
X162199500Y-51658028D01*
X162199501Y-51658034D01*
X162210113Y-51777415D01*
X162266089Y-51973045D01*
X162266090Y-51973048D01*
X162266091Y-51973049D01*
X162360302Y-52153407D01*
X162360304Y-52153409D01*
X162488890Y-52311109D01*
X162513707Y-52331344D01*
X162646593Y-52439698D01*
X162826951Y-52533909D01*
X163022582Y-52589886D01*
X163141963Y-52600500D01*
X164258036Y-52600499D01*
X164377418Y-52589886D01*
X164573049Y-52533909D01*
X164753407Y-52439698D01*
X164911109Y-52311109D01*
X165039698Y-52153407D01*
X165133909Y-51973049D01*
X165189886Y-51777418D01*
X165200500Y-51658037D01*
X165200500Y-50974500D01*
X165220185Y-50907461D01*
X165272989Y-50861706D01*
X165324500Y-50850500D01*
X168457463Y-50850500D01*
X168524502Y-50870185D01*
X168568549Y-50919402D01*
X168632970Y-51049296D01*
X168632971Y-51049297D01*
X168752277Y-51197721D01*
X168752278Y-51197722D01*
X168821884Y-51253673D01*
X168861803Y-51311016D01*
X168864383Y-51380838D01*
X168828804Y-51440971D01*
X168821885Y-51446967D01*
X168752631Y-51502635D01*
X168633392Y-51650974D01*
X168633390Y-51650977D01*
X168548831Y-51821476D01*
X168502897Y-52006175D01*
X168500000Y-52048903D01*
X168500000Y-52250000D01*
X169876000Y-52250000D01*
X169943039Y-52269685D01*
X169988794Y-52322489D01*
X170000000Y-52374000D01*
X170000000Y-52500000D01*
X170126000Y-52500000D01*
X170193039Y-52519685D01*
X170238794Y-52572489D01*
X170250000Y-52624000D01*
X170250000Y-53750000D01*
X170701097Y-53750000D01*
X170743824Y-53747102D01*
X170928523Y-53701168D01*
X171099022Y-53616609D01*
X171099025Y-53616607D01*
X171247366Y-53497367D01*
X171247367Y-53497366D01*
X171366605Y-53349027D01*
X171372550Y-53337041D01*
X171419970Y-53285727D01*
X171487605Y-53268196D01*
X171553980Y-53290014D01*
X171598024Y-53344254D01*
X171606998Y-53379531D01*
X171615494Y-53462697D01*
X171670641Y-53629119D01*
X171670643Y-53629124D01*
X171762684Y-53778345D01*
X171886654Y-53902315D01*
X172035875Y-53994356D01*
X172035880Y-53994358D01*
X172202302Y-54049505D01*
X172202309Y-54049506D01*
X172305019Y-54059999D01*
X172549999Y-54059999D01*
X172550000Y-54059998D01*
X172550000Y-52976500D01*
X172569685Y-52909461D01*
X172622489Y-52863706D01*
X172674000Y-52852500D01*
X172926000Y-52852500D01*
X172993039Y-52872185D01*
X173038794Y-52924989D01*
X173050000Y-52976500D01*
X173050000Y-54059999D01*
X173294972Y-54059999D01*
X173298134Y-54059838D01*
X173298187Y-54060889D01*
X173362649Y-54072855D01*
X173413546Y-54120722D01*
X173430484Y-54188508D01*
X173408086Y-54254690D01*
X173394268Y-54271139D01*
X170087229Y-57578181D01*
X170025906Y-57611666D01*
X169999548Y-57614500D01*
X167664378Y-57614500D01*
X167597339Y-57594815D01*
X167558839Y-57555597D01*
X167537712Y-57521344D01*
X167413656Y-57397288D01*
X167410342Y-57395243D01*
X167408546Y-57393248D01*
X167407989Y-57392807D01*
X167408064Y-57392711D01*
X167363618Y-57343297D01*
X167352397Y-57274334D01*
X167380240Y-57210252D01*
X167410348Y-57184165D01*
X167413342Y-57182318D01*
X167537315Y-57058345D01*
X167629356Y-56909124D01*
X167629358Y-56909119D01*
X167684505Y-56742697D01*
X167684506Y-56742690D01*
X167694999Y-56639986D01*
X167695000Y-56639973D01*
X167695000Y-56590000D01*
X165245001Y-56590000D01*
X165245001Y-56639986D01*
X165255494Y-56742697D01*
X165310641Y-56909119D01*
X165310643Y-56909124D01*
X165402684Y-57058345D01*
X165526655Y-57182316D01*
X165526659Y-57182319D01*
X165529656Y-57184168D01*
X165531279Y-57185972D01*
X165532323Y-57186798D01*
X165532181Y-57186976D01*
X165576381Y-57236116D01*
X165587602Y-57305079D01*
X165559759Y-57369161D01*
X165529661Y-57395241D01*
X165526349Y-57397283D01*
X165526343Y-57397288D01*
X165402288Y-57521343D01*
X165402285Y-57521347D01*
X165320153Y-57654504D01*
X165283513Y-57692504D01*
X165276489Y-57697198D01*
X165276482Y-57697203D01*
X165191268Y-57754140D01*
X165169409Y-57776000D01*
X165104142Y-57841267D01*
X165104139Y-57841270D01*
X164632229Y-58313181D01*
X164570906Y-58346666D01*
X164544548Y-58349500D01*
X163074000Y-58349500D01*
X163006961Y-58329815D01*
X162961206Y-58277011D01*
X162950000Y-58225500D01*
X162950000Y-58024000D01*
X162969685Y-57956961D01*
X163022489Y-57911206D01*
X163074000Y-57900000D01*
X164174999Y-57900000D01*
X164174999Y-57850028D01*
X164174998Y-57850013D01*
X164164505Y-57747302D01*
X164109358Y-57580880D01*
X164109356Y-57580875D01*
X164017315Y-57431654D01*
X163893344Y-57307683D01*
X163893341Y-57307681D01*
X163890339Y-57305829D01*
X163888713Y-57304021D01*
X163887677Y-57303202D01*
X163887817Y-57303024D01*
X163843617Y-57253880D01*
X163832397Y-57184917D01*
X163860243Y-57120836D01*
X163890344Y-57094754D01*
X163893656Y-57092712D01*
X164017712Y-56968656D01*
X164109814Y-56819334D01*
X164164999Y-56652797D01*
X164175500Y-56550009D01*
X164175499Y-56040013D01*
X165245000Y-56040013D01*
X165245000Y-56090000D01*
X166220000Y-56090000D01*
X166720000Y-56090000D01*
X167694999Y-56090000D01*
X167694999Y-56040028D01*
X167694998Y-56040013D01*
X167684505Y-55937302D01*
X167629358Y-55770880D01*
X167629356Y-55770875D01*
X167537315Y-55621654D01*
X167413345Y-55497684D01*
X167264124Y-55405643D01*
X167264119Y-55405641D01*
X167097697Y-55350494D01*
X167097690Y-55350493D01*
X166994986Y-55340000D01*
X166720000Y-55340000D01*
X166720000Y-56090000D01*
X166220000Y-56090000D01*
X166220000Y-55340000D01*
X165945029Y-55340000D01*
X165945012Y-55340001D01*
X165842302Y-55350494D01*
X165675880Y-55405641D01*
X165675875Y-55405643D01*
X165526654Y-55497684D01*
X165402684Y-55621654D01*
X165310643Y-55770875D01*
X165310641Y-55770880D01*
X165255494Y-55937302D01*
X165255493Y-55937309D01*
X165245000Y-56040013D01*
X164175499Y-56040013D01*
X164175499Y-55949992D01*
X164174203Y-55937309D01*
X164164999Y-55847203D01*
X164164998Y-55847200D01*
X164139706Y-55770875D01*
X164109814Y-55680666D01*
X164017712Y-55531344D01*
X163893656Y-55407288D01*
X163784564Y-55340000D01*
X163744336Y-55315187D01*
X163744331Y-55315185D01*
X163721281Y-55307547D01*
X163577797Y-55260001D01*
X163577795Y-55260000D01*
X163475010Y-55249500D01*
X162424998Y-55249500D01*
X162424980Y-55249501D01*
X162322203Y-55260000D01*
X162322200Y-55260001D01*
X162155668Y-55315185D01*
X162155663Y-55315187D01*
X162006342Y-55407289D01*
X161882287Y-55531344D01*
X161876580Y-55540598D01*
X161824632Y-55587322D01*
X161771042Y-55599500D01*
X160488411Y-55599500D01*
X160421372Y-55579815D01*
X160382872Y-55540597D01*
X160369339Y-55518656D01*
X160321367Y-55440881D01*
X160197311Y-55316825D01*
X160085199Y-55247674D01*
X160047991Y-55224724D01*
X160047986Y-55224722D01*
X160046517Y-55224235D01*
X159881452Y-55169538D01*
X159881450Y-55169537D01*
X159778665Y-55159037D01*
X158778653Y-55159037D01*
X158778635Y-55159038D01*
X158675858Y-55169537D01*
X158675855Y-55169538D01*
X158509323Y-55224722D01*
X158509318Y-55224724D01*
X158359997Y-55316826D01*
X158235944Y-55440879D01*
X158143842Y-55590200D01*
X158143841Y-55590203D01*
X158088656Y-55756740D01*
X158088656Y-55756741D01*
X158088655Y-55756741D01*
X158078155Y-55859520D01*
X158078155Y-56401228D01*
X158058470Y-56468267D01*
X158041836Y-56488909D01*
X157723379Y-56807366D01*
X157723378Y-56807368D01*
X157677854Y-56875501D01*
X157669716Y-56887681D01*
X157652190Y-56913909D01*
X157652188Y-56913912D01*
X157603154Y-57032292D01*
X157603152Y-57032298D01*
X157578155Y-57157965D01*
X157578155Y-58343077D01*
X157558470Y-58410116D01*
X157505666Y-58455871D01*
X157478348Y-58464694D01*
X157409746Y-58478340D01*
X157409741Y-58478342D01*
X157267533Y-58537247D01*
X157267175Y-58536385D01*
X157214815Y-58549500D01*
X157120808Y-58549500D01*
X157053769Y-58529815D01*
X157033127Y-58513181D01*
X151682128Y-53162181D01*
X151648643Y-53100858D01*
X151653627Y-53031166D01*
X151695499Y-52975233D01*
X151760963Y-52950816D01*
X151769809Y-52950500D01*
X157275501Y-52950500D01*
X157342540Y-52970185D01*
X157388295Y-53022989D01*
X157399501Y-53074500D01*
X157399501Y-53250018D01*
X157410000Y-53352796D01*
X157410001Y-53352799D01*
X157457907Y-53497367D01*
X157465186Y-53519334D01*
X157557288Y-53668656D01*
X157681344Y-53792712D01*
X157830666Y-53884814D01*
X157997203Y-53939999D01*
X158099991Y-53950500D01*
X159500008Y-53950499D01*
X159602797Y-53939999D01*
X159769334Y-53884814D01*
X159918656Y-53792712D01*
X160042712Y-53668656D01*
X160134814Y-53519334D01*
X160189999Y-53352797D01*
X160200500Y-53250009D01*
X160200500Y-52951096D01*
X168500000Y-52951096D01*
X168502897Y-52993824D01*
X168548831Y-53178523D01*
X168633390Y-53349022D01*
X168633392Y-53349025D01*
X168752632Y-53497366D01*
X168752633Y-53497367D01*
X168900974Y-53616607D01*
X168900977Y-53616609D01*
X169071476Y-53701168D01*
X169256175Y-53747102D01*
X169298903Y-53750000D01*
X169750000Y-53750000D01*
X169750000Y-52750000D01*
X168500000Y-52750000D01*
X168500000Y-52951096D01*
X160200500Y-52951096D01*
X160200499Y-51561454D01*
X160220184Y-51494416D01*
X160236813Y-51473779D01*
X161987821Y-49722771D01*
X162049142Y-49689288D01*
X162118834Y-49694272D01*
G37*
%TD.AperFunction*%
%TA.AperFunction,Conductor*%
G36*
X173395016Y-46465067D02*
G01*
X173426609Y-46487976D01*
X173481393Y-46542760D01*
X173514878Y-46604083D01*
X173509894Y-46673775D01*
X173468022Y-46729708D01*
X173402558Y-46754125D01*
X173381110Y-46753799D01*
X173294988Y-46745000D01*
X173050000Y-46745000D01*
X173050000Y-47702500D01*
X173994999Y-47702500D01*
X173994999Y-47445028D01*
X173994998Y-47445013D01*
X173986200Y-47358889D01*
X173998970Y-47290196D01*
X174046850Y-47239312D01*
X174114640Y-47222391D01*
X174180816Y-47244807D01*
X174197239Y-47258606D01*
X176321585Y-49382952D01*
X176345429Y-49398883D01*
X176358342Y-49407512D01*
X176358345Y-49407513D01*
X176362373Y-49410205D01*
X176444505Y-49465084D01*
X176501080Y-49488518D01*
X176581088Y-49521659D01*
X176697241Y-49544763D01*
X176716468Y-49548587D01*
X176726081Y-49550500D01*
X176726082Y-49550500D01*
X176726083Y-49550500D01*
X176873918Y-49550500D01*
X182444699Y-49550500D01*
X182511738Y-49570185D01*
X182557493Y-49622989D01*
X182562403Y-49635492D01*
X182590186Y-49719334D01*
X182682288Y-49868656D01*
X182806344Y-49992712D01*
X182955666Y-50084814D01*
X183122203Y-50139999D01*
X183224991Y-50150500D01*
X184775008Y-50150499D01*
X184877797Y-50139999D01*
X185044334Y-50084814D01*
X185193656Y-49992712D01*
X185317712Y-49868656D01*
X185409814Y-49719334D01*
X185464999Y-49552797D01*
X185475500Y-49450009D01*
X185475499Y-48994805D01*
X185495183Y-48927768D01*
X185547987Y-48882013D01*
X185617146Y-48872069D01*
X185680702Y-48901094D01*
X185687180Y-48907126D01*
X187213181Y-50433127D01*
X187246666Y-50494450D01*
X187249500Y-50520808D01*
X187249500Y-53125731D01*
X187229815Y-53192770D01*
X187177011Y-53238525D01*
X187121194Y-53249109D01*
X187121194Y-53249500D01*
X187119136Y-53249500D01*
X187118857Y-53249553D01*
X187117876Y-53249500D01*
X187117873Y-53249500D01*
X187117869Y-53249500D01*
X185840808Y-53249500D01*
X185773769Y-53229815D01*
X185753127Y-53213181D01*
X185434674Y-52894727D01*
X185434673Y-52894726D01*
X185434669Y-52894723D01*
X185328127Y-52823535D01*
X185209744Y-52774499D01*
X185209738Y-52774497D01*
X185084071Y-52749500D01*
X185084069Y-52749500D01*
X175470808Y-52749500D01*
X175403769Y-52729815D01*
X175383127Y-52713181D01*
X173871138Y-51201192D01*
X173837653Y-51139869D01*
X173842637Y-51070177D01*
X173853275Y-51048424D01*
X173929814Y-50924334D01*
X173984999Y-50757797D01*
X173995500Y-50655009D01*
X173995499Y-49639992D01*
X173984999Y-49537203D01*
X173929814Y-49370666D01*
X173837712Y-49221344D01*
X173753695Y-49137327D01*
X173720210Y-49076004D01*
X173725194Y-49006312D01*
X173753695Y-48961964D01*
X173837317Y-48878342D01*
X173929356Y-48729124D01*
X173929358Y-48729119D01*
X173984505Y-48562697D01*
X173984506Y-48562690D01*
X173994999Y-48459986D01*
X173995000Y-48459973D01*
X173995000Y-48202500D01*
X172924000Y-48202500D01*
X172856961Y-48182815D01*
X172811206Y-48130011D01*
X172800000Y-48078500D01*
X172800000Y-47952500D01*
X172674000Y-47952500D01*
X172606961Y-47932815D01*
X172561206Y-47880011D01*
X172550000Y-47828500D01*
X172550000Y-46745000D01*
X172544613Y-46739613D01*
X172511128Y-46678290D01*
X172516112Y-46608598D01*
X172544610Y-46564255D01*
X172617049Y-46491816D01*
X172678373Y-46458332D01*
X172704729Y-46455499D01*
X173295003Y-46455499D01*
X173295008Y-46455499D01*
X173326325Y-46452299D01*
X173395016Y-46465067D01*
G37*
%TD.AperFunction*%
%TA.AperFunction,Conductor*%
G36*
X189442539Y-34520185D02*
G01*
X189488294Y-34572989D01*
X189499500Y-34624500D01*
X189499500Y-96435500D01*
X189479815Y-96502539D01*
X189427011Y-96548294D01*
X189375500Y-96559500D01*
X140674500Y-96559500D01*
X140607461Y-96539815D01*
X140561706Y-96487011D01*
X140550500Y-96435500D01*
X140550500Y-95113389D01*
X148399500Y-95113389D01*
X148399500Y-95286611D01*
X148426598Y-95457701D01*
X148480127Y-95622445D01*
X148558768Y-95776788D01*
X148660586Y-95916928D01*
X148783072Y-96039414D01*
X148923212Y-96141232D01*
X149077555Y-96219873D01*
X149242299Y-96273402D01*
X149413389Y-96300500D01*
X149413390Y-96300500D01*
X149586610Y-96300500D01*
X149586611Y-96300500D01*
X149757701Y-96273402D01*
X149922445Y-96219873D01*
X150076788Y-96141232D01*
X150216928Y-96039414D01*
X150339414Y-95916928D01*
X150441232Y-95776788D01*
X150519873Y-95622445D01*
X150573402Y-95457701D01*
X150600500Y-95286611D01*
X150600500Y-95113389D01*
X150573402Y-94942299D01*
X150519873Y-94777555D01*
X150441232Y-94623212D01*
X150339414Y-94483072D01*
X150216928Y-94360586D01*
X150076788Y-94258768D01*
X149922445Y-94180127D01*
X149757701Y-94126598D01*
X149757699Y-94126597D01*
X149757698Y-94126597D01*
X149626271Y-94105781D01*
X149586611Y-94099500D01*
X149413389Y-94099500D01*
X149373728Y-94105781D01*
X149242302Y-94126597D01*
X149077552Y-94180128D01*
X148923211Y-94258768D01*
X148843256Y-94316859D01*
X148783072Y-94360586D01*
X148783070Y-94360588D01*
X148783069Y-94360588D01*
X148660588Y-94483069D01*
X148660588Y-94483070D01*
X148660586Y-94483072D01*
X148626415Y-94530104D01*
X148558768Y-94623211D01*
X148480128Y-94777552D01*
X148426597Y-94942302D01*
X148399500Y-95113389D01*
X140550500Y-95113389D01*
X140550500Y-93393713D01*
X142149500Y-93393713D01*
X142149500Y-93606286D01*
X142182753Y-93816239D01*
X142248444Y-94018414D01*
X142344951Y-94207820D01*
X142469890Y-94379786D01*
X142620213Y-94530109D01*
X142792179Y-94655048D01*
X142792181Y-94655049D01*
X142792184Y-94655051D01*
X142981588Y-94751557D01*
X143183757Y-94817246D01*
X143393713Y-94850500D01*
X143393714Y-94850500D01*
X143606286Y-94850500D01*
X143606287Y-94850500D01*
X143816243Y-94817246D01*
X144018412Y-94751557D01*
X144207816Y-94655051D01*
X144251640Y-94623211D01*
X144379786Y-94530109D01*
X144379788Y-94530106D01*
X144379792Y-94530104D01*
X144530104Y-94379792D01*
X144530106Y-94379788D01*
X144530109Y-94379786D01*
X144655048Y-94207820D01*
X144655047Y-94207820D01*
X144655051Y-94207816D01*
X144751557Y-94018412D01*
X144817246Y-93816243D01*
X144850500Y-93606287D01*
X144850500Y-93393713D01*
X144817246Y-93183757D01*
X144751557Y-92981588D01*
X144655051Y-92792184D01*
X144655049Y-92792181D01*
X144655048Y-92792179D01*
X144530109Y-92620213D01*
X144379786Y-92469890D01*
X144207820Y-92344951D01*
X144018414Y-92248444D01*
X144018413Y-92248443D01*
X144018412Y-92248443D01*
X143816243Y-92182754D01*
X143816241Y-92182753D01*
X143816240Y-92182753D01*
X143654957Y-92157208D01*
X143606287Y-92149500D01*
X143393713Y-92149500D01*
X143345042Y-92157208D01*
X143183760Y-92182753D01*
X142981585Y-92248444D01*
X142792179Y-92344951D01*
X142620213Y-92469890D01*
X142469890Y-92620213D01*
X142344951Y-92792179D01*
X142248444Y-92981585D01*
X142182753Y-93183760D01*
X142149500Y-93393713D01*
X140550500Y-93393713D01*
X140550500Y-72549986D01*
X148600001Y-72549986D01*
X148610494Y-72652697D01*
X148665641Y-72819119D01*
X148665643Y-72819124D01*
X148757684Y-72968345D01*
X148881654Y-73092315D01*
X149030875Y-73184356D01*
X149030880Y-73184358D01*
X149197302Y-73239505D01*
X149197309Y-73239506D01*
X149300019Y-73249999D01*
X149749999Y-73249999D01*
X150250000Y-73249999D01*
X150699972Y-73249999D01*
X150699986Y-73249998D01*
X150802697Y-73239505D01*
X150969119Y-73184358D01*
X150969124Y-73184356D01*
X151118345Y-73092315D01*
X151242315Y-72968345D01*
X151334356Y-72819124D01*
X151334358Y-72819119D01*
X151389505Y-72652697D01*
X151389506Y-72652690D01*
X151399999Y-72549986D01*
X151400000Y-72549973D01*
X151400000Y-71750000D01*
X150250000Y-71750000D01*
X150250000Y-73249999D01*
X149749999Y-73249999D01*
X149750000Y-73249998D01*
X149750000Y-71750000D01*
X148600001Y-71750000D01*
X148600001Y-72549986D01*
X140550500Y-72549986D01*
X140550500Y-70450013D01*
X148600000Y-70450013D01*
X148600000Y-71250000D01*
X149750000Y-71250000D01*
X150250000Y-71250000D01*
X151399999Y-71250000D01*
X151399999Y-70450028D01*
X151399998Y-70450013D01*
X151389505Y-70347302D01*
X151334358Y-70180880D01*
X151334356Y-70180875D01*
X151242315Y-70031654D01*
X151118345Y-69907684D01*
X150969124Y-69815643D01*
X150969119Y-69815641D01*
X150802697Y-69760494D01*
X150802690Y-69760493D01*
X150699986Y-69750000D01*
X150250000Y-69750000D01*
X150250000Y-71250000D01*
X149750000Y-71250000D01*
X149750000Y-69750000D01*
X149300028Y-69750000D01*
X149300012Y-69750001D01*
X149197302Y-69760494D01*
X149030880Y-69815641D01*
X149030875Y-69815643D01*
X148881654Y-69907684D01*
X148757684Y-70031654D01*
X148665643Y-70180875D01*
X148665641Y-70180880D01*
X148610494Y-70347302D01*
X148610493Y-70347309D01*
X148600000Y-70450013D01*
X140550500Y-70450013D01*
X140550500Y-52749983D01*
X141199500Y-52749983D01*
X141199500Y-54850001D01*
X141199501Y-54850018D01*
X141210000Y-54952796D01*
X141210001Y-54952799D01*
X141225675Y-55000099D01*
X141265186Y-55119334D01*
X141357288Y-55268656D01*
X141481344Y-55392712D01*
X141630666Y-55484814D01*
X141797203Y-55539999D01*
X141848597Y-55545249D01*
X141899990Y-55550500D01*
X141902903Y-55550648D01*
X141968857Y-55573707D01*
X141999717Y-55605599D01*
X142017048Y-55631538D01*
X142223329Y-55837819D01*
X142256814Y-55899142D01*
X142251830Y-55968834D01*
X142209958Y-56024767D01*
X142144494Y-56049184D01*
X142135649Y-56049500D01*
X141899999Y-56049500D01*
X141899980Y-56049501D01*
X141797203Y-56060000D01*
X141797200Y-56060001D01*
X141630668Y-56115185D01*
X141630663Y-56115187D01*
X141481342Y-56207289D01*
X141357289Y-56331342D01*
X141265187Y-56480663D01*
X141265185Y-56480668D01*
X141255282Y-56510554D01*
X141210001Y-56647203D01*
X141210001Y-56647204D01*
X141210000Y-56647204D01*
X141199500Y-56749983D01*
X141199500Y-58850001D01*
X141199501Y-58850018D01*
X141210000Y-58952796D01*
X141210001Y-58952799D01*
X141265185Y-59119331D01*
X141265187Y-59119336D01*
X141292613Y-59163800D01*
X141357288Y-59268656D01*
X141481344Y-59392712D01*
X141630666Y-59484814D01*
X141797203Y-59539999D01*
X141838103Y-59544177D01*
X141902793Y-59570573D01*
X141942945Y-59627753D01*
X141949500Y-59667535D01*
X141949500Y-63264070D01*
X141964163Y-63337781D01*
X141964163Y-63337783D01*
X141973308Y-63383760D01*
X141974499Y-63389744D01*
X142023535Y-63508127D01*
X142080721Y-63593713D01*
X142094726Y-63614673D01*
X142094727Y-63614674D01*
X143135686Y-64655631D01*
X143169171Y-64716954D01*
X143165936Y-64781630D01*
X143132754Y-64883752D01*
X143132754Y-64883755D01*
X143115088Y-64995297D01*
X143099500Y-65093713D01*
X143099500Y-65306287D01*
X143109534Y-65369644D01*
X143126328Y-65475675D01*
X143132754Y-65516243D01*
X143194175Y-65705277D01*
X143198444Y-65718414D01*
X143294951Y-65907820D01*
X143419890Y-66079786D01*
X143570213Y-66230109D01*
X143742179Y-66355048D01*
X143742181Y-66355049D01*
X143742184Y-66355051D01*
X143931588Y-66451557D01*
X144133757Y-66517246D01*
X144343713Y-66550500D01*
X144343714Y-66550500D01*
X144856286Y-66550500D01*
X144856287Y-66550500D01*
X145066243Y-66517246D01*
X145268412Y-66451557D01*
X145457816Y-66355051D01*
X145524281Y-66306762D01*
X145629786Y-66230109D01*
X145629788Y-66230106D01*
X145629792Y-66230104D01*
X145780104Y-66079792D01*
X145780106Y-66079788D01*
X145780109Y-66079786D01*
X145907915Y-65903875D01*
X145909259Y-65904851D01*
X145955705Y-65862834D01*
X146009618Y-65850500D01*
X146025333Y-65850500D01*
X146109877Y-65833682D01*
X146151006Y-65825501D01*
X146269389Y-65776465D01*
X146375931Y-65705277D01*
X146788042Y-65293166D01*
X147041223Y-65039986D01*
X158275001Y-65039986D01*
X158285494Y-65142697D01*
X158340641Y-65309119D01*
X158340643Y-65309124D01*
X158432684Y-65458345D01*
X158556654Y-65582315D01*
X158705875Y-65674356D01*
X158705880Y-65674358D01*
X158872302Y-65729505D01*
X158872309Y-65729506D01*
X158975019Y-65739999D01*
X159249999Y-65739999D01*
X159250000Y-65739998D01*
X159250000Y-64990000D01*
X158275001Y-64990000D01*
X158275001Y-65039986D01*
X147041223Y-65039986D01*
X147230252Y-64850957D01*
X153392772Y-58688436D01*
X153392777Y-58688431D01*
X153448429Y-58605139D01*
X153502040Y-58560335D01*
X153541801Y-58550412D01*
X153577569Y-58547598D01*
X153577571Y-58547597D01*
X153577573Y-58547597D01*
X153638778Y-58529815D01*
X153735398Y-58501744D01*
X153876865Y-58418081D01*
X153993081Y-58301865D01*
X154076744Y-58160398D01*
X154122598Y-58002569D01*
X154125500Y-57965694D01*
X154125500Y-57744808D01*
X154145185Y-57677769D01*
X154197989Y-57632014D01*
X154267147Y-57622070D01*
X154330703Y-57651095D01*
X154337181Y-57657127D01*
X156385325Y-59705272D01*
X156385332Y-59705278D01*
X156491863Y-59776459D01*
X156491865Y-59776460D01*
X156491874Y-59776466D01*
X156526012Y-59790606D01*
X156610256Y-59825501D01*
X156610260Y-59825501D01*
X156610261Y-59825502D01*
X156735928Y-59850500D01*
X156735931Y-59850500D01*
X157214815Y-59850500D01*
X157267175Y-59863614D01*
X157267533Y-59862753D01*
X157273159Y-59865083D01*
X157273160Y-59865084D01*
X157409742Y-59921658D01*
X157409746Y-59921658D01*
X157409747Y-59921659D01*
X157478347Y-59935305D01*
X157540258Y-59967690D01*
X157574832Y-60028406D01*
X157578155Y-60056922D01*
X157578155Y-63283182D01*
X157599776Y-63391873D01*
X157602742Y-63406783D01*
X157603154Y-63408855D01*
X157648635Y-63518657D01*
X157652190Y-63527238D01*
X157710612Y-63614674D01*
X157723381Y-63633784D01*
X158266605Y-64177008D01*
X158300090Y-64238331D01*
X158296631Y-64303690D01*
X158285494Y-64337301D01*
X158275000Y-64440013D01*
X158275000Y-64490000D01*
X159376000Y-64490000D01*
X159443039Y-64509685D01*
X159488794Y-64562489D01*
X159500000Y-64614000D01*
X159500000Y-64740000D01*
X159626000Y-64740000D01*
X159693039Y-64759685D01*
X159738794Y-64812489D01*
X159750000Y-64864000D01*
X159750000Y-65739999D01*
X159786319Y-65776318D01*
X159784528Y-65778108D01*
X159814318Y-65812488D01*
X159824262Y-65881646D01*
X159795237Y-65945202D01*
X159789205Y-65951680D01*
X153044727Y-72696157D01*
X153044726Y-72696158D01*
X152973534Y-72802706D01*
X152924499Y-72921087D01*
X152924497Y-72921093D01*
X152899500Y-73046760D01*
X152899500Y-74221042D01*
X152879815Y-74288081D01*
X152840598Y-74326580D01*
X152831344Y-74332287D01*
X152707289Y-74456342D01*
X152615187Y-74605663D01*
X152615186Y-74605666D01*
X152598380Y-74656385D01*
X152595689Y-74664505D01*
X152555916Y-74721949D01*
X152491400Y-74748772D01*
X152477983Y-74749500D01*
X151524499Y-74749500D01*
X151457460Y-74729815D01*
X151411705Y-74677011D01*
X151400499Y-74625500D01*
X151400499Y-74449998D01*
X151400498Y-74449981D01*
X151389999Y-74347203D01*
X151389998Y-74347200D01*
X151370408Y-74288081D01*
X151334814Y-74180666D01*
X151242712Y-74031344D01*
X151118656Y-73907288D01*
X150969334Y-73815186D01*
X150802797Y-73760001D01*
X150802795Y-73760000D01*
X150700010Y-73749500D01*
X149299998Y-73749500D01*
X149299981Y-73749501D01*
X149197203Y-73760000D01*
X149197200Y-73760001D01*
X149030668Y-73815185D01*
X149030663Y-73815187D01*
X148881342Y-73907289D01*
X148757289Y-74031342D01*
X148665187Y-74180663D01*
X148665185Y-74180668D01*
X148643139Y-74247200D01*
X148610001Y-74347203D01*
X148610001Y-74347204D01*
X148610000Y-74347204D01*
X148599500Y-74449983D01*
X148599500Y-76550001D01*
X148599501Y-76550018D01*
X148610000Y-76652796D01*
X148610001Y-76652799D01*
X148647181Y-76764998D01*
X148665186Y-76819334D01*
X148753379Y-76962319D01*
X148757289Y-76968657D01*
X148881346Y-77092714D01*
X148884182Y-77094463D01*
X148885717Y-77096170D01*
X148887011Y-77097193D01*
X148886836Y-77097414D01*
X148930905Y-77146411D01*
X148942126Y-77215374D01*
X148914282Y-77279456D01*
X148884182Y-77305537D01*
X148881346Y-77307285D01*
X148757289Y-77431342D01*
X148665187Y-77580663D01*
X148665185Y-77580668D01*
X148646402Y-77637351D01*
X148610001Y-77747203D01*
X148610001Y-77747204D01*
X148610000Y-77747204D01*
X148599500Y-77849983D01*
X148599500Y-79950001D01*
X148599501Y-79950018D01*
X148610000Y-80052796D01*
X148610001Y-80052799D01*
X148629950Y-80112999D01*
X148665186Y-80219334D01*
X148757288Y-80368656D01*
X148881344Y-80492712D01*
X149030666Y-80584814D01*
X149197203Y-80639999D01*
X149299991Y-80650500D01*
X150700008Y-80650499D01*
X150802797Y-80639999D01*
X150969334Y-80584814D01*
X151118656Y-80492712D01*
X151242712Y-80368656D01*
X151334814Y-80219334D01*
X151389999Y-80052797D01*
X151400500Y-79950009D01*
X151400499Y-77849992D01*
X151399873Y-77843868D01*
X151389999Y-77747203D01*
X151389998Y-77747200D01*
X151384943Y-77731946D01*
X151334814Y-77580666D01*
X151242712Y-77431344D01*
X151118656Y-77307288D01*
X151115819Y-77305538D01*
X151114283Y-77303830D01*
X151112989Y-77302807D01*
X151113163Y-77302585D01*
X151069096Y-77253594D01*
X151057872Y-77184632D01*
X151085713Y-77120549D01*
X151115817Y-77094462D01*
X151118656Y-77092712D01*
X151242712Y-76968656D01*
X151334814Y-76819334D01*
X151389999Y-76652797D01*
X151400500Y-76550009D01*
X151400500Y-76174500D01*
X151420185Y-76107461D01*
X151472989Y-76061706D01*
X151524500Y-76050500D01*
X152477983Y-76050500D01*
X152545022Y-76070185D01*
X152590777Y-76122989D01*
X152595686Y-76135489D01*
X152615186Y-76194334D01*
X152707288Y-76343656D01*
X152831344Y-76467712D01*
X152980666Y-76559814D01*
X153147203Y-76614999D01*
X153249991Y-76625500D01*
X153804191Y-76625499D01*
X153871230Y-76645183D01*
X153891872Y-76661818D01*
X154625681Y-77395627D01*
X154659166Y-77456950D01*
X154662000Y-77483308D01*
X154662000Y-77738331D01*
X154642315Y-77805370D01*
X154621223Y-77830254D01*
X154612779Y-77837898D01*
X154581344Y-77857288D01*
X154485505Y-77953126D01*
X154483223Y-77955193D01*
X154454425Y-77969110D01*
X154426358Y-77984436D01*
X154423182Y-77984208D01*
X154420314Y-77985595D01*
X154388562Y-77981733D01*
X154356666Y-77979452D01*
X154353598Y-77977480D01*
X154350956Y-77977159D01*
X154343570Y-77971035D01*
X154312319Y-77950951D01*
X154218657Y-77857289D01*
X154218656Y-77857288D01*
X154112674Y-77791918D01*
X154069336Y-77765187D01*
X154069331Y-77765185D01*
X154045496Y-77757287D01*
X153902797Y-77710001D01*
X153902795Y-77710000D01*
X153800010Y-77699500D01*
X153174998Y-77699500D01*
X153174980Y-77699501D01*
X153072203Y-77710000D01*
X153072200Y-77710001D01*
X152905668Y-77765185D01*
X152905663Y-77765187D01*
X152756342Y-77857289D01*
X152632289Y-77981342D01*
X152540187Y-78130663D01*
X152540186Y-78130666D01*
X152485001Y-78297203D01*
X152485001Y-78297204D01*
X152485000Y-78297204D01*
X152474500Y-78399983D01*
X152474500Y-79400001D01*
X152474501Y-79400019D01*
X152485000Y-79502796D01*
X152485001Y-79502799D01*
X152525752Y-79625776D01*
X152540186Y-79669334D01*
X152632288Y-79818656D01*
X152756344Y-79942712D01*
X152765591Y-79948416D01*
X152812318Y-80000360D01*
X152824500Y-80053957D01*
X152824500Y-81138331D01*
X152804815Y-81205370D01*
X152765600Y-81243868D01*
X152743843Y-81257288D01*
X152619789Y-81381342D01*
X152527687Y-81530663D01*
X152527685Y-81530668D01*
X152511117Y-81580668D01*
X152472501Y-81697203D01*
X152472501Y-81697204D01*
X152472500Y-81697204D01*
X152462000Y-81799983D01*
X152462000Y-82666691D01*
X152442315Y-82733730D01*
X152425681Y-82754372D01*
X151612180Y-83567873D01*
X151550857Y-83601358D01*
X151481165Y-83596374D01*
X151425232Y-83554502D01*
X151400815Y-83489038D01*
X151400499Y-83480192D01*
X151400499Y-81849998D01*
X151400498Y-81849981D01*
X151389999Y-81747203D01*
X151389998Y-81747200D01*
X151373431Y-81697204D01*
X151334814Y-81580666D01*
X151242712Y-81431344D01*
X151118656Y-81307288D01*
X151015835Y-81243868D01*
X150969336Y-81215187D01*
X150969331Y-81215185D01*
X150939711Y-81205370D01*
X150802797Y-81160001D01*
X150802795Y-81160000D01*
X150700010Y-81149500D01*
X149299998Y-81149500D01*
X149299981Y-81149501D01*
X149197203Y-81160000D01*
X149197200Y-81160001D01*
X149030668Y-81215185D01*
X149030663Y-81215187D01*
X148881342Y-81307289D01*
X148757289Y-81431342D01*
X148665187Y-81580663D01*
X148665185Y-81580668D01*
X148646845Y-81636015D01*
X148610001Y-81747203D01*
X148610001Y-81747204D01*
X148610000Y-81747204D01*
X148599500Y-81849983D01*
X148599500Y-83329191D01*
X148579815Y-83396230D01*
X148563181Y-83416872D01*
X146894722Y-85085331D01*
X146894718Y-85085336D01*
X146860914Y-85135930D01*
X146860914Y-85135931D01*
X146823534Y-85191874D01*
X146774499Y-85310255D01*
X146774497Y-85310261D01*
X146749500Y-85435928D01*
X146749500Y-85435931D01*
X146749500Y-92464069D01*
X146763795Y-92535931D01*
X146774499Y-92589744D01*
X146823535Y-92708127D01*
X146894723Y-92814669D01*
X146894726Y-92814673D01*
X146894727Y-92814674D01*
X147494724Y-93414669D01*
X147585326Y-93505271D01*
X147585332Y-93505277D01*
X147691866Y-93576461D01*
X147691872Y-93576464D01*
X147691873Y-93576465D01*
X147810256Y-93625501D01*
X147810260Y-93625501D01*
X147810261Y-93625502D01*
X147935928Y-93650500D01*
X147935931Y-93650500D01*
X158864071Y-93650500D01*
X158948615Y-93633682D01*
X158989744Y-93625501D01*
X159108127Y-93576465D01*
X159214669Y-93505277D01*
X159312319Y-93407626D01*
X159373640Y-93374142D01*
X159443331Y-93379126D01*
X159487680Y-93407627D01*
X159585324Y-93505271D01*
X159585331Y-93505277D01*
X159691871Y-93576464D01*
X159691870Y-93576464D01*
X159691875Y-93576466D01*
X159810256Y-93625501D01*
X159810260Y-93625501D01*
X159810261Y-93625502D01*
X159935928Y-93650500D01*
X159935931Y-93650500D01*
X181064071Y-93650500D01*
X181148615Y-93633682D01*
X181189744Y-93625501D01*
X181308127Y-93576465D01*
X181414669Y-93505277D01*
X181512319Y-93407627D01*
X181526233Y-93393713D01*
X185149500Y-93393713D01*
X185149500Y-93606286D01*
X185182753Y-93816239D01*
X185248444Y-94018414D01*
X185344951Y-94207820D01*
X185469890Y-94379786D01*
X185620213Y-94530109D01*
X185792179Y-94655048D01*
X185792181Y-94655049D01*
X185792184Y-94655051D01*
X185981588Y-94751557D01*
X186183757Y-94817246D01*
X186393713Y-94850500D01*
X186393714Y-94850500D01*
X186606286Y-94850500D01*
X186606287Y-94850500D01*
X186816243Y-94817246D01*
X187018412Y-94751557D01*
X187207816Y-94655051D01*
X187251640Y-94623211D01*
X187379786Y-94530109D01*
X187379788Y-94530106D01*
X187379792Y-94530104D01*
X187530104Y-94379792D01*
X187530106Y-94379788D01*
X187530109Y-94379786D01*
X187655048Y-94207820D01*
X187655047Y-94207820D01*
X187655051Y-94207816D01*
X187751557Y-94018412D01*
X187817246Y-93816243D01*
X187850500Y-93606287D01*
X187850500Y-93393713D01*
X187817246Y-93183757D01*
X187751557Y-92981588D01*
X187655051Y-92792184D01*
X187655049Y-92792181D01*
X187655048Y-92792179D01*
X187530109Y-92620213D01*
X187379786Y-92469890D01*
X187207820Y-92344951D01*
X187018414Y-92248444D01*
X187018413Y-92248443D01*
X187018412Y-92248443D01*
X186816243Y-92182754D01*
X186816241Y-92182753D01*
X186816240Y-92182753D01*
X186654957Y-92157208D01*
X186606287Y-92149500D01*
X186393713Y-92149500D01*
X186345042Y-92157208D01*
X186183760Y-92182753D01*
X185981585Y-92248444D01*
X185792179Y-92344951D01*
X185620213Y-92469890D01*
X185469890Y-92620213D01*
X185344951Y-92792179D01*
X185248444Y-92981585D01*
X185182753Y-93183760D01*
X185149500Y-93393713D01*
X181526233Y-93393713D01*
X181618787Y-93301160D01*
X182105273Y-92814672D01*
X182105272Y-92814672D01*
X182105276Y-92814669D01*
X182176465Y-92708127D01*
X182225501Y-92589744D01*
X182236205Y-92535931D01*
X182250500Y-92464069D01*
X182250500Y-85235931D01*
X182250500Y-85235928D01*
X182225502Y-85110261D01*
X182225501Y-85110260D01*
X182225501Y-85110256D01*
X182176465Y-84991873D01*
X182105277Y-84885331D01*
X182105275Y-84885329D01*
X182105273Y-84885326D01*
X179649318Y-82429371D01*
X179615833Y-82368048D01*
X179612999Y-82341690D01*
X179612999Y-82258308D01*
X179632684Y-82191269D01*
X179649318Y-82170627D01*
X184705272Y-77114674D01*
X184705273Y-77114673D01*
X184705273Y-77114672D01*
X184705277Y-77114669D01*
X184776465Y-77008127D01*
X184825501Y-76889744D01*
X184825501Y-76889740D01*
X184825503Y-76889737D01*
X184835993Y-76837000D01*
X184835993Y-76836999D01*
X184850500Y-76764071D01*
X184850500Y-70874500D01*
X184870185Y-70807461D01*
X184922989Y-70761706D01*
X184974500Y-70750500D01*
X185073920Y-70750500D01*
X185171462Y-70731096D01*
X185218913Y-70721658D01*
X185355495Y-70665084D01*
X185478416Y-70582951D01*
X185582951Y-70478416D01*
X185665084Y-70355495D01*
X185669913Y-70343837D01*
X185696793Y-70303608D01*
X188405271Y-67595131D01*
X188405271Y-67595130D01*
X188405276Y-67595126D01*
X188476465Y-67488583D01*
X188525501Y-67370200D01*
X188529618Y-67349501D01*
X188550500Y-67244525D01*
X188550500Y-50135931D01*
X188550500Y-50135928D01*
X188525502Y-50010261D01*
X188525501Y-50010260D01*
X188525501Y-50010256D01*
X188476465Y-49891873D01*
X188441386Y-49839373D01*
X188441386Y-49839372D01*
X188405275Y-49785328D01*
X188405272Y-49785325D01*
X185445443Y-46825497D01*
X185411958Y-46764174D01*
X185415193Y-46699498D01*
X185442246Y-46616243D01*
X185475500Y-46406287D01*
X185475500Y-46193713D01*
X185442246Y-45983757D01*
X185376557Y-45781588D01*
X185280051Y-45592184D01*
X185280049Y-45592181D01*
X185280048Y-45592179D01*
X185155109Y-45420213D01*
X185004790Y-45269894D01*
X185004785Y-45269890D01*
X184839781Y-45150008D01*
X184797115Y-45094678D01*
X184791136Y-45025065D01*
X184823741Y-44963270D01*
X184839781Y-44949371D01*
X185004466Y-44829721D01*
X185154723Y-44679464D01*
X185154727Y-44679459D01*
X185279620Y-44507557D01*
X185376095Y-44318217D01*
X185441757Y-44116129D01*
X185441757Y-44116126D01*
X185452231Y-44050000D01*
X184404146Y-44050000D01*
X184442630Y-43983343D01*
X184475000Y-43862535D01*
X184475000Y-43737465D01*
X184442630Y-43616657D01*
X184404146Y-43550000D01*
X185452231Y-43550000D01*
X185441757Y-43483873D01*
X185441757Y-43483870D01*
X185376095Y-43281782D01*
X185279620Y-43092442D01*
X185154727Y-42920540D01*
X185154723Y-42920535D01*
X185004464Y-42770276D01*
X185004459Y-42770272D01*
X184832557Y-42645379D01*
X184643217Y-42548904D01*
X184441128Y-42483242D01*
X184250000Y-42452969D01*
X184250000Y-43395854D01*
X184183343Y-43357370D01*
X184062535Y-43325000D01*
X183937465Y-43325000D01*
X183816657Y-43357370D01*
X183750000Y-43395854D01*
X183750000Y-42452969D01*
X183558872Y-42483242D01*
X183558869Y-42483242D01*
X183356782Y-42548904D01*
X183167442Y-42645379D01*
X182995540Y-42770272D01*
X182995535Y-42770276D01*
X182845276Y-42920535D01*
X182845272Y-42920540D01*
X182720379Y-43092442D01*
X182623904Y-43281782D01*
X182558242Y-43483870D01*
X182558242Y-43483873D01*
X182547769Y-43550000D01*
X183595854Y-43550000D01*
X183557370Y-43616657D01*
X183525000Y-43737465D01*
X183525000Y-43862535D01*
X183557370Y-43983343D01*
X183595854Y-44050000D01*
X182547769Y-44050000D01*
X182558242Y-44116126D01*
X182558242Y-44116129D01*
X182623904Y-44318217D01*
X182720379Y-44507557D01*
X182845272Y-44679459D01*
X182845276Y-44679464D01*
X182995535Y-44829723D01*
X182995540Y-44829727D01*
X183160218Y-44949372D01*
X183202884Y-45004701D01*
X183208863Y-45074315D01*
X183176258Y-45136110D01*
X183160218Y-45150008D01*
X182995214Y-45269890D01*
X182995209Y-45269894D01*
X182844890Y-45420213D01*
X182719951Y-45592179D01*
X182623444Y-45781585D01*
X182557753Y-45983760D01*
X182544755Y-46065826D01*
X182524500Y-46193713D01*
X182524500Y-46406287D01*
X182532743Y-46458332D01*
X182557753Y-46616239D01*
X182557753Y-46616241D01*
X182557754Y-46616243D01*
X182618865Y-46804323D01*
X182623444Y-46818414D01*
X182719951Y-47007820D01*
X182844890Y-47179786D01*
X182983705Y-47318601D01*
X183017190Y-47379924D01*
X183012206Y-47449616D01*
X182970334Y-47505549D01*
X182961121Y-47511821D01*
X182806342Y-47607289D01*
X182682289Y-47731342D01*
X182590187Y-47880663D01*
X182590185Y-47880668D01*
X182562405Y-47964504D01*
X182522632Y-48021949D01*
X182458116Y-48048772D01*
X182444699Y-48049500D01*
X177162229Y-48049500D01*
X177095190Y-48029815D01*
X177074548Y-48013181D01*
X174031818Y-44970450D01*
X173998333Y-44909127D01*
X173995499Y-44882769D01*
X173995499Y-44739998D01*
X173995498Y-44739981D01*
X173984999Y-44637203D01*
X173984998Y-44637200D01*
X173970255Y-44592710D01*
X173929814Y-44470666D01*
X173837712Y-44321344D01*
X173713656Y-44197288D01*
X173564334Y-44105186D01*
X173397797Y-44050001D01*
X173397795Y-44050000D01*
X173295010Y-44039500D01*
X172304998Y-44039500D01*
X172304980Y-44039501D01*
X172202203Y-44050000D01*
X172202200Y-44050001D01*
X172035668Y-44105185D01*
X172035663Y-44105187D01*
X171886342Y-44197289D01*
X171762289Y-44321342D01*
X171670187Y-44470663D01*
X171670185Y-44470668D01*
X171642349Y-44554670D01*
X171615001Y-44637203D01*
X171615001Y-44637204D01*
X171615000Y-44637204D01*
X171604500Y-44739983D01*
X171604500Y-45330270D01*
X171584815Y-45397309D01*
X171568181Y-45417951D01*
X170372950Y-46613181D01*
X170311627Y-46646666D01*
X170285269Y-46649500D01*
X169298877Y-46649500D01*
X169298874Y-46649501D01*
X169256113Y-46652399D01*
X169256112Y-46652399D01*
X169071303Y-46698360D01*
X168900707Y-46782967D01*
X168900704Y-46782969D01*
X168752278Y-46902277D01*
X168752277Y-46902278D01*
X168630974Y-47053187D01*
X168573631Y-47093106D01*
X168534327Y-47099500D01*
X162725302Y-47099500D01*
X162696468Y-47105234D01*
X162696469Y-47105235D01*
X162580318Y-47128339D01*
X162580312Y-47128341D01*
X162532867Y-47147994D01*
X162532860Y-47147997D01*
X162528045Y-47149992D01*
X162443731Y-47184916D01*
X162389268Y-47221307D01*
X162383489Y-47225168D01*
X162383480Y-47225173D01*
X162320808Y-47267049D01*
X160412180Y-49175677D01*
X160350857Y-49209162D01*
X160281165Y-49204178D01*
X160225232Y-49162306D01*
X160200815Y-49096842D01*
X160200499Y-49088021D01*
X160200499Y-47149992D01*
X160189999Y-47047203D01*
X160134814Y-46880666D01*
X160042712Y-46731344D01*
X159986048Y-46674680D01*
X159952563Y-46613357D01*
X159957547Y-46543665D01*
X159999419Y-46487732D01*
X160064883Y-46463315D01*
X160073729Y-46462999D01*
X160500002Y-46462999D01*
X160500008Y-46462999D01*
X160602797Y-46452499D01*
X160769334Y-46397314D01*
X160918656Y-46305212D01*
X161037049Y-46186819D01*
X161098372Y-46153334D01*
X161124730Y-46150500D01*
X162273920Y-46150500D01*
X162371462Y-46131096D01*
X162418913Y-46121658D01*
X162555495Y-46065084D01*
X162616482Y-46024334D01*
X162616482Y-46024333D01*
X162616484Y-46024333D01*
X162647449Y-46003643D01*
X162678416Y-45982952D01*
X163874548Y-44786817D01*
X163935871Y-44753333D01*
X163962229Y-44750499D01*
X165550002Y-44750499D01*
X165550008Y-44750499D01*
X165652797Y-44739999D01*
X165819334Y-44684814D01*
X165968656Y-44592712D01*
X166092712Y-44468656D01*
X166184814Y-44319334D01*
X166239999Y-44152797D01*
X166250500Y-44050009D01*
X166250500Y-44049986D01*
X167050001Y-44049986D01*
X167060494Y-44152697D01*
X167115641Y-44319119D01*
X167115643Y-44319124D01*
X167207684Y-44468345D01*
X167331654Y-44592315D01*
X167480875Y-44684356D01*
X167480880Y-44684358D01*
X167647302Y-44739505D01*
X167647309Y-44739506D01*
X167750019Y-44749999D01*
X168549999Y-44749999D01*
X169050000Y-44749999D01*
X169849972Y-44749999D01*
X169849986Y-44749998D01*
X169952697Y-44739505D01*
X170119119Y-44684358D01*
X170119124Y-44684356D01*
X170268345Y-44592315D01*
X170392315Y-44468345D01*
X170484356Y-44319124D01*
X170484358Y-44319119D01*
X170539505Y-44152697D01*
X170539506Y-44152690D01*
X170549999Y-44049986D01*
X170550000Y-44049973D01*
X170550000Y-43350000D01*
X169050000Y-43350000D01*
X169050000Y-44749999D01*
X168549999Y-44749999D01*
X168550000Y-44749998D01*
X168550000Y-43350000D01*
X167050001Y-43350000D01*
X167050001Y-44049986D01*
X166250500Y-44049986D01*
X166250499Y-43092442D01*
X166250499Y-42150013D01*
X167050000Y-42150013D01*
X167050000Y-42850000D01*
X168550000Y-42850000D01*
X169050000Y-42850000D01*
X170549999Y-42850000D01*
X170549999Y-42150028D01*
X170549998Y-42150013D01*
X170539505Y-42047302D01*
X170484358Y-41880880D01*
X170484356Y-41880875D01*
X170392315Y-41731654D01*
X170268345Y-41607684D01*
X170119124Y-41515643D01*
X170119119Y-41515641D01*
X169952697Y-41460494D01*
X169952690Y-41460493D01*
X169849986Y-41450000D01*
X169050000Y-41450000D01*
X169050000Y-42850000D01*
X168550000Y-42850000D01*
X168550000Y-41450000D01*
X167750028Y-41450000D01*
X167750012Y-41450001D01*
X167647302Y-41460494D01*
X167480880Y-41515641D01*
X167480875Y-41515643D01*
X167331654Y-41607684D01*
X167207684Y-41731654D01*
X167115643Y-41880875D01*
X167115641Y-41880880D01*
X167060494Y-42047302D01*
X167060493Y-42047309D01*
X167050000Y-42150013D01*
X166250499Y-42150013D01*
X166250499Y-42149998D01*
X166250498Y-42149981D01*
X166239999Y-42047203D01*
X166239998Y-42047200D01*
X166217694Y-41979892D01*
X166184814Y-41880666D01*
X166092712Y-41731344D01*
X165968656Y-41607288D01*
X165819334Y-41515186D01*
X165652797Y-41460001D01*
X165652795Y-41460000D01*
X165550010Y-41449500D01*
X163449998Y-41449500D01*
X163449981Y-41449501D01*
X163347203Y-41460000D01*
X163347200Y-41460001D01*
X163180668Y-41515185D01*
X163180663Y-41515187D01*
X163031342Y-41607289D01*
X162907289Y-41731342D01*
X162815187Y-41880663D01*
X162815185Y-41880668D01*
X162815115Y-41880880D01*
X162760001Y-42047203D01*
X162760001Y-42047204D01*
X162760000Y-42047204D01*
X162749500Y-42149983D01*
X162749500Y-43737769D01*
X162729815Y-43804808D01*
X162713181Y-43825450D01*
X161925451Y-44613181D01*
X161864128Y-44646666D01*
X161837770Y-44649500D01*
X161124730Y-44649500D01*
X161057691Y-44629815D01*
X161037049Y-44613181D01*
X160918657Y-44494789D01*
X160918656Y-44494788D01*
X160769334Y-44402686D01*
X160602797Y-44347501D01*
X160602795Y-44347500D01*
X160500010Y-44337000D01*
X157499998Y-44337000D01*
X157499981Y-44337001D01*
X157397203Y-44347500D01*
X157397200Y-44347501D01*
X157230668Y-44402685D01*
X157230663Y-44402687D01*
X157081342Y-44494789D01*
X156957289Y-44618842D01*
X156865187Y-44768163D01*
X156865186Y-44768166D01*
X156810001Y-44934703D01*
X156810001Y-44934704D01*
X156810000Y-44934704D01*
X156799500Y-45037483D01*
X156799500Y-45762501D01*
X156799501Y-45762519D01*
X156810000Y-45865296D01*
X156810001Y-45865299D01*
X156865185Y-46031831D01*
X156865187Y-46031836D01*
X156885695Y-46065084D01*
X156957288Y-46181156D01*
X157081344Y-46305212D01*
X157230666Y-46397314D01*
X157397203Y-46452499D01*
X157499991Y-46463000D01*
X157526269Y-46462999D01*
X157593306Y-46482681D01*
X157639063Y-46535484D01*
X157649008Y-46604642D01*
X157619986Y-46668199D01*
X157613952Y-46674680D01*
X157557287Y-46731345D01*
X157465187Y-46880663D01*
X157465186Y-46880666D01*
X157410001Y-47047203D01*
X157410001Y-47047204D01*
X157410000Y-47047204D01*
X157399500Y-47149983D01*
X157399500Y-49250001D01*
X157399501Y-49250018D01*
X157410000Y-49352796D01*
X157410001Y-49352799D01*
X157465185Y-49519331D01*
X157465187Y-49519336D01*
X157480869Y-49544761D01*
X157557288Y-49668656D01*
X157681344Y-49792712D01*
X157830666Y-49884814D01*
X157997203Y-49939999D01*
X158099991Y-49950500D01*
X159337995Y-49950499D01*
X159405034Y-49970184D01*
X159450789Y-50022987D01*
X159460733Y-50092146D01*
X159431708Y-50155702D01*
X159425676Y-50162180D01*
X159174675Y-50413181D01*
X159113352Y-50446666D01*
X159086994Y-50449500D01*
X158099998Y-50449500D01*
X158099980Y-50449501D01*
X157997203Y-50460000D01*
X157997200Y-50460001D01*
X157830668Y-50515185D01*
X157830663Y-50515187D01*
X157681342Y-50607289D01*
X157557289Y-50731342D01*
X157465187Y-50880663D01*
X157465186Y-50880666D01*
X157410001Y-51047203D01*
X157410001Y-51047204D01*
X157410000Y-51047204D01*
X157399500Y-51149983D01*
X157399500Y-51325500D01*
X157379815Y-51392539D01*
X157327011Y-51438294D01*
X157275500Y-51449500D01*
X153423208Y-51449500D01*
X153356169Y-51429815D01*
X153310414Y-51377011D01*
X153300470Y-51307853D01*
X153316260Y-51262745D01*
X153370574Y-51170190D01*
X153453245Y-50951126D01*
X153497705Y-50721241D01*
X153500500Y-50668622D01*
X153500500Y-48731378D01*
X153497705Y-48678759D01*
X153453245Y-48448874D01*
X153370574Y-48229810D01*
X153252070Y-48027868D01*
X153252065Y-48027861D01*
X153101143Y-47848858D01*
X153101141Y-47848856D01*
X152922138Y-47697934D01*
X152922131Y-47697929D01*
X152720189Y-47579425D01*
X152622513Y-47542564D01*
X152501126Y-47496755D01*
X152501121Y-47496754D01*
X152501116Y-47496752D01*
X152498470Y-47496240D01*
X152497451Y-47495713D01*
X152496050Y-47495317D01*
X152496130Y-47495031D01*
X152436392Y-47464177D01*
X152401503Y-47403641D01*
X152404881Y-47333853D01*
X152445452Y-47276970D01*
X152510337Y-47251052D01*
X152522009Y-47250499D01*
X156047872Y-47250499D01*
X156107483Y-47244091D01*
X156242331Y-47193796D01*
X156357546Y-47107546D01*
X156443796Y-46992331D01*
X156494091Y-46857483D01*
X156500500Y-46797873D01*
X156500499Y-44737228D01*
X156520184Y-44670190D01*
X156536813Y-44649553D01*
X158962048Y-42224317D01*
X159023371Y-42190833D01*
X159049729Y-42187999D01*
X160500002Y-42187999D01*
X160500008Y-42187999D01*
X160602797Y-42177499D01*
X160769334Y-42122314D01*
X160918656Y-42030212D01*
X161042712Y-41906156D01*
X161134814Y-41756834D01*
X161189999Y-41590297D01*
X161200500Y-41487509D01*
X161200499Y-40762492D01*
X161189999Y-40659703D01*
X161134814Y-40493166D01*
X161042712Y-40343844D01*
X160918656Y-40219788D01*
X160769334Y-40127686D01*
X160602797Y-40072501D01*
X160602795Y-40072500D01*
X160500010Y-40062000D01*
X157499998Y-40062000D01*
X157499981Y-40062001D01*
X157397203Y-40072500D01*
X157397200Y-40072501D01*
X157230668Y-40127685D01*
X157230663Y-40127687D01*
X157081342Y-40219789D01*
X156957289Y-40343842D01*
X156865187Y-40493163D01*
X156865186Y-40493166D01*
X156810001Y-40659703D01*
X156810001Y-40659704D01*
X156810000Y-40659704D01*
X156799500Y-40762483D01*
X156799500Y-41487501D01*
X156799501Y-41487519D01*
X156810000Y-41590296D01*
X156810001Y-41590299D01*
X156865185Y-41756831D01*
X156865187Y-41756836D01*
X156957289Y-41906157D01*
X156969701Y-41918569D01*
X157003186Y-41979892D01*
X156998202Y-42049584D01*
X156969701Y-42093931D01*
X156309676Y-42753955D01*
X156248353Y-42787440D01*
X156178663Y-42782456D01*
X156107485Y-42755909D01*
X156107483Y-42755908D01*
X156047883Y-42749501D01*
X156047881Y-42749500D01*
X156047873Y-42749500D01*
X156047864Y-42749500D01*
X152452129Y-42749500D01*
X152452123Y-42749501D01*
X152392516Y-42755908D01*
X152257671Y-42806202D01*
X152257664Y-42806206D01*
X152142455Y-42892452D01*
X152142452Y-42892455D01*
X152056206Y-43007664D01*
X152056202Y-43007671D01*
X152005908Y-43142517D01*
X151999501Y-43202116D01*
X151999500Y-43202135D01*
X151999500Y-46797870D01*
X151999501Y-46797876D01*
X152005908Y-46857483D01*
X152056202Y-46992328D01*
X152056206Y-46992335D01*
X152142452Y-47107544D01*
X152142455Y-47107547D01*
X152257664Y-47193793D01*
X152257673Y-47193798D01*
X152304937Y-47211426D01*
X152360871Y-47253296D01*
X152385289Y-47318760D01*
X152370438Y-47387033D01*
X152321033Y-47436439D01*
X152255028Y-47451433D01*
X152218657Y-47449501D01*
X152218628Y-47449500D01*
X152218622Y-47449500D01*
X150281378Y-47449500D01*
X150281370Y-47449500D01*
X150281347Y-47449501D01*
X150228756Y-47452295D01*
X150228755Y-47452295D01*
X149998878Y-47496754D01*
X149998876Y-47496754D01*
X149998874Y-47496755D01*
X149958952Y-47511821D01*
X149779810Y-47579425D01*
X149577868Y-47697929D01*
X149577861Y-47697934D01*
X149398858Y-47848856D01*
X149398856Y-47848858D01*
X149247934Y-48027861D01*
X149247929Y-48027868D01*
X149129425Y-48229810D01*
X149074659Y-48374933D01*
X149046755Y-48448874D01*
X149046754Y-48448876D01*
X149046754Y-48448878D01*
X149002295Y-48678755D01*
X149002295Y-48678756D01*
X148999501Y-48731347D01*
X148999500Y-48731386D01*
X148999500Y-50668613D01*
X148999501Y-50668652D01*
X149002295Y-50721243D01*
X149002295Y-50721244D01*
X149041572Y-50924328D01*
X149046755Y-50951126D01*
X149129426Y-51170190D01*
X149183738Y-51262744D01*
X149200690Y-51330523D01*
X149178306Y-51396710D01*
X149123692Y-51440289D01*
X149076792Y-51449500D01*
X144126076Y-51449500D01*
X144097242Y-51455234D01*
X144097243Y-51455235D01*
X143981093Y-51478339D01*
X143981083Y-51478342D01*
X143901081Y-51511479D01*
X143901082Y-51511480D01*
X143844504Y-51534916D01*
X143844503Y-51534916D01*
X143814033Y-51555276D01*
X143721589Y-51617044D01*
X143721581Y-51617050D01*
X143325450Y-52013181D01*
X143264127Y-52046666D01*
X143237769Y-52049500D01*
X141899998Y-52049500D01*
X141899981Y-52049501D01*
X141797203Y-52060000D01*
X141797200Y-52060001D01*
X141630668Y-52115185D01*
X141630663Y-52115187D01*
X141481342Y-52207289D01*
X141357289Y-52331342D01*
X141265187Y-52480663D01*
X141265186Y-52480666D01*
X141210001Y-52647203D01*
X141210001Y-52647204D01*
X141210000Y-52647204D01*
X141199500Y-52749983D01*
X140550500Y-52749983D01*
X140550500Y-43935803D01*
X146250000Y-43935803D01*
X146250000Y-44750000D01*
X147750000Y-44750000D01*
X147750000Y-45250000D01*
X146250001Y-45250000D01*
X146250001Y-46064197D01*
X146260400Y-46196332D01*
X146315377Y-46414519D01*
X146408428Y-46619374D01*
X146408431Y-46619380D01*
X146536559Y-46804323D01*
X146536569Y-46804335D01*
X146695664Y-46963430D01*
X146695676Y-46963440D01*
X146880619Y-47091568D01*
X146880625Y-47091571D01*
X147085480Y-47184622D01*
X147303667Y-47239599D01*
X147435810Y-47249999D01*
X147999999Y-47249999D01*
X148000000Y-47249998D01*
X148000000Y-46433012D01*
X148057007Y-46465925D01*
X148184174Y-46500000D01*
X148315826Y-46500000D01*
X148442993Y-46465925D01*
X148500000Y-46433012D01*
X148500000Y-47249999D01*
X149064182Y-47249999D01*
X149064197Y-47249998D01*
X149196332Y-47239599D01*
X149414519Y-47184622D01*
X149619374Y-47091571D01*
X149619380Y-47091568D01*
X149804323Y-46963440D01*
X149804335Y-46963430D01*
X149963430Y-46804335D01*
X149963440Y-46804323D01*
X150091568Y-46619380D01*
X150091571Y-46619374D01*
X150184622Y-46414519D01*
X150239599Y-46196332D01*
X150249999Y-46064196D01*
X150250000Y-46064184D01*
X150250000Y-45250000D01*
X148750000Y-45250000D01*
X148750000Y-44750000D01*
X150249999Y-44750000D01*
X150249999Y-43935817D01*
X150249998Y-43935802D01*
X150239599Y-43803667D01*
X150184622Y-43585480D01*
X150091571Y-43380625D01*
X150091568Y-43380619D01*
X149963440Y-43195676D01*
X149963430Y-43195664D01*
X149804335Y-43036569D01*
X149804323Y-43036559D01*
X149619380Y-42908431D01*
X149619374Y-42908428D01*
X149414519Y-42815377D01*
X149196332Y-42760400D01*
X149064196Y-42750000D01*
X148500000Y-42750000D01*
X148500000Y-43566988D01*
X148442993Y-43534075D01*
X148315826Y-43500000D01*
X148184174Y-43500000D01*
X148057007Y-43534075D01*
X148000000Y-43566988D01*
X148000000Y-42750000D01*
X147435817Y-42750000D01*
X147435802Y-42750001D01*
X147303667Y-42760400D01*
X147085480Y-42815377D01*
X146880625Y-42908428D01*
X146880619Y-42908431D01*
X146695676Y-43036559D01*
X146695664Y-43036569D01*
X146536569Y-43195664D01*
X146536559Y-43195676D01*
X146408431Y-43380619D01*
X146408428Y-43380625D01*
X146315377Y-43585480D01*
X146260400Y-43803667D01*
X146250000Y-43935803D01*
X140550500Y-43935803D01*
X140550500Y-37393713D01*
X142149500Y-37393713D01*
X142149500Y-37606287D01*
X142182754Y-37816243D01*
X142217261Y-37922445D01*
X142248444Y-38018414D01*
X142344951Y-38207820D01*
X142469890Y-38379786D01*
X142620213Y-38530109D01*
X142792179Y-38655048D01*
X142792181Y-38655049D01*
X142792184Y-38655051D01*
X142981588Y-38751557D01*
X143183757Y-38817246D01*
X143393713Y-38850500D01*
X143393714Y-38850500D01*
X143606286Y-38850500D01*
X143606287Y-38850500D01*
X143816243Y-38817246D01*
X144018412Y-38751557D01*
X144207816Y-38655051D01*
X144315537Y-38576788D01*
X144379786Y-38530109D01*
X144379788Y-38530106D01*
X144379792Y-38530104D01*
X144530104Y-38379792D01*
X144530106Y-38379788D01*
X144530109Y-38379786D01*
X144655048Y-38207820D01*
X144655047Y-38207820D01*
X144655051Y-38207816D01*
X144751557Y-38018412D01*
X144817246Y-37816243D01*
X144850500Y-37606287D01*
X144850500Y-37413389D01*
X148399500Y-37413389D01*
X148399500Y-37586610D01*
X148426597Y-37757697D01*
X148426597Y-37757699D01*
X148426598Y-37757701D01*
X148480127Y-37922445D01*
X148558768Y-38076788D01*
X148660586Y-38216928D01*
X148783072Y-38339414D01*
X148923212Y-38441232D01*
X149077555Y-38519873D01*
X149242299Y-38573402D01*
X149413389Y-38600500D01*
X149413390Y-38600500D01*
X149586610Y-38600500D01*
X149586611Y-38600500D01*
X149757701Y-38573402D01*
X149922445Y-38519873D01*
X150076788Y-38441232D01*
X150216928Y-38339414D01*
X150339414Y-38216928D01*
X150441232Y-38076788D01*
X150519873Y-37922445D01*
X150522815Y-37913389D01*
X178399500Y-37913389D01*
X178399500Y-38086610D01*
X178420140Y-38216930D01*
X178426598Y-38257701D01*
X178480127Y-38422445D01*
X178558768Y-38576788D01*
X178660586Y-38716928D01*
X178783072Y-38839414D01*
X178923212Y-38941232D01*
X179077555Y-39019873D01*
X179242299Y-39073402D01*
X179413389Y-39100500D01*
X179413390Y-39100500D01*
X179586610Y-39100500D01*
X179586611Y-39100500D01*
X179757701Y-39073402D01*
X179922445Y-39019873D01*
X180076788Y-38941232D01*
X180216928Y-38839414D01*
X180339414Y-38716928D01*
X180441232Y-38576788D01*
X180519873Y-38422445D01*
X180573402Y-38257701D01*
X180600500Y-38086611D01*
X180600500Y-37913389D01*
X180573402Y-37742299D01*
X180519873Y-37577555D01*
X180519870Y-37577549D01*
X180452403Y-37445135D01*
X180441233Y-37423214D01*
X180434095Y-37413389D01*
X180419800Y-37393713D01*
X185149500Y-37393713D01*
X185149500Y-37606287D01*
X185182754Y-37816243D01*
X185217261Y-37922445D01*
X185248444Y-38018414D01*
X185344951Y-38207820D01*
X185469890Y-38379786D01*
X185620213Y-38530109D01*
X185792179Y-38655048D01*
X185792181Y-38655049D01*
X185792184Y-38655051D01*
X185981588Y-38751557D01*
X186183757Y-38817246D01*
X186393713Y-38850500D01*
X186393714Y-38850500D01*
X186606286Y-38850500D01*
X186606287Y-38850500D01*
X186816243Y-38817246D01*
X187018412Y-38751557D01*
X187207816Y-38655051D01*
X187315537Y-38576788D01*
X187379786Y-38530109D01*
X187379788Y-38530106D01*
X187379792Y-38530104D01*
X187530104Y-38379792D01*
X187530106Y-38379788D01*
X187530109Y-38379786D01*
X187655048Y-38207820D01*
X187655047Y-38207820D01*
X187655051Y-38207816D01*
X187751557Y-38018412D01*
X187817246Y-37816243D01*
X187850500Y-37606287D01*
X187850500Y-37393713D01*
X187817246Y-37183757D01*
X187751557Y-36981588D01*
X187655051Y-36792184D01*
X187655049Y-36792181D01*
X187655048Y-36792179D01*
X187530109Y-36620213D01*
X187379786Y-36469890D01*
X187207820Y-36344951D01*
X187018414Y-36248444D01*
X187018413Y-36248443D01*
X187018412Y-36248443D01*
X186816243Y-36182754D01*
X186816241Y-36182753D01*
X186816240Y-36182753D01*
X186654957Y-36157208D01*
X186606287Y-36149500D01*
X186393713Y-36149500D01*
X186345042Y-36157208D01*
X186183760Y-36182753D01*
X185981585Y-36248444D01*
X185792179Y-36344951D01*
X185620213Y-36469890D01*
X185469890Y-36620213D01*
X185344951Y-36792179D01*
X185248444Y-36981585D01*
X185182753Y-37183760D01*
X185173481Y-37242302D01*
X185149500Y-37393713D01*
X180419800Y-37393713D01*
X180339414Y-37283072D01*
X180216928Y-37160586D01*
X180076788Y-37058768D01*
X179922445Y-36980127D01*
X179757701Y-36926598D01*
X179757699Y-36926597D01*
X179757698Y-36926597D01*
X179626271Y-36905781D01*
X179586611Y-36899500D01*
X179413389Y-36899500D01*
X179373728Y-36905781D01*
X179242302Y-36926597D01*
X179077552Y-36980128D01*
X178923211Y-37058768D01*
X178843256Y-37116859D01*
X178783072Y-37160586D01*
X178783070Y-37160588D01*
X178783069Y-37160588D01*
X178660588Y-37283069D01*
X178660588Y-37283070D01*
X178660586Y-37283072D01*
X178616859Y-37343256D01*
X178558768Y-37423211D01*
X178480128Y-37577552D01*
X178426597Y-37742302D01*
X178399500Y-37913389D01*
X150522815Y-37913389D01*
X150573402Y-37757701D01*
X150600500Y-37586611D01*
X150600500Y-37413389D01*
X150573402Y-37242299D01*
X150519873Y-37077555D01*
X150441232Y-36923212D01*
X150339414Y-36783072D01*
X150216928Y-36660586D01*
X150076788Y-36558768D01*
X149922445Y-36480127D01*
X149757701Y-36426598D01*
X149757699Y-36426597D01*
X149757698Y-36426597D01*
X149626271Y-36405781D01*
X149586611Y-36399500D01*
X149413389Y-36399500D01*
X149373728Y-36405781D01*
X149242302Y-36426597D01*
X149077552Y-36480128D01*
X148923211Y-36558768D01*
X148843256Y-36616859D01*
X148783072Y-36660586D01*
X148783070Y-36660588D01*
X148783069Y-36660588D01*
X148660588Y-36783069D01*
X148660588Y-36783070D01*
X148660586Y-36783072D01*
X148653966Y-36792184D01*
X148558768Y-36923211D01*
X148480128Y-37077552D01*
X148426597Y-37242302D01*
X148399500Y-37413389D01*
X144850500Y-37413389D01*
X144850500Y-37393713D01*
X144817246Y-37183757D01*
X144751557Y-36981588D01*
X144655051Y-36792184D01*
X144655049Y-36792181D01*
X144655048Y-36792179D01*
X144530109Y-36620213D01*
X144379786Y-36469890D01*
X144207820Y-36344951D01*
X144018414Y-36248444D01*
X144018413Y-36248443D01*
X144018412Y-36248443D01*
X143816243Y-36182754D01*
X143816241Y-36182753D01*
X143816240Y-36182753D01*
X143654957Y-36157208D01*
X143606287Y-36149500D01*
X143393713Y-36149500D01*
X143345042Y-36157208D01*
X143183760Y-36182753D01*
X142981585Y-36248444D01*
X142792179Y-36344951D01*
X142620213Y-36469890D01*
X142469890Y-36620213D01*
X142344951Y-36792179D01*
X142248444Y-36981585D01*
X142182753Y-37183760D01*
X142173481Y-37242302D01*
X142149500Y-37393713D01*
X140550500Y-37393713D01*
X140550500Y-34624500D01*
X140570185Y-34557461D01*
X140622989Y-34511706D01*
X140674500Y-34500500D01*
X189375500Y-34500500D01*
X189442539Y-34520185D01*
G37*
%TD.AperFunction*%
%TD*%
M02*
